<svg width="705" height="192" viewBox="0 0 705 192" fill="none" xmlns="http://www.w3.org/2000/svg"><path d="M4 4h685v172H4V4z" fill="#F8F8F8"/><path fill-rule="evenodd" clip-rule="evenodd" d="M688 5H5v170h683V5zM4 4v172h685V4H4z" fill="#AAA"/><path d="M28 24h190v100H28V24z" fill="#B9E3B5"/><path d="M121.92 60.8l-6.6 2.52v5.4l5.12-1.92v16.04h-5.12V88h15.52v-5.16h-4.56V60.8h-4.36z" fill="#fff"/><path d="M234 24h190v100H234V24z" fill="#FFD699"/><path d="M319.6 63.12v5.6a14.9 14.9 0 018.8-3.24c2.77 0 4.53 1.04 4.53 3.04 0 2.6-2.44 3.68-5.28 5.32-4 2.36-8.96 4.92-8.96 11.48V88h20.4v-5.16l-13.6.04c.04-1.76 2.8-3.24 6.04-5.16 3.56-2.12 7.36-4.84 7.36-9.44 0-5.56-4.44-8.04-9.92-8.04-3.32 0-6.56.88-9.36 2.88z" fill="#fff"/><path d="M440 24h190v100H440V24z" fill="#D0CCF0"/><path d="M544.17 67.76c0-4.96-4.2-7.52-9.84-7.52-3.36 0-6.44.8-8.88 2.12v5.56a15.91 15.91 0 018.04-2.44c3.28 0 5 1.16 5 3.12 0 1.88-1.64 2.88-4.32 2.88l-3.76-.04-.04 5.12h4.48c2.72 0 4.72.84 4.72 3.16 0 2.56-2.56 3.56-5.64 3.56-3.12.04-5.88-.4-8.96-2.12v5.56a23.25 23.25 0 009.44 1.84c5.6 0 10.88-2.28 10.88-8 0-4-2.48-6.12-5.24-6.96a5.92 5.92 0 004.12-5.84z" fill="#fff"/><path d="M286.59 152v-5.8h3.63v-1.88h-5.85V152h2.22zM293.96 146.08h1.97V152h2.22v-7.68h-6.24c-.14 3.44-.41 5.95-1.63 5.95-.14 0-.3-.03-.46-.1v1.77c.44.16.86.22 1.21.22 2.12 0 2.7-2.62 2.93-6.08zM306.9 150.02v-2.45c0-2.53-1.47-3.47-3.77-3.47-1.19 0-2.36.3-2.98.5v1.93a7.36 7.36 0 012.72-.58c1.2 0 1.8.53 1.8 1.3v.27a8.38 8.38 0 00-1.82-.2c-1.53 0-3.37.6-3.37 2.55 0 1.52 1.25 2.35 2.69 2.35 1.13 0 2.01-.35 2.76-.94.32.58.92.86 1.7.86.43 0 .88-.1 1.23-.22v-1.46c-.14.05-.29.07-.41.07-.3 0-.55-.11-.55-.51zm-3.53-1.38c.46 0 .97.1 1.3.18v1.2c-.5.44-1.1.62-1.72.62-.67 0-1.2-.37-1.2-.94 0-.79.8-1.06 1.62-1.06zM313.76 152c1.93 0 2.57-1 2.57-2.08 0-.93-.52-1.54-1.36-1.8a1.75 1.75 0 001.19-1.77c0-1.04-.7-2.03-2.53-2.03h-4.58V152h4.7zm-2.48-3.18h1.82c.54 0 1.02.19 1.02.84 0 .61-.46.82-1.02.82h-1.82v-1.66zm-.02-2.98h1.68c.51 0 .98.2.98.83 0 .6-.44.8-.96.8h-1.7v-1.63zM320.06 152v-2.91h3.1V152h2.23v-7.68h-2.23v2.91h-3.1v-2.91h-2.23V152h2.23zM334.14 150.02v-2.45c0-2.53-1.48-3.47-3.78-3.47-1.18 0-2.35.3-2.98.5v1.93a7.36 7.36 0 012.72-.58c1.2 0 1.81.53 1.81 1.3v.27a8.38 8.38 0 00-1.82-.2c-1.54 0-3.38.6-3.38 2.55 0 1.52 1.25 2.35 2.69 2.35 1.14 0 2.02-.35 2.77-.94.32.58.91.86 1.7.86.43 0 .87-.1 1.23-.22v-1.46c-.15.05-.3.07-.42.07-.29 0-.54-.11-.54-.51zm-3.54-1.38c.46 0 .98.1 1.31.18v1.2c-.51.44-1.1.62-1.73.62-.67 0-1.2-.37-1.2-.94 0-.79.8-1.06 1.62-1.06zM338.11 152l1.71-2.29h1.25V152h2.23v-7.68h-4.16c-2.02 0-3.08 1.25-3.08 2.69 0 1.04.53 1.97 1.57 2.41l-2.01 2.58h2.5zm.21-4.93c0-.64.46-.99 1.26-.99h1.5v1.97h-1.5c-.8 0-1.26-.35-1.26-.98zM348.3 148.16c0 2.69 2 4.06 4.23 4.06 2.24 0 4.24-1.37 4.24-4.06 0-2.69-2-4.06-4.24-4.06-2.22 0-4.24 1.37-4.24 4.06zm6.22 0c0 1.18-.7 2.08-1.99 2.08-1.26 0-1.96-.9-1.96-2.08 0-1.18.7-2.08 1.96-2.08 1.28 0 1.99.9 1.99 2.08zM357.8 148.27c0 2.74 2.09 3.95 4.19 3.95.97 0 1.83-.19 2.59-.5v-1.98c-.56.34-1.35.56-2.16.56-1.2 0-2.36-.67-2.36-2.14 0-1.55 1.17-2.14 2.39-2.14.74 0 1.5.22 2.05.57v-1.95a5.07 5.07 0 00-2.37-.56c-2.13 0-4.34 1.25-4.34 4.2zM370.12 152c2.01 0 3.1-1.17 3.1-2.64 0-1.47-1.09-2.64-3.1-2.64h-1.78v-2.4h-2.22V152h4zm-1.8-3.68h1.25c.88 0 1.36.38 1.36 1.04s-.48 1.04-1.36 1.04h-1.25v-2.08z" fill="#E84E1B"/><path fill-rule="evenodd" clip-rule="evenodd" d="M695 156.23l10 5.77-10 5.77V163H6v-2h689v-4.77z" fill="#E84E1B"/><path d="M8 162a4 4 0 11-8 0 4 4 0 018 0z" fill="#E84E1B"/><path d="M666 142.38h-5.8v-3.1h5.8v-2.23h-7.68v7.55H666v-2.22zM662.16 135.6c2.69 0 4.06-2.02 4.06-4.24 0-2.24-1.37-4.24-4.06-4.24-2.69 0-4.06 2-4.06 4.24 0 2.22 1.37 4.24 4.06 4.24zm0-6.23c1.18 0 2.08.7 2.08 1.99 0 1.26-.9 1.96-2.08 1.96-1.18 0-2.08-.7-2.08-1.96 0-1.28.9-1.99 2.08-1.99zM666 123.44h-5.8v-3.1h5.8v-2.23h-7.68v7.56H666v-2.23zM662.16 116.66c2.67 0 4.06-2.02 4.06-4.45a7.3 7.3 0 00-.48-2.81H664c.29.65.46 1.44.46 2.32 0 1.26-.46 2.44-1.58 2.7v-5.4c-2.27-.52-4.78.5-4.78 3.69a3.87 3.87 0 004.06 3.95zm-.72-5.65v3.43c-1.06-.04-1.65-.87-1.65-1.81 0-1.4 1.12-1.7 1.65-1.62zM659.44 105.54h-1.12v1.97h11.2v-2.23h-4.34a3.3 3.3 0 001.04-2.52c0-2.44-1.96-3.75-4.06-3.75-2.1 0-4.06 1.31-4.06 3.75 0 1.42.65 2.3 1.34 2.78zm2.72-4.26c1.2 0 2.2.76 2.2 2.02 0 .98-.62 1.7-1.29 2h-1.82a2.2 2.2 0 01-1.28-2c0-1.26.99-2.02 2.19-2.02zM662.16 97.99c2.67 0 4.06-2.02 4.06-4.45a7.3 7.3 0 00-.48-2.82H664c.29.66.46 1.44.46 2.32 0 1.27-.46 2.45-1.58 2.7v-5.4c-2.27-.51-4.78.51-4.78 3.7a3.87 3.87 0 004.06 3.95zm-.72-5.65v3.42c-1.06-.03-1.65-.86-1.65-1.8 0-1.4 1.12-1.7 1.65-1.62zM666 82.08h-7.68v2.21h3.49c.17.42.24.85.24 1.36 0 .82-.29 1.38-1.2 1.38h-2.53v2.22h2.74c1.98 0 2.86-1.34 2.86-2.99 0-.77-.1-1.36-.32-1.97h2.4v-2.2zM666 77.97h-2.91v-3.1H666v-2.23h-7.68v2.23h2.91v3.1h-2.91v2.23H666v-2.23zM664.02 63.9h-2.45c-2.53 0-3.47 1.47-3.47 3.77 0 1.18.3 2.35.5 2.98h1.93a7.36 7.36 0 01-.58-2.72c0-1.2.53-1.81 1.3-1.81h.27c-.13.54-.2 1.21-.2 1.82 0 1.54.6 3.38 2.55 3.38 1.52 0 2.35-1.25 2.35-2.69 0-1.14-.35-2.02-.94-2.77.58-.32.86-.9.86-1.7 0-.43-.1-.87-.22-1.23h-1.46c.05.15.07.3.07.42 0 .29-.11.54-.51.54zm-1.38 3.53c0-.46.1-.98.18-1.31h1.2c.44.51.62 1.1.62 1.73 0 .67-.37 1.2-.94 1.2-.79 0-1.06-.8-1.06-1.62zM666 59.92l-2.29-1.71v-1.25H666v-2.22h-7.68v4.16c0 2.01 1.25 3.07 2.69 3.07 1.04 0 1.97-.53 2.41-1.57l2.58 2.02v-2.5zm-4.93-.2c-.64 0-.99-.47-.99-1.27v-1.5h1.97v1.5c0 .8-.35 1.26-.98 1.26zM662.16 49.74c2.69 0 4.06-2.02 4.06-4.24 0-2.24-1.37-4.24-4.06-4.24-2.69 0-4.06 2-4.06 4.24 0 2.22 1.37 4.24 4.06 4.24zm0-6.23c1.18 0 2.08.7 2.08 1.99 0 1.26-.9 1.97-2.08 1.97-1.18 0-2.08-.7-2.08-1.97 0-1.28.9-1.99 2.08-1.99zM662.27 40.24c2.74 0 3.95-2.1 3.95-4.2 0-.97-.19-1.83-.5-2.59h-1.98c.34.56.56 1.35.56 2.16 0 1.2-.67 2.36-2.14 2.36-1.55 0-2.14-1.17-2.14-2.39 0-.73.22-1.5.57-2.05h-1.95a5.07 5.07 0 00-.56 2.37c0 2.13 1.25 4.34 4.2 4.34zM666 27.91c0-2.01-1.17-3.1-2.64-3.1-1.47 0-2.64 1.09-2.64 3.1v1.78h-2.4v2.22H666v-4zm-3.68 1.8v-1.25c0-.88.38-1.36 1.04-1.36s1.04.48 1.04 1.36v1.25h-2.08z" fill="#5B4DCB"/><path fill-rule="evenodd" clip-rule="evenodd" d="M681.77 182L676 192l-5.77-10H675V5h2v177h4.77z" fill="#5B4DCB"/><path d="M676 8a4 4 0 110-8 4 4 0 010 8z" fill="#5B4DCB"/></svg>