<svg width="705" height="284" viewBox="0 0 705 284" fill="none" xmlns="http://www.w3.org/2000/svg"><path d="M4 4h685v264H4V4z" fill="#F8F8F8"/><path fill-rule="evenodd" clip-rule="evenodd" d="M688 5H5v262h683V5zM4 4v264h685V4H4z" fill="#AAA"/><path d="M64 24h601v56H64V24z" fill="#B9E3B5"/><path d="M363.92 38.8l-6.6 2.52v5.4l5.12-1.92v16.04h-5.12V66h15.52v-5.16h-4.56V38.8h-4.36z" fill="#fff"/><path d="M64 92h601v56H64V92z" fill="#FFD699"/><path d="M355.6 109.12v5.6a14.9 14.9 0 018.8-3.24c2.77 0 4.53 1.04 4.53 3.04 0 2.6-2.44 3.68-5.28 5.32-4 2.36-8.96 4.92-8.96 11.48V134h20.4v-5.16l-13.6.04c.04-1.76 2.8-3.24 6.04-5.16 3.56-2.12 7.36-4.84 7.36-9.44 0-5.56-4.44-8.04-9.92-8.04-3.32 0-6.56.88-9.36 2.88z" fill="#fff"/><path d="M64 160h601v56H64v-56z" fill="#D0CCF0"/><path d="M374.17 181.76c0-4.96-4.2-7.52-9.84-7.52-3.36 0-6.44.8-8.88 2.12v5.56a15.91 15.91 0 018.04-2.44c3.28 0 5 1.16 5 3.12 0 1.88-1.64 2.88-4.32 2.88l-3.76-.04-.04 5.12h4.48c2.72 0 4.72.84 4.72 3.16 0 2.56-2.56 3.56-5.64 3.56-3.12.04-5.88-.4-8.96-2.12v5.56a23.25 23.25 0 009.44 1.84c5.6 0 10.88-2.28 10.88-8 0-4-2.48-6.12-5.24-6.96a5.92 5.92 0 004.12-5.84z" fill="#fff"/><path d="M30 161.41h-5.8v-3.63h-1.88v5.85H30v-2.22zM24.08 154.04v-1.97H30v-2.22h-7.68v6.24c3.44.14 5.95.41 5.95 1.63 0 .14-.03.3-.1.46h1.77c.16-.45.22-.86.22-1.21 0-2.12-2.62-2.7-6.08-2.93zM28.02 141.1h-2.45c-2.53 0-3.47 1.47-3.47 3.77 0 1.19.3 2.36.5 2.98h1.93a7.36 7.36 0 01-.58-2.72c0-1.2.53-1.8 1.3-1.8h.27c-.13.54-.2 1.2-.2 1.82 0 1.53.6 3.37 2.55 3.37 1.52 0 2.35-1.25 2.35-2.69 0-1.13-.35-2.01-.94-2.76.58-.32.86-.92.86-1.7 0-.43-.1-.88-.22-1.23h-1.46c.05.14.07.29.07.41 0 .3-.11.55-.51.55zm-1.38 3.53c0-.46.1-.97.18-1.3h1.2c.44.5.62 1.1.62 1.72 0 .67-.37 1.2-.94 1.2-.79 0-1.06-.8-1.06-1.62zM30 134.24c0-1.93-1-2.57-2.08-2.57-.93 0-1.54.52-1.8 1.36a1.75 1.75 0 00-1.77-1.19c-1.04 0-2.03.7-2.03 2.53v4.58H30v-4.7zm-3.18 2.48v-1.82c0-.55.19-1.03.84-1.03.61 0 .82.47.82 1.03v1.82h-1.66zm-2.98.02v-1.68c0-.51.2-.98.83-.98.6 0 .8.43.8.96v1.7h-1.63zM30 127.94h-2.91v-3.1H30v-2.23h-7.68v2.23h2.91v3.1h-2.91v2.22H30v-2.22zM28.02 113.86h-2.45c-2.53 0-3.47 1.48-3.47 3.78 0 1.18.3 2.35.5 2.98h1.93a7.36 7.36 0 01-.58-2.72c0-1.2.53-1.81 1.3-1.81h.27c-.13.54-.2 1.21-.2 1.82 0 1.54.6 3.38 2.55 3.38 1.52 0 2.35-1.25 2.35-2.69 0-1.14-.35-2.02-.94-2.77.58-.32.86-.91.86-1.7 0-.43-.1-.87-.22-1.23h-1.46c.05.15.07.3.07.42 0 .29-.11.54-.51.54zm-1.38 3.54c0-.46.1-.98.18-1.31h1.2c.44.51.62 1.1.62 1.73 0 .67-.37 1.2-.94 1.2-.79 0-1.06-.8-1.06-1.62zM30 109.89l-2.29-1.71v-1.25H30v-2.23h-7.68v4.16c0 2.02 1.25 3.08 2.69 3.08 1.04 0 1.97-.53 2.41-1.57l2.58 2.01v-2.5zm-4.93-.21c-.64 0-.99-.46-.99-1.26v-1.5h1.97v1.5c0 .8-.35 1.26-.98 1.26zM26.16 99.7c2.69 0 4.06-2.01 4.06-4.23 0-2.24-1.37-4.24-4.06-4.24-2.69 0-4.06 2-4.06 4.24 0 2.22 1.37 4.24 4.06 4.24zm0-6.22c1.18 0 2.08.7 2.08 1.99 0 1.26-.9 1.96-2.08 1.96-1.18 0-2.08-.7-2.08-1.96 0-1.28.9-1.99 2.08-1.99zM26.27 90.2c2.74 0 3.95-2.09 3.95-4.19 0-.97-.19-1.84-.5-2.59h-1.98c.34.56.56 1.35.56 2.16 0 1.2-.67 2.35-2.14 2.35-1.55 0-2.14-1.16-2.14-2.38 0-.74.22-1.5.57-2.05h-1.95a5.07 5.07 0 00-.56 2.37c0 2.13 1.25 4.34 4.2 4.34zM30 77.88c0-2.01-1.17-3.1-2.64-3.1-1.47 0-2.64 1.09-2.64 3.1v1.78h-2.4v2.22H30v-4zm-3.68 1.8v-1.25c0-.88.38-1.36 1.04-1.36s1.04.48 1.04 1.36v1.25h-2.08z" fill="#E84E1B"/><path fill-rule="evenodd" clip-rule="evenodd" d="M45.77 274L40 284l-5.77-10H39V6h2v268h4.77z" fill="#E84E1B"/><path d="M40 8a4 4 0 110-8 4 4 0 010 8z" fill="#E84E1B"/><path d="M307.62 244v-5.8h3.1v5.8h2.23v-7.68h-7.55V244h2.22zM314.4 240.16c0 2.69 2.02 4.06 4.24 4.06 2.24 0 4.24-1.37 4.24-4.06 0-2.69-2-4.06-4.24-4.06-2.22 0-4.24 1.37-4.24 4.06zm6.23 0c0 1.18-.7 2.08-1.99 2.08-1.26 0-1.96-.9-1.96-2.08 0-1.18.7-2.08 1.96-2.08 1.28 0 1.99.9 1.99 2.08zM326.56 244v-5.8h3.1v5.8h2.23v-7.68h-7.56V244h2.23zM333.34 240.16c0 2.67 2.02 4.06 4.45 4.06a7.3 7.3 0 002.81-.48V242c-.65.29-1.44.46-2.32.46-1.26 0-2.44-.46-2.7-1.58h5.4c.52-2.27-.5-4.78-3.69-4.78a3.87 3.87 0 00-3.95 4.06zm5.65-.72h-3.43c.04-1.06.87-1.65 1.81-1.65 1.4 0 1.7 1.12 1.62 1.65zM344.46 237.44v-1.12h-1.97v11.2h2.22v-4.34a3.3 3.3 0 002.53 1.04c2.44 0 3.75-1.96 3.75-4.06 0-2.1-1.31-4.06-3.75-4.06-1.42 0-2.3.65-2.78 1.34zm4.25 2.72c0 1.2-.75 2.2-2.01 2.2-.98 0-1.7-.62-2-1.29v-1.82a2.2 2.2 0 012-1.28c1.26 0 2.01.99 2.01 2.19zM352.01 240.16c0 2.67 2.02 4.06 4.45 4.06a7.3 7.3 0 002.82-.48V242c-.66.29-1.44.46-2.32.46-1.27 0-2.45-.46-2.7-1.58h5.4c.51-2.27-.51-4.78-3.7-4.78a3.87 3.87 0 00-3.95 4.06zm5.65-.72h-3.42c.03-1.06.86-1.65 1.8-1.65 1.4 0 1.7 1.12 1.62 1.65zM367.92 244v-7.68h-2.21v3.49c-.42.17-.85.24-1.36.24-.82 0-1.38-.29-1.38-1.2v-2.53h-2.22v2.74c0 1.98 1.34 2.86 2.99 2.86.77 0 1.36-.1 1.97-.32v2.4h2.2zM372.03 244v-2.91h3.1V244h2.23v-7.68h-2.23v2.91h-3.1v-2.91h-2.23V244h2.23zM386.1 242.02v-2.45c0-2.53-1.47-3.47-3.77-3.47-1.19 0-2.35.3-2.98.5v1.93a7.36 7.36 0 012.72-.58c1.2 0 1.81.53 1.81 1.3v.27a8.38 8.38 0 00-1.82-.2c-1.54 0-3.38.6-3.38 2.55 0 1.52 1.25 2.35 2.69 2.35 1.13 0 2.01-.35 2.77-.94.32.58.9.86 1.7.86.43 0 .87-.1 1.23-.22v-1.46c-.15.05-.3.07-.42.07-.29 0-.54-.11-.54-.51zm-3.53-1.38c.46 0 .98.1 1.31.18v1.2c-.51.44-1.1.62-1.73.62-.67 0-1.2-.37-1.2-.94 0-.79.8-1.06 1.62-1.06zM390.08 244l1.71-2.29h1.25V244h2.22v-7.68h-4.15c-2.02 0-3.08 1.25-3.08 2.69 0 1.04.53 1.97 1.57 2.41l-2.02 2.58h2.5zm.2-4.93c0-.64.47-.99 1.27-.99h1.5v1.97h-1.5c-.8 0-1.26-.35-1.26-.98zM400.26 240.16c0 2.69 2.02 4.06 4.24 4.06 2.24 0 4.24-1.37 4.24-4.06 0-2.69-2-4.06-4.24-4.06-2.22 0-4.24 1.37-4.24 4.06zm6.23 0c0 1.18-.7 2.08-1.99 2.08-1.26 0-1.97-.9-1.97-2.08 0-1.18.7-2.08 1.97-2.08 1.28 0 1.99.9 1.99 2.08zM409.76 240.27c0 2.74 2.1 3.95 4.2 3.95.97 0 1.83-.19 2.59-.5v-1.98c-.56.34-1.35.56-2.16.56-1.2 0-2.36-.67-2.36-2.14 0-1.55 1.17-2.14 2.39-2.14.73 0 1.5.22 2.05.57v-1.95a5.07 5.07 0 00-2.37-.56c-2.13 0-4.34 1.25-4.34 4.2zM422.08 244c2.02 0 3.1-1.17 3.1-2.64 0-1.47-1.08-2.64-3.1-2.64h-1.77v-2.4h-2.23V244h4zm-1.79-3.68h1.25c.88 0 1.36.38 1.36 1.04s-.48 1.04-1.36 1.04h-1.25v-2.08z" fill="#5B4DCB"/><path fill-rule="evenodd" clip-rule="evenodd" d="M695 248.23l10 5.77-10 5.77V255H6v-2h689v-4.77z" fill="#5B4DCB"/><path d="M8 254a4 4 0 11-8 0 4 4 0 018 0z" fill="#5B4DCB"/></svg>