<svg width="600" height="352" viewBox="0 0 600 352" fill="none" xmlns="http://www.w3.org/2000/svg"><path fill="#3D458F" d="M0 0h600v352H0z"/><g filter="url(#filter0_d)"><path d="M10 20a10 10 0 0110-10h560a10 10 0 0110 10v307a10 10 0 01-10 10H20a10 10 0 01-10-10V20z" fill="#5A66D8"/></g><path d="M317.07 306.5h-4.45l-.94 4.5h-1.12l2.07-9.8h1.12l-.9 4.27h4.44l.9-4.27h1.12l-2.07 9.8h-1.12l.95-4.5zM324.39 310.31c-.33.28-.72.5-1.16.65-.44.14-.89.2-1.34.2-.74 0-1.3-.2-1.69-.64a2.64 2.64 0 01-.56-1.79c0-.76.1-1.45.32-2.06.22-.6.5-1.12.84-1.54.36-.42.75-.74 1.2-.96.44-.23.9-.34 1.37-.34.33 0 .62.05.86.14.25.1.46.22.62.38.16.15.27.33.35.53.07.2.11.4.11.63 0 .67-.32 1.19-.96 1.57a5.7 5.7 0 01-2.82.56h-.35l-.38-.03a5.88 5.88 0 00-.1.93c0 .5.1.93.34 1.26.23.31.6.47 1.1.47a3.06 3.06 0 001.91-.63l.34.67zm-1.2-5.58c-.5 0-.95.17-1.34.53a3.3 3.3 0 00-.85 1.57l1.1-.03c.39-.02.73-.06 1.04-.14.32-.08.58-.21.79-.38a.9.9 0 00.25-1 .59.59 0 00-.16-.27.73.73 0 00-.32-.2c-.13-.05-.3-.08-.5-.08zM333.62 308.12l-1.08.16-2.25 2.72h-1.36l2.04-2.4.69-.51a1.75 1.75 0 01-.94-.46c-.25-.26-.38-.6-.38-1.05a2.6 2.6 0 01.98-2.02 4.04 4.04 0 012.86-.69 4.66 4.66 0 01.98.2l.32.1-1.43 6.83H333l.62-2.88zm.7-3.21c-.05-.05-.15-.09-.3-.13a2.95 2.95 0 00-.65-.05c-.56 0-1.02.16-1.37.47-.36.31-.54.73-.54 1.25 0 .68.49 1.02 1.46 1.02H333.33l.43-.03.56-2.53zM336.64 307.01a4.32 4.32 0 011.2-2.34 3.04 3.04 0 012.12-.77c.36 0 .65.04.88.1.24.06.42.16.56.28a.9.9 0 01.3.4 1.86 1.86 0 01-.4 1.82c-.33.37-.75.63-1.28.78l-.03.05c.45.02.79.13 1.02.34.24.2.36.48.36.82a2.35 2.35 0 01-.95 1.95c-.29.21-.62.38-1 .49-.37.11-.75.17-1.15.17-.27 0-.53-.04-.77-.1a1.62 1.62 0 01-.62-.32c-.17-.16-.3-.37-.4-.63-.1-.27-.15-.6-.15-1a5.3 5.3 0 01.06-.8l.1-.51c.03-.2.09-.45.15-.73zm.84.88l-.11.65-.03.46c0 .8.38 1.2 1.12 1.2.25 0 .47-.03.69-.1.22-.06.42-.16.59-.29.16-.14.3-.3.39-.5.1-.2.15-.43.15-.7a.7.7 0 00-.3-.6c-.2-.14-.54-.22-1.01-.22h-.12l-.2.02-.43.03c-.18 0-.43.02-.74.05zm1.43-.94a2.77 2.77 0 001.1-.38c.2-.12.37-.26.5-.43.13-.17.2-.36.2-.59 0-.25-.07-.44-.2-.56-.13-.13-.39-.2-.76-.2-.53 0-.96.18-1.29.51-.32.34-.57.82-.73 1.44l-.08.34 1.26-.13zM347.5 304.9h-1.88c-.25 1-.48 1.88-.69 2.64-.21.77-.45 1.41-.7 1.93-.24.52-.51.9-.81 1.18-.3.27-.66.4-1.08.4-.16 0-.3 0-.42-.02a.93.93 0 01-.32-.1l.32-.9c.11.03.22.05.32.05.2 0 .4-.08.58-.23.18-.15.38-.44.57-.88.2-.44.4-1.06.63-1.85.23-.8.5-1.83.81-3.12h3.9l-1.49 7h-1.05l1.3-6.1zM353.39 308.12l-1.08.16-2.25 2.72h-1.36l2.04-2.4.69-.51a1.75 1.75 0 01-.94-.46c-.25-.26-.38-.6-.38-1.05a2.58 2.58 0 01.98-2.02 4.03 4.03 0 012.86-.69 4.66 4.66 0 01.98.2l.32.1-1.43 6.83h-1.05l.62-2.88zm.7-3.21c-.05-.05-.15-.09-.3-.13a2.95 2.95 0 00-.65-.05c-.56 0-1.02.16-1.37.47-.36.31-.54.73-.54 1.25 0 .68.49 1.02 1.46 1.02H353.1l.43-.03.56-2.53zM360.9 310.31c-.33.28-.72.5-1.17.65-.44.14-.88.2-1.33.2-.75 0-1.31-.2-1.7-.64a2.64 2.64 0 01-.56-1.79c0-.76.11-1.45.33-2.06.21-.6.5-1.12.84-1.54.35-.42.75-.74 1.19-.96.44-.23.9-.34 1.37-.34.33 0 .63.05.87.14.25.1.45.22.61.38.16.15.28.33.35.53.08.2.12.4.12.63 0 .67-.33 1.19-.97 1.57a5.7 5.7 0 01-2.81.56h-.36l-.37-.03a5.88 5.88 0 00-.12.93c0 .5.12.93.36 1.26.23.31.6.47 1.09.47a3.06 3.06 0 001.92-.63l.33.67zm-1.2-5.58c-.51 0-.96.17-1.34.53a3.3 3.3 0 00-.86 1.57l1.1-.03c.4-.02.74-.06 1.04-.14.32-.08.58-.21.79-.38a.9.9 0 00.25-1 .59.59 0 00-.15-.27.73.73 0 00-.32-.2c-.13-.05-.3-.08-.5-.08zM366.2 311l.84-3.96a11.25 11.25 0 00.22-1.53.99.99 0 00-.14-.57c-.1-.14-.25-.21-.48-.21-.23 0-.46.06-.68.18a5.3 5.3 0 00-1.55 1.6l-.93 4.49h-1.05l1.48-7h.75l-.09 1.2h.06l.47-.46a3.53 3.53 0 011.26-.77c.26-.1.53-.14.83-.14.42 0 .7.13.84.4.15.25.22.62.22 1.09a5.05 5.05 0 011.1-1.01c.22-.14.45-.25.7-.34.24-.1.48-.14.72-.14.43 0 .76.1.98.31.24.2.35.56.35 1.1 0 .4-.07.92-.2 1.56L371 311h-1.05l.88-4.21a10.05 10.05 0 00.19-1.3.91.91 0 00-.16-.57c-.1-.13-.27-.2-.52-.2-.2 0-.4.07-.63.2a4.89 4.89 0 00-1.57 1.67l-.9 4.41h-1.05zM377.71 310.4a3.77 3.77 0 01-1.61.71 2.67 2.67 0 01-1.67-.15 1.96 1.96 0 01-1.03-1.29c-.06-.26-.1-.5-.1-.74 0-.8.11-1.5.33-2.13.21-.63.5-1.17.85-1.61.36-.44.78-.77 1.25-1 .46-.24.94-.36 1.44-.36a3.2 3.2 0 011.5.32l-.4.87a3.24 3.24 0 00-1.34-.3c-.32 0-.63.12-.94.33-.3.21-.56.5-.8.85a4.62 4.62 0 00-.77 2.59c0 .61.13 1.06.38 1.35.25.29.6.43 1.02.43.28 0 .58-.06.89-.18.3-.13.55-.26.74-.4l.26.7zM382.8 308.12l-1.08.16-2.25 2.72h-1.36l2.04-2.4.69-.51a1.75 1.75 0 01-.94-.46c-.25-.26-.38-.6-.38-1.05a2.58 2.58 0 01.98-2.02 4.03 4.03 0 012.86-.69 4.66 4.66 0 01.98.2l.32.1-1.43 6.83h-1.05l.62-2.88zm.7-3.21c-.05-.05-.15-.09-.31-.13a2.95 2.95 0 00-.64-.05c-.56 0-1.02.16-1.38.47-.35.31-.53.73-.53 1.25 0 .68.49 1.02 1.46 1.02h.4l.44-.03.56-2.53zM393.1 311l.93-4.42.1-.5c.03-.16.04-.31.04-.44 0-.27-.06-.5-.2-.66-.12-.17-.35-.25-.7-.25-.24 0-.47.05-.7.17a3.63 3.63 0 00-1.62 1.62L390 311h-1.05l1.49-7h.73l-.06 1.2h.06a4.88 4.88 0 01.99-.9 3.32 3.32 0 011.58-.47c.47 0 .84.11 1.1.34.28.22.41.61.41 1.17 0 .28-.04.62-.12 1.01l-1 4.65h-1.05zM398.62 308.54l.07 1.34h.07l.53-1.36 2.32-4.52h1.12l-3.3 6.24c-.24.46-.49.9-.73 1.33-.23.44-.48.83-.73 1.17-.25.34-.51.62-.78.82-.27.2-.55.31-.84.31-.16 0-.3 0-.42-.03a1.09 1.09 0 01-.31-.1l.34-.96c.1.04.21.05.33.05.27 0 .54-.14.81-.42.27-.28.58-.75.91-1.41l-1.2-7h1.12l.69 4.54zM403.96 305.65a4 4 0 011.24-1.24c.43-.26.93-.38 1.5-.38.64 0 1.1.18 1.38.54.28.37.42.88.42 1.53 0 .77-.1 1.47-.3 2.1-.2.63-.47 1.16-.8 1.6-.34.44-.73.77-1.17 1.02a2.8 2.8 0 01-2.4.14c-.29-.14-.52-.33-.7-.56a2.5 2.5 0 01-.37-.81c-.08-.31-.11-.64-.11-.98 0-1 .09-1.91.28-2.76.2-.85.45-1.6.78-2.23.34-.64.73-1.16 1.18-1.54.44-.39.93-.63 1.45-.71a139.41 139.41 0 011.96-.22l.66-.1c.19-.05.33-.12.44-.2l-.05.98c-.15.11-.4.21-.75.3-.35.07-.87.13-1.57.19-.32.03-.63.08-.92.17-.3.08-.57.24-.85.47a3.5 3.5 0 00-.75 1c-.24.43-.45 1-.64 1.7h.1zm-.2 2.8c0 .25.02.47.05.69.03.21.09.4.18.56.1.16.22.28.4.38.16.08.38.12.67.12.27 0 .55-.09.82-.26.28-.2.53-.45.74-.79.23-.33.4-.74.55-1.22.14-.47.2-1 .2-1.6 0-.17-.01-.34-.05-.5-.02-.15-.08-.3-.17-.42a.87.87 0 00-.34-.3 1.19 1.19 0 00-.56-.12c-.31 0-.62.1-.92.28-.3.18-.56.43-.8.75a4.1 4.1 0 00-.77 2.44zM414 304.9h-1.88c-.25 1-.48 1.88-.69 2.64-.21.77-.45 1.41-.7 1.93-.24.52-.51.9-.81 1.18-.3.27-.66.4-1.08.4-.16 0-.3 0-.42-.02a.93.93 0 01-.32-.1l.32-.9c.11.03.22.05.32.05.2 0 .4-.08.58-.23.18-.15.38-.44.57-.88.2-.44.4-1.06.63-1.85.23-.8.5-1.83.81-3.12h3.9l-1.49 7h-1.05l1.3-6.1zM418.4 304l-.97 4.66c-.06.25-.09.49-.09.7 0 .26.05.48.16.66.1.17.29.25.56.25.22 0 .44-.05.67-.17a3.75 3.75 0 001.23-1.02c.18-.21.32-.42.43-.63l.94-4.45h1.05l-.88 4.16-.11.59-.11.71a22.82 22.82 0 00-.1 1.36v.18h-.83v-1.33h-.05a4.31 4.31 0 01-1.1 1.02 3.03 3.03 0 01-1.5.48c-.2 0-.4-.03-.57-.07a1.16 1.16 0 01-.45-.24 1.25 1.25 0 01-.3-.46 2.1 2.1 0 01-.12-.74c0-.33.05-.7.14-1.11l.96-4.55h1.05zM425.16 304l-.4 1.9c-.07.33-.1.61-.1.84 0 .27.06.5.18.66.13.16.37.24.72.24a2.69 2.69 0 001.66-.52l.67-3.12h1.07l-1.49 7h-1.06l.62-2.94c-.16.1-.4.2-.69.3-.3.12-.67.18-1.12.18-.25 0-.48-.03-.69-.07-.2-.06-.38-.14-.53-.26a1.29 1.29 0 01-.33-.47c-.09-.2-.13-.44-.13-.73-.03-.34.16-1.34.56-3.01h1.06zM434.37 307.92h-3.02l-.66 3.08h-1.05l1.48-7h1.05l-.61 2.91h3.02l.62-2.91h1.05l-1.49 7h-1.05l.66-3.08zM437.15 308.82c0-.74.1-1.41.28-2.02.2-.62.46-1.14.8-1.58.33-.44.72-.78 1.16-1.02.45-.25.93-.37 1.43-.37.4 0 .72.07 1 .2a1.91 1.91 0 011.05 1.27c.07.28.1.58.1.88 0 .7-.09 1.36-.28 1.96-.17.61-.42 1.14-.75 1.59-.32.44-.7.8-1.12 1.06-.43.25-.9.38-1.4.38-.42 0-.78-.07-1.06-.2a2.15 2.15 0 01-.7-.54c-.18-.23-.31-.48-.4-.76a3.33 3.33 0 01-.1-.85zm1.12-.26c0 .56.1.98.3 1.28.22.29.54.43.99.43.3 0 .6-.1.87-.32.28-.22.52-.52.72-.9a5.77 5.77 0 00.7-2.79c0-.47-.08-.84-.26-1.11-.17-.28-.5-.42-.98-.42-.3 0-.6.1-.88.32-.28.2-.54.49-.76.84a4.98 4.98 0 00-.7 2.67zM446.4 304l-.97 4.66c-.06.25-.09.49-.09.7 0 .26.05.48.16.66.1.17.29.25.56.25.22 0 .44-.05.67-.17a3.75 3.75 0 001.23-1.02c.18-.21.32-.42.43-.63l.94-4.45h1.05l-.88 4.16-.11.59-.11.71a22.82 22.82 0 00-.1 1.36v.18h-.83v-1.33h-.05a4.31 4.31 0 01-1.1 1.02 3.03 3.03 0 01-1.5.48c-.2 0-.4-.03-.57-.07a1.16 1.16 0 01-.45-.24 1.25 1.25 0 01-.3-.46 2.1 2.1 0 01-.12-.74c0-.33.05-.7.14-1.11l.96-4.55h1.05zm.83-2.83c0 .44.1.74.27.91.19.16.42.24.7.24.29 0 .56-.09.81-.27.26-.17.47-.46.63-.86l.76.26c-.2.54-.5.96-.96 1.25a2.57 2.57 0 01-2.11.35c-.2-.06-.39-.15-.55-.27a1.3 1.3 0 01-.37-.46c-.1-.2-.14-.43-.14-.69v-.12l.96-.34zM455 308.82c0-.74.1-1.41.29-2.02.2-.62.46-1.14.8-1.58.33-.44.72-.78 1.16-1.02.44-.25.92-.37 1.43-.37.39 0 .72.07.99.2a1.94 1.94 0 011.05 1.27c.07.28.11.58.11.88 0 .7-.1 1.36-.28 1.96a5.1 5.1 0 01-.75 1.59c-.32.44-.7.8-1.13 1.06-.43.25-.9.38-1.4.38-.41 0-.77-.07-1.06-.2a2.14 2.14 0 01-.7-.54c-.18-.23-.3-.48-.4-.76a3.29 3.29 0 01-.1-.85zm1.13-.26c0 .56.1.98.3 1.28.21.29.54.43.99.43.3 0 .6-.1.86-.32.28-.22.53-.52.73-.9a5.82 5.82 0 00.7-2.79c0-.47-.09-.84-.26-1.11-.17-.28-.5-.42-.99-.42-.3 0-.6.1-.88.32-.28.2-.53.49-.75.84a4.9 4.9 0 00-.7 2.67zM464.9 311.06l-.36.08c-.1.02-.22.03-.35.03-.76 0-1.34-.2-1.72-.62a2.32 2.32 0 01-.58-1.62c0-.8.1-1.5.31-2.13.2-.63.49-1.15.84-1.58a3.42 3.42 0 013.36-1.27l.58-2.75h1l-.58 2.76a4.94 4.94 0 01.8-.07c.74 0 1.29.2 1.66.61.38.4.57.93.57 1.59 0 .87-.11 1.63-.35 2.28a4.85 4.85 0 01-.88 1.58 3.46 3.46 0 01-2.97 1.19c-.14 0-.26-.03-.35-.07l-.57 2.73h-1l.58-2.74zm2.9-6.28l-.3.03-.31.06-1.14 5.35a2.74 2.74 0 00.6.05c.29 0 .6-.08.92-.25.31-.17.6-.42.85-.76.26-.33.47-.75.64-1.26.17-.5.25-1.11.25-1.8 0-.94-.5-1.42-1.5-1.42zm-3.4 5.5c.1 0 .21-.02.32-.04l.37-.05 1.13-5.34a3.35 3.35 0 00-.63-.07c-.28 0-.57.1-.88.27-.3.17-.57.42-.83.76a4.49 4.49 0 00-.87 2.9c0 .46.12.84.36 1.13.23.29.57.43 1.03.43zM476.25 310.31c-.32.28-.7.5-1.16.65-.44.14-.88.2-1.33.2-.74 0-1.3-.2-1.7-.64a2.64 2.64 0 01-.55-1.79c0-.76.1-1.45.32-2.06.22-.6.5-1.12.84-1.54.35-.42.75-.74 1.2-.96.44-.23.9-.34 1.36-.34.34 0 .63.05.87.14.25.1.46.22.62.38.15.15.27.33.35.53a1.77 1.77 0 01-.86 2.2 5.7 5.7 0 01-2.81.56h-.35l-.38-.03a5.19 5.19 0 00-.11.93c0 .5.12.93.35 1.26.23.31.6.47 1.1.47a3.06 3.06 0 001.9-.63l.34.67zm-1.19-5.58c-.5 0-.96.17-1.34.53a3.3 3.3 0 00-.85 1.57l1.1-.03c.38-.02.73-.06 1.04-.14.32-.08.58-.21.78-.38a.91.91 0 00.25-1 .6.6 0 00-.15-.27.73.73 0 00-.32-.2 1.3 1.3 0 00-.5-.08zM479.3 304h.73l-.07 1.2h.06a5.3 5.3 0 01.98-.93 2.57 2.57 0 011.4-.44c.22 0 .43.04.63.11s.37.19.52.35c.15.16.26.38.35.65.09.27.14.6.14 1a6.8 6.8 0 01-.34 2.2 5.37 5.37 0 01-.88 1.64c-.37.45-.78.8-1.23 1.04-.45.23-.9.35-1.35.35-.32 0-.61-.04-.87-.1-.24-.06-.4-.12-.49-.18l-.61 2.91h-1.05l2.08-9.8zm2.7.73c-.25 0-.49.06-.72.2-.22.13-.43.29-.63.48a4.92 4.92 0 00-.87 1.22l-.68 3.32c.15.12.32.2.48.25a2.02 2.02 0 001.59-.22c.33-.2.63-.5.9-.87a6 6 0 00.85-3.1c0-.37-.08-.68-.24-.92a.74.74 0 00-.67-.36zM488.67 311l.84-3.96a11.25 11.25 0 00.22-1.53.98.98 0 00-.14-.57c-.1-.14-.25-.21-.47-.21-.24 0-.47.06-.69.18a5.28 5.28 0 00-1.55 1.6l-.93 4.49h-1.05l1.49-7h.74l-.09 1.2h.06l.48-.46c.17-.17.37-.31.57-.45.22-.13.44-.23.69-.32.25-.1.52-.14.82-.14.42 0 .7.13.84.4.15.25.23.62.23 1.09a5.14 5.14 0 011.09-1.01c.22-.14.46-.25.7-.34.24-.1.48-.14.73-.14.43 0 .75.1.98.31.23.2.35.56.35 1.1 0 .4-.07.92-.21 1.56l-.89 4.2h-1.05l.89-4.21a10.1 10.1 0 00.18-1.3.91.91 0 00-.16-.57c-.1-.13-.27-.2-.51-.2-.2 0-.4.07-.63.2a4.88 4.88 0 00-1.57 1.67l-.91 4.41h-1.05zM495.78 308.82c0-.74.09-1.41.28-2.02.2-.62.46-1.14.8-1.58.33-.44.72-.78 1.16-1.02.44-.25.92-.37 1.42-.37.4 0 .73.07 1 .2a1.91 1.91 0 011.05 1.27c.07.28.11.58.11.88 0 .7-.1 1.36-.28 1.96-.18.61-.43 1.14-.76 1.59-.31.44-.69.8-1.12 1.06-.43.25-.9.38-1.4.38-.42 0-.77-.07-1.06-.2a2.15 2.15 0 01-.7-.54c-.18-.23-.3-.48-.4-.76a3.33 3.33 0 01-.1-.85zm1.12-.26c0 .56.1.98.3 1.28.21.29.54.43.98.43.31 0 .6-.1.87-.32.28-.22.52-.52.73-.9a5.77 5.77 0 00.7-2.79c0-.47-.09-.84-.27-1.11-.16-.28-.49-.42-.98-.42-.3 0-.6.1-.88.32-.28.2-.53.49-.75.84a4.98 4.98 0 00-.7 2.67zM505.03 304l-.98 4.66c-.06.25-.08.49-.08.7 0 .26.05.48.15.66.1.17.29.25.56.25.22 0 .45-.05.67-.17a3.75 3.75 0 001.23-1.02c.18-.21.33-.42.44-.63l.94-4.45H509l-.88 4.16-.12.59-.1.71a22.82 22.82 0 00-.1 1.36v.18h-.83v-1.33h-.06a4.31 4.31 0 01-1.1 1.02 3.03 3.03 0 01-1.49.48c-.2 0-.4-.03-.57-.07a1.16 1.16 0 01-.45-.24 1.25 1.25 0 01-.3-.46 2.1 2.1 0 01-.12-.74c0-.33.05-.7.14-1.11l.95-4.55h1.05zm.83-2.83c0 .44.09.74.26.91.19.16.42.24.7.24.3 0 .56-.09.81-.27.27-.17.48-.46.63-.86l.76.26c-.19.54-.5.96-.95 1.25a2.57 2.57 0 01-2.12.35c-.2-.06-.38-.15-.54-.27a1.3 1.3 0 01-.38-.46c-.1-.2-.14-.43-.14-.69v-.12l.97-.34zM509.69 310.36c0-.26.07-.45.22-.6a.8.8 0 01.6-.22.76.76 0 01.81.81.8.8 0 01-.23.6.8.8 0 01-.59.22.8.8 0 01-.59-.23.8.8 0 01-.22-.58z" fill="#AEB4EA"/><path d="M318.6 128.98h-3.5V139h-1.32v-10.02h-3.5v-1.18h8.31v1.18zM318.21 131.6c.4-.25.88-.44 1.41-.55a8.05 8.05 0 011.7-.18c.55 0 1 .08 1.32.23.35.15.6.34.77.59.19.23.3.5.35.78.07.29.1.58.1.87 0 .64-.01 1.26-.05 1.87-.03.6-.05 1.18-.05 1.73 0 .4.02.76.05 1.12.04.35.1.67.18.97h-.94l-.34-1.12h-.08a2.69 2.69 0 01-.88.83 3.57 3.57 0 01-1.62.39c-.34 0-.66-.06-.96-.16-.29-.1-.54-.26-.75-.45-.21-.2-.38-.44-.51-.72a2.4 2.4 0 01-.18-.94c0-.47.1-.86.3-1.17.18-.32.45-.57.8-.75.34-.2.76-.33 1.24-.4a9.5 9.5 0 011.62-.13h.43c.15 0 .3 0 .44.03.04-.32.05-.6.05-.86 0-.6-.11-1-.35-1.24-.23-.23-.66-.35-1.28-.35a5.07 5.07 0 00-1.86.34c-.19.06-.36.14-.5.22l-.4-.96zm2.28 6.4c.3 0 .56-.03.8-.1.23-.09.43-.2.6-.3.17-.14.31-.28.42-.42.12-.15.2-.3.25-.44v-1.32l-.46-.02a6.08 6.08 0 00-1.42.05c-.31.03-.59.1-.83.2s-.43.24-.58.42c-.14.17-.2.4-.2.66 0 .37.13.68.4.93.26.23.6.35 1.01.35zM326.28 131h.88l.24.96h.06c.25-.37.56-.66.95-.85.4-.2.84-.3 1.34-.3 1.07 0 1.86.31 2.38.94.53.63.79 1.66.79 3.09 0 .67-.1 1.28-.27 1.82s-.42 1-.74 1.36c-.32.38-.7.66-1.17.87a4.45 4.45 0 01-2.45.22 3.48 3.48 0 01-.73-.24v3.33h-1.28V131zm3.23.93c-.54 0-.97.14-1.3.43-.3.28-.52.7-.65 1.28v3.97c.2.15.4.26.65.35.25.07.58.11.98.11a2.1 2.1 0 001.75-.81c.43-.56.65-1.37.65-2.44 0-.43-.04-.83-.11-1.18-.08-.36-.2-.67-.37-.91a1.63 1.63 0 00-.64-.6 2 2 0 00-.96-.2zM339.93 134.26l.05-.99h-.05l-.66 1.03-3.6 4.7h-.74v-8h1.28v4.88l-.04.94h.06l.63-.99 3.6-4.83h.75v8h-1.28v-4.74zM347.27 139.06c-.18.07-.37.1-.58.12l-.52.01c-.98 0-1.72-.34-2.25-1.02-.52-.68-.78-1.74-.78-3.17 0-1.37.29-2.4.87-3.09.57-.7 1.4-1.04 2.5-1.04.29 0 .55.02.76.07v-3.14h1.22v3.15a5.7 5.7 0 01.94-.08c1.06 0 1.85.31 2.38.93.54.6.8 1.62.8 3.04 0 .67-.07 1.28-.22 1.82-.14.54-.35 1-.63 1.36a2.85 2.85 0 01-2.4 1.17 4.4 4.4 0 01-.88-.11v3.12h-1.21v-3.14zm1.92-7.13a3.46 3.46 0 00-.72.08v6.08l.35.05h.45c.68 0 1.2-.29 1.54-.85.35-.57.52-1.38.52-2.45a4 4 0 00-.48-2.13c-.3-.52-.86-.78-1.66-.78zm-2.7 6.2a4.48 4.48 0 00.8-.07v-6.07a5.32 5.32 0 00-.77-.06c-.66 0-1.18.25-1.56.75-.36.5-.54 1.26-.54 2.32 0 .45.04.86.11 1.25.09.38.22.72.39 1s.38.5.64.66c.26.15.57.23.93.23zM365.48 141.03h-.87l-.24-2.03h-6.01l-.24 2.03h-.87v-3.15h.95c.08-.12.2-.32.33-.62.14-.31.27-.74.4-1.28.14-.56.26-1.24.35-2.05.11-.82.17-1.8.2-2.93h4.83v6.88h1.17v3.15zm-2.45-3.15v-5.76h-2.4a29.64 29.64 0 01-.34 3.06c-.08.52-.2 1.01-.33 1.48-.14.47-.3.88-.48 1.22h3.55zM371.36 132.12h-2.32l-.1 1.46c-.02.5-.07 1.02-.14 1.55-.06.51-.15 1-.25 1.49-.1.47-.25.88-.42 1.24-.16.37-.36.66-.6.88-.24.22-.52.32-.85.32-.2 0-.38 0-.53-.03a1.46 1.46 0 01-.4-.11l.19-1.07c.13.04.27.06.42.06.2 0 .4-.09.57-.27.17-.18.32-.52.45-1.02.13-.52.24-1.22.32-2.12.09-.9.14-2.06.18-3.5h4.76v8h-1.28v-6.88zM379.1 135.69l-1.24.19-2.11 3.12h-1.56l1.93-2.74.63-.59a2.64 2.64 0 01-1.42-.67 1.93 1.93 0 01-.57-1.47 2.31 2.31 0 01.96-2.08c.3-.23.67-.39 1.1-.48a7.2 7.2 0 012.54-.08l1.01.17V139h-1.28v-3.31zm0-3.6c-.15-.06-.3-.1-.47-.11a2.47 2.47 0 00-.45-.05c-.68 0-1.2.12-1.57.37-.35.24-.53.63-.53 1.16 0 .48.19.86.56 1.12.39.26.89.39 1.5.39h.46l.5-.03v-2.85zM391.68 132.12h-2.5V139h-1.28v-6.88h-2.5V131h6.28v1.12zM398.54 138.36a3.6 3.6 0 01-1.22.6c-.47.16-.99.23-1.53.23a4 4 0 01-1.59-.29c-.44-.2-.81-.48-1.1-.84-.29-.38-.5-.82-.64-1.33a6.6 6.6 0 01-.2-1.73c0-1.37.3-2.4.9-3.12.61-.72 1.48-1.07 2.61-1.07.37 0 .73.04 1.1.13.35.07.68.22.97.44.29.23.52.55.7.96.18.4.27.95.27 1.62 0 .35-.03.74-.1 1.17h-5.13c0 .47.05.88.15 1.25.1.36.24.67.44.92s.47.44.79.58c.33.13.73.2 1.2.2a3.26 3.26 0 001.9-.65l.48.93zm-2.75-6.43c-.63 0-1.14.16-1.52.5-.38.32-.6.89-.67 1.69h3.96c0-.81-.15-1.38-.46-1.7a1.7 1.7 0 00-1.31-.5zM402.56 134.9l-2.69-3.9h1.57l1.52 2.2.45.92.46-.91 1.56-2.21h1.44l-2.7 3.84 2.86 4.16h-1.52l-1.7-2.43-.48-.96-.5.96-1.72 2.43h-1.43l2.88-4.1zM408.25 138.31c0-.25.09-.46.26-.62a.92.92 0 01.66-.24 1 1 0 01.8.35c.2.23.31.58.31 1.02a2.48 2.48 0 01-1.14 2.26c-.2.14-.4.24-.6.3l-.4-.62c.38-.15.67-.38.85-.7.2-.31.29-.63.29-.95a.86.86 0 01-.27.05.77.77 0 01-.55-.2c-.14-.16-.2-.37-.2-.65zM416.86 135.4h-.74v3.6h-1.28v-8h1.28v3.62l.69-.23 2.56-3.39h1.4l-2.49 3.22-.67.52.83.64 2.67 3.62h-1.58l-2.67-3.6zM427.57 132.12h-2.5V139h-1.28v-6.88h-2.5V131h6.28v1.12zM428.14 135c0-1.35.3-2.39.9-3.1a3.21 3.21 0 012.6-1.1c.6 0 1.12.1 1.56.31.45.2.81.48 1.1.85.3.36.5.8.64 1.33.14.51.21 1.08.21 1.71 0 1.35-.3 2.4-.91 3.12-.6.72-1.46 1.07-2.6 1.07-.59 0-1.11-.1-1.56-.29-.44-.2-.8-.48-1.09-.84-.29-.38-.5-.82-.64-1.33-.14-.52-.2-1.1-.2-1.73zm1.33 0c0 .4.04.8.11 1.17.09.37.22.7.39.97.17.28.4.5.67.68.28.17.61.25 1 .25 1.46.01 2.18-1.01 2.18-3.07 0-.42-.04-.81-.13-1.18-.07-.38-.2-.7-.36-.98a1.88 1.88 0 00-1.68-.91c-1.45-.01-2.18 1.01-2.18 3.07zM448.1 141.03h-.86L447 139h-6.02l-.24 2.03h-.86v-3.15h.94c.09-.12.2-.32.34-.62.13-.31.27-.74.4-1.28.13-.56.25-1.24.35-2.05.1-.82.17-1.8.2-2.93h4.82v6.88h1.17v3.15zm-2.45-3.15v-5.76h-2.4a29.64 29.64 0 01-.33 3.06c-.09.52-.2 1.01-.34 1.48s-.3.88-.48 1.22h3.55zM455.52 138.36a3.6 3.6 0 01-1.21.6c-.48.16-1 .23-1.54.23a4 4 0 01-1.58-.29c-.45-.2-.82-.48-1.1-.84-.3-.38-.5-.82-.64-1.33a6.6 6.6 0 01-.21-1.73c0-1.37.3-2.4.9-3.12.62-.72 1.49-1.07 2.62-1.07.36 0 .72.04 1.09.13.36.07.68.22.97.44.29.23.52.55.7.96.19.4.28.95.28 1.62 0 .35-.04.74-.1 1.17h-5.13c0 .47.04.88.14 1.25a2.07 2.07 0 001.23 1.5c.33.13.73.2 1.2.2a3.25 3.25 0 001.9-.65l.48.93zm-2.75-6.43c-.63 0-1.13.16-1.52.5-.37.32-.6.89-.67 1.69h3.97c0-.81-.16-1.38-.47-1.7a1.7 1.7 0 00-1.3-.5zM462.8 134.26l.05-.99h-.05l-.65 1.03-3.6 4.7h-.74v-8h1.28v4.88l-.05.94h.07l.62-.99 3.6-4.83h.75v8h-1.28v-4.74zm-3.15-6.5c.1.5.29.84.54 1.03.27.2.57.29.92.29.34 0 .64-.1.9-.3.28-.2.46-.54.55-1l.96.3c-.1.63-.37 1.1-.83 1.43-.45.33-.99.5-1.62.5-.28 0-.57-.04-.86-.11a2.55 2.55 0 01-.75-.34 2.1 2.1 0 01-.9-1.4l1.09-.4zM472 138.47c-.32.24-.7.41-1.14.53a4.87 4.87 0 01-2.94-.1c-.43-.2-.78-.48-1.06-.84a3.89 3.89 0 01-.59-1.33 7.92 7.92 0 01-.17-1.73c0-1.35.3-2.39.9-3.1a3.15 3.15 0 012.57-1.1c.51 0 .94.05 1.3.14.36.07.68.18.97.33l-.37 1.1a3.24 3.24 0 00-.81-.31c-.3-.09-.62-.13-.96-.13-1.52 0-2.28 1.02-2.28 3.07 0 .4.04.8.12 1.17.08.36.21.69.4.97.19.28.43.5.73.68.31.17.69.25 1.14.25a2.89 2.89 0 001.78-.58l.41.98zM478.6 132.12h-2.5V139h-1.28v-6.88h-2.5V131h6.28v1.12zM479.87 131.02l1.17-.08c.42-.04.93-.05 1.54-.05 1.05 0 1.81.16 2.27.5.46.31.69.8.69 1.47 0 .37-.12.74-.34 1.1-.21.35-.57.61-1.07.78v.07c.63.12 1.07.33 1.33.65.25.32.38.75.38 1.28 0 .84-.3 1.44-.9 1.81-.6.38-1.49.56-2.68.56a36.8 36.8 0 01-2.38-.13v-7.96zm1.28 6.9a12.84 12.84 0 001.3.07c.71 0 1.24-.1 1.58-.3.36-.2.53-.55.53-1.04 0-.39-.15-.7-.45-.93-.29-.25-.8-.37-1.55-.37h-1.4v2.58zm1.57-3.54a1.67 1.67 0 001.4-.76c.09-.15.14-.3.14-.48 0-.42-.13-.72-.39-.88-.25-.17-.7-.25-1.34-.25l-.82.01-.56.04v2.32h1.57zM492.85 134.26l.05-.99h-.05l-.66 1.03-3.6 4.7h-.73v-8h1.28v4.88l-.05.94h.06l.63-.99 3.6-4.83h.75v8h-1.28v-4.74zM501.68 132.12h-2.5V139h-1.28v-6.88h-2.5V131h6.28v1.12zM508.54 138.36a3.6 3.6 0 01-1.22.6c-.47.16-.99.23-1.53.23a4 4 0 01-1.59-.29c-.44-.2-.81-.48-1.1-.84-.29-.38-.5-.82-.64-1.33a6.6 6.6 0 01-.2-1.73c0-1.37.3-2.4.9-3.12.61-.72 1.48-1.07 2.61-1.07.37 0 .73.04 1.1.13.35.07.68.22.97.44.29.23.52.55.7.96.18.4.27.95.27 1.62 0 .35-.03.74-.1 1.17h-5.13c0 .47.05.88.15 1.25.1.36.24.67.44.92s.47.44.79.58c.33.13.73.2 1.2.2a3.26 3.26 0 001.9-.65l.48.93zm-2.75-6.43c-.63 0-1.14.16-1.52.5-.38.32-.6.89-.67 1.69h3.96c0-.81-.15-1.38-.46-1.7a1.7 1.7 0 00-1.31-.5zM514.77 132.12h-2.32l-.1 1.46c-.03.5-.08 1.02-.14 1.55-.06.51-.15 1-.26 1.49-.1.47-.24.88-.41 1.24-.16.37-.36.66-.61.88-.23.22-.52.32-.85.32-.2 0-.38 0-.53-.03a1.47 1.47 0 01-.4-.11l.2-1.07c.12.04.26.06.41.06.22 0 .4-.09.58-.27.17-.18.32-.52.45-1.02.12-.52.23-1.22.32-2.12.08-.9.14-2.06.17-3.5h4.77v8h-1.28v-6.88zM519.8 137.88c.39.06.77.1 1.13.1.67 0 1.17-.13 1.49-.39.32-.27.48-.64.48-1.12 0-.43-.16-.78-.47-1.05-.3-.28-.8-.42-1.45-.42-.18 0-.38 0-.6.02-.2 0-.4.04-.59.1v2.76zm0-3.82a7.57 7.57 0 011.4-.11c.56 0 1.03.06 1.4.19.4.11.7.28.94.5.24.2.42.46.53.76.1.29.15.6.15.93 0 .97-.29 1.67-.88 2.11-.57.44-1.47.66-2.7.66-.68 0-1.4-.04-2.13-.1v-8h1.28v3.06zM530.83 135.46h-3.62V139h-1.28v-8h1.29v3.34h3.61V131h1.28v8h-1.28v-3.54zM534.13 135c0-1.35.3-2.39.9-3.1a3.21 3.21 0 012.6-1.1c.6 0 1.12.1 1.55.31.45.2.82.48 1.1.85.3.36.5.8.65 1.33.14.51.2 1.08.2 1.71 0 1.35-.3 2.4-.9 3.12-.6.72-1.47 1.07-2.6 1.07-.6 0-1.12-.1-1.57-.29-.43-.2-.8-.48-1.08-.84-.3-.38-.5-.82-.64-1.33-.14-.52-.21-1.1-.21-1.73zm1.33 0c0 .4.03.8.1 1.17.1.37.22.7.4.97.16.28.39.5.66.68.28.17.62.25 1.01.25 1.45.01 2.18-1.01 2.18-3.07 0-.42-.04-.81-.13-1.18-.07-.38-.2-.7-.37-.98a1.9 1.9 0 00-1.68-.91c-1.45-.01-2.17 1.01-2.17 3.07zM315.54 157.12h-2.32l-.1 1.46c-.03.5-.08 1.02-.14 1.55-.07.51-.15 1-.26 1.49-.1.47-.25.88-.42 1.24-.16.37-.36.66-.6.88-.24.22-.52.32-.85.32-.2 0-.38 0-.53-.03a1.46 1.46 0 01-.4-.11l.2-1.07c.12.04.26.06.4.06.22 0 .41-.09.58-.27.17-.18.32-.52.45-1.02.13-.52.24-1.22.32-2.12.09-.9.15-2.06.18-3.5h4.77v8h-1.28v-6.88zM325.49 164.2a3.9 3.9 0 01-1.5-.26c-.4-.19-.73-.44-1-.76a3.61 3.61 0 01-.6-1.18c-.12-.47-.2-.98-.23-1.54h-1.6V164h-1.28v-8h1.28v3.34h1.62c.08-1.14.39-2.01.92-2.62.55-.6 1.35-.91 2.42-.91.59 0 1.08.1 1.49.3.41.2.75.48 1 .85.27.36.46.8.58 1.33.12.51.18 1.08.18 1.71 0 1.35-.27 2.4-.82 3.12-.53.72-1.35 1.07-2.46 1.07zm-2.07-4.2a7 7 0 00.1 1.18c.06.38.18.7.34 1 .15.27.37.5.63.65.28.16.62.24 1.03.24.68 0 1.17-.24 1.47-.73.3-.5.45-1.28.45-2.34a7 7 0 00-.1-1.18c-.05-.38-.15-.7-.3-.98a1.74 1.74 0 00-.6-.67 1.7 1.7 0 00-.94-.24c-.73 0-1.27.25-1.6.75-.32.5-.48 1.26-.48 2.32zM331.51 157.42c.36-.5.75-.86 1.17-1.07.43-.21.96-.32 1.6-.32.98 0 1.74.32 2.26.96.53.64.8 1.59.8 2.83 0 1.44-.31 2.53-.93 3.27-.6.73-1.46 1.1-2.56 1.1-1.17 0-2.05-.4-2.64-1.21-.59-.81-.88-2.09-.88-3.83 0-.91.04-1.7.13-2.35.1-.65.23-1.2.4-1.65a2.93 2.93 0 011.49-1.7 3.7 3.7 0 011.04-.33c.37-.06.77-.12 1.2-.16.55-.05.98-.11 1.3-.18.31-.07.57-.2.76-.38l.15 1.15c-.11.1-.23.18-.36.24-.13.07-.28.12-.46.16a13.36 13.36 0 01-1.52.2c-.46.03-.86.09-1.22.17a1.9 1.9 0 00-.9.46c-.24.23-.44.55-.58.98-.14.42-.24.97-.3 1.66h.06zm.15 2.6c0 .4.04.8.13 1.16.08.38.21.7.38 1a1.92 1.92 0 001.66.9c.74 0 1.28-.27 1.64-.8a4.2 4.2 0 00.54-2.34c0-.4-.04-.78-.11-1.12-.08-.34-.2-.64-.35-.88a1.57 1.57 0 00-.61-.58c-.25-.14-.54-.2-.88-.2-.83-.02-1.44.23-1.82.73a3.4 3.4 0 00-.58 2.13zM344.35 159.26l.05-.99h-.05l-.66 1.03-3.6 4.7h-.73v-8h1.28v4.88l-.05.94h.06l.63-.99 3.6-4.83h.75v8h-1.28v-4.74zM353.18 157.12h-2.5V164h-1.28v-6.88h-2.5V156h6.28v1.12zM357.77 160c0-1.35.3-2.39.9-3.1a3.21 3.21 0 012.6-1.1c.6 0 1.12.1 1.55.31.45.2.82.48 1.1.85.3.36.51.8.65 1.33.14.51.2 1.08.2 1.71 0 1.35-.3 2.4-.9 3.12-.6.72-1.47 1.07-2.6 1.07-.6 0-1.12-.1-1.57-.29-.43-.2-.8-.48-1.08-.84-.3-.38-.5-.82-.64-1.33-.14-.52-.21-1.1-.21-1.73zm1.33 0c0 .4.03.8.1 1.17.1.37.22.7.4.97.16.28.39.5.66.68.28.17.62.25 1.01.25 1.45.01 2.18-1.01 2.18-3.07 0-.42-.04-.81-.13-1.18-.07-.38-.2-.7-.37-.98a1.88 1.88 0 00-1.68-.91c-1.45-.01-2.17 1.01-2.17 3.07zM367.53 157.42c.35-.5.74-.86 1.17-1.07.43-.21.96-.32 1.6-.32.98 0 1.73.32 2.25.96.54.64.8 1.59.8 2.83 0 1.44-.3 2.53-.92 3.27-.61.73-1.47 1.1-2.56 1.1-1.18 0-2.06-.4-2.64-1.21-.59-.81-.88-2.09-.88-3.83 0-.91.04-1.7.12-2.35.1-.65.23-1.2.4-1.65.19-.45.4-.8.64-1.07.26-.27.54-.48.85-.62.32-.16.67-.28 1.04-.34.38-.06.78-.12 1.2-.16.56-.05.99-.11 1.3-.18.32-.07.57-.2.77-.38l.14 1.15c-.1.1-.22.18-.35.24-.13.07-.28.12-.47.16a13.22 13.22 0 01-1.52.2c-.45.03-.86.09-1.21.17a1.9 1.9 0 00-.9.46c-.24.23-.44.55-.59.98-.14.42-.23.97-.29 1.66h.05zm.14 2.6c0 .4.05.8.13 1.16.09.38.22.7.39 1a1.92 1.92 0 001.66.9c.74 0 1.28-.27 1.63-.8.37-.53.55-1.3.55-2.34 0-.4-.04-.78-.12-1.12a2.6 2.6 0 00-.35-.88 1.57 1.57 0 00-.6-.58c-.25-.14-.54-.2-.89-.2-.83-.02-1.44.23-1.82.73a3.4 3.4 0 00-.58 2.13zM385.84 166.08h-.87l-.24-2.08h-9.36v-8h1.28v6.88h2.74V156h1.28v6.88h2.73V156h1.29v6.88h1.15v3.2zM393.26 163.36a3.6 3.6 0 01-1.22.6c-.48.16-.99.23-1.53.23a4 4 0 01-1.59-.29c-.44-.2-.81-.48-1.1-.84-.29-.38-.5-.82-.64-1.33a6.64 6.64 0 01-.2-1.73c0-1.37.3-2.4.9-3.12.61-.72 1.48-1.07 2.61-1.07.36 0 .73.04 1.09.13.36.07.69.22.98.44.28.23.52.55.7.96a4 4 0 01.27 1.62c0 .35-.03.74-.1 1.17h-5.13c0 .47.05.88.14 1.25a2.07 2.07 0 001.23 1.5c.34.13.74.2 1.2.2a3.25 3.25 0 001.9-.65l.49.93zm-2.75-6.43c-.63 0-1.14.16-1.52.5-.38.32-.6.89-.68 1.69h3.97c0-.81-.15-1.38-.46-1.7-.31-.33-.75-.5-1.31-.5zM400.44 160.46h-3.62V164h-1.28v-8h1.28v3.34h3.62V156h1.28v8h-1.28v-3.54zM409.18 159.26l.05-.99h-.05l-.66 1.03-3.6 4.7h-.74v-8h1.28v4.88l-.04.94h.06l.63-.99 3.6-4.83h.75v8h-1.28v-4.74zM418.76 163.36a3.6 3.6 0 01-1.22.6c-.48.16-.99.23-1.53.23a4 4 0 01-1.59-.29c-.44-.2-.81-.48-1.1-.84-.29-.38-.5-.82-.64-1.33a6.64 6.64 0 01-.2-1.73c0-1.37.3-2.4.9-3.12.61-.72 1.48-1.07 2.61-1.07.36 0 .73.04 1.09.13.36.07.69.22.98.44.28.23.52.55.7.96a4 4 0 01.27 1.62c0 .35-.03.74-.1 1.17h-5.13c0 .47.05.88.14 1.25a2.07 2.07 0 001.23 1.5c.34.13.74.2 1.2.2a3.25 3.25 0 001.9-.65l.49.93zm-2.75-6.43c-.63 0-1.14.16-1.52.5-.38.32-.6.89-.68 1.69h3.97c0-.81-.15-1.38-.46-1.7-.31-.33-.75-.5-1.31-.5zM420.6 163.26a.9.9 0 01.24-.67.9.9 0 01.67-.25c.29 0 .52.08.69.25.17.16.25.39.25.67a.9.9 0 01-.25.68.93.93 0 01-.7.25.9.9 0 01-.66-.25.94.94 0 01-.24-.68z" fill="#fff"/><path d="M30 127a5 5 0 015-5h250a5 5 0 015 5v185a5 5 0 01-5 5H35a5 5 0 01-5-5V127z" fill="#4553D3"/><path d="M81.36 147.8h6.08v1.18h-4.75v3.36a12.6 12.6 0 011.44-.14c.54 0 1.06.05 1.55.16.5.1.92.27 1.3.51.37.25.66.58.88 1.01.22.42.33.94.33 1.58 0 .64-.11 1.2-.33 1.67a3.27 3.27 0 01-2.21 1.79 5.7 5.7 0 01-2.18.2 8.85 8.85 0 01-1.45-.12 4.1 4.1 0 01-.66-.11V147.8zm2.9 10.18c.34 0 .66-.05.97-.15.31-.1.58-.23.8-.41.24-.2.42-.44.55-.72.13-.3.2-.63.2-1.01 0-.5-.08-.89-.24-1.19a1.75 1.75 0 00-.6-.72 2.2 2.2 0 00-.9-.33 5.47 5.47 0 00-1.38-.08l-.38.03-.35.05c-.1 0-.19.02-.24.03v4.4c.07.02.17.04.29.05l.4.03.44.02h.44zM95.87 158.36c-.32.26-.73.46-1.22.6-.48.16-.99.23-1.53.23a4 4 0 01-1.59-.29c-.45-.2-.81-.48-1.1-.84-.29-.38-.5-.82-.64-1.33a6.62 6.62 0 01-.2-1.73c0-1.37.3-2.4.9-3.12.61-.72 1.48-1.07 2.61-1.07.36 0 .73.04 1.09.13.36.07.69.22.97.44.3.23.53.55.7.96a4 4 0 01.28 1.62c0 .35-.03.74-.1 1.17h-5.13c0 .47.05.88.14 1.25a2.06 2.06 0 001.23 1.5c.34.13.74.2 1.2.2a3.25 3.25 0 001.9-.65l.49.93zm-2.75-6.43c-.63 0-1.14.16-1.52.5-.38.32-.6.89-.68 1.69h3.97c0-.81-.15-1.38-.46-1.7a1.7 1.7 0 00-1.31-.5zM98.92 155.43v-1.04h1.12a1.93 1.93 0 001.07-.35c.15-.12.27-.25.36-.4.1-.16.14-.33.14-.5 0-.41-.14-.7-.43-.88a2.6 2.6 0 00-1.3-.25c-.41 0-.8.06-1.15.19-.34.13-.6.25-.8.37l-.37-1a5.15 5.15 0 012.67-.69c1.77 0 2.66.66 2.66 1.98 0 .37-.12.74-.37 1.1-.23.35-.57.6-1.02.75v.07c.63.11 1.06.34 1.31.67.26.33.38.77.38 1.31 0 .34-.06.66-.2.94a2.1 2.1 0 01-.63.76c-.28.2-.63.38-1.05.5-.42.13-.9.18-1.46.18-.54 0-1-.04-1.36-.14-.35-.1-.67-.21-.96-.35l.37-1.06c.24.14.54.25.88.32.35.08.73.11 1.13.11.66 0 1.15-.1 1.5-.33.33-.23.5-.57.5-1.03 0-.38-.16-.68-.48-.9-.32-.22-.84-.33-1.58-.33h-.93zM109.52 152.12h-2.32l-.1 1.46c-.03.5-.08 1.02-.14 1.55-.06.51-.15 1-.26 1.49-.1.47-.24.88-.41 1.24-.16.37-.36.66-.61.88-.23.22-.52.32-.85.32-.2 0-.38 0-.53-.03a1.51 1.51 0 01-.4-.11l.2-1.07c.12.04.26.06.41.06.22 0 .4-.09.58-.27.17-.18.32-.52.45-1.02.12-.52.23-1.22.32-2.12.08-.9.14-2.06.17-3.5h4.77v8h-1.28v-6.88zM118.25 154.26l.05-.99h-.05l-.65 1.03-3.6 4.7h-.74v-8h1.28v4.88l-.05.94h.07l.62-.99 3.6-4.83h.75v8h-1.28v-4.74zM128.6 154.25l.1-1.52h-.08l-.57 1.23-1.94 3.14h-.45l-2.01-3.14-.53-1.23h-.07l.13 1.5V159H122v-8h1.26l2.24 3.58.47.93h.03l.48-.96 2.1-3.55h1.27v8h-1.24v-4.75zM137.3 154.26l.05-.99h-.05l-.65 1.03-3.6 4.7h-.74v-8h1.28v4.88l-.05.94h.07l.62-.99 3.6-4.83h.75v8h-1.28v-4.74zM146.13 152.12h-2.5V159h-1.27v-6.88h-2.5V151h6.27v1.12zM152.3 155.46h-3.62V159h-1.28v-8h1.28v3.34h3.62V151h1.28v8h-1.28v-3.54zM157.32 157.88c.4.06.78.1 1.14.1.67 0 1.14-.13 1.4-.39.27-.27.4-.64.4-1.12 0-.43-.13-.78-.4-1.05-.25-.28-.7-.42-1.35-.42-.18 0-.38 0-.6.02-.2 0-.4.04-.59.1v2.76zm0-3.82a6 6 0 01.74-.08c.23-.03.46-.04.67-.04.55 0 1 .07 1.36.2.38.11.67.28.9.5.22.2.38.46.46.76.1.29.15.6.15.93 0 .97-.28 1.67-.82 2.11-.53.44-1.4.66-2.6.66-.69 0-1.4-.04-2.14-.1v-8h1.28v3.06zm5.54-3.06h1.28v8h-1.28v-8zM172.45 158.36c-.32.26-.73.46-1.22.6-.48.16-1 .23-1.53.23a4 4 0 01-1.59-.29c-.45-.2-.82-.48-1.1-.84-.3-.38-.5-.82-.64-1.33a6.6 6.6 0 01-.21-1.73c0-1.37.3-2.4.91-3.12.6-.72 1.48-1.07 2.6-1.07.37 0 .73.04 1.1.13.36.07.69.22.97.44.3.23.53.55.7.96.19.4.28.95.28 1.62 0 .35-.03.74-.1 1.17h-5.13c0 .47.04.88.14 1.25a2.07 2.07 0 001.23 1.5c.33.13.73.2 1.2.2a3.25 3.25 0 001.9-.65l.49.93zm-2.75-6.43c-.63 0-1.14.16-1.52.5-.38.32-.6.89-.68 1.69h3.97c0-.81-.15-1.38-.46-1.7a1.7 1.7 0 00-1.31-.5zM179.77 155.43v-1.04h1.12a1.95 1.95 0 001.07-.35c.15-.12.26-.25.35-.4.1-.16.14-.33.14-.5 0-.41-.14-.7-.43-.88a2.6 2.6 0 00-1.3-.25c-.41 0-.8.06-1.15.19-.34.13-.6.25-.8.37l-.36-1a5.14 5.14 0 012.67-.69c1.77 0 2.65.66 2.65 1.98 0 .37-.12.74-.36 1.1-.24.35-.58.6-1.03.75v.07c.63.11 1.07.34 1.31.67.26.33.39.77.39 1.31a2.1 2.1 0 01-.83 1.7c-.28.2-.63.38-1.06.5-.42.13-.9.18-1.46.18-.54 0-1-.04-1.36-.14-.35-.1-.67-.21-.96-.35l.37-1.06c.25.14.54.25.88.32.35.08.73.11 1.14.11.65 0 1.14-.1 1.49-.33.34-.23.5-.57.5-1.03 0-.38-.15-.68-.47-.9-.32-.22-.85-.33-1.59-.33h-.92zM186.06 151.02l1.17-.08c.41-.04.93-.05 1.53-.05 1.06 0 1.82.16 2.28.5.46.31.68.8.68 1.47 0 .37-.1.74-.33 1.1-.21.35-.57.61-1.07.78v.07c.63.12 1.07.33 1.32.65.26.32.39.75.39 1.28 0 .84-.3 1.44-.9 1.81-.6.38-1.5.56-2.69.56a40.22 40.22 0 01-2.38-.13v-7.96zm1.28 6.9a12.95 12.95 0 001.3.07c.71 0 1.24-.1 1.58-.3.35-.2.53-.55.53-1.04 0-.39-.15-.7-.45-.93-.29-.25-.8-.37-1.55-.37h-1.41v2.58zm1.57-3.54a1.67 1.67 0 001.39-.76c.1-.15.14-.3.14-.48 0-.42-.12-.72-.38-.88-.26-.17-.7-.25-1.34-.25a15.95 15.95 0 00-1.38.05v2.32h1.57zM193.6 155c0-1.35.3-2.39.9-3.1a3.21 3.21 0 012.6-1.1c.6 0 1.12.1 1.55.31.45.2.82.48 1.1.85.3.36.5.8.65 1.33.13.51.2 1.08.2 1.71 0 1.35-.3 2.4-.9 3.12-.6.71-1.47 1.07-2.6 1.07-.6 0-1.12-.1-1.57-.29-.44-.2-.8-.48-1.09-.84-.28-.38-.5-.82-.64-1.33-.13-.52-.2-1.1-.2-1.73zm1.32 0c0 .4.04.8.12 1.17.08.37.21.7.38.97.17.28.4.5.67.68.28.17.62.25 1.01.25 1.45.01 2.18-1.01 2.18-3.07 0-.42-.05-.81-.13-1.18-.08-.38-.2-.7-.37-.98a1.88 1.88 0 00-1.68-.91c-1.45-.01-2.18 1.01-2.18 3.07zM207.52 155.46h-3.62V159h-1.28v-8h1.28v3.34h3.62V151h1.28v8h-1.28v-3.54zM213.28 155.4h-.74v3.6h-1.28v-8h1.28v3.62l.7-.23 2.55-3.39h1.4l-2.49 3.22-.67.52.83.64 2.67 3.62h-1.58l-2.67-3.6zM223.9 154.26l.04-.99h-.04l-.66 1.03-3.6 4.7h-.74v-8h1.28v4.88l-.04.94h.06l.62-.99 3.6-4.83h.76v8h-1.28v-4.74zM227.19 158.26a.9.9 0 01.24-.67.9.9 0 01.67-.25c.29 0 .52.08.69.25.17.16.26.39.26.67a.9.9 0 01-.26.68.93.93 0 01-.69.25.91.91 0 01-.67-.25.94.94 0 01-.24-.68zM81.36 182.8h6.08v1.18h-4.75v3.36a12.6 12.6 0 011.44-.14c.54 0 1.06.05 1.55.16.5.1.92.27 1.3.51.37.25.66.58.88 1.01.22.42.33.94.33 1.58 0 .64-.11 1.2-.33 1.67a3.27 3.27 0 01-2.21 1.79 5.7 5.7 0 01-2.18.2 8.85 8.85 0 01-1.45-.12 4.1 4.1 0 01-.66-.11V182.8zm2.9 10.18c.34 0 .66-.05.97-.15.31-.1.58-.23.8-.41.24-.2.42-.44.55-.72.13-.3.2-.63.2-1.01 0-.5-.08-.89-.24-1.19a1.75 1.75 0 00-.6-.72 2.2 2.2 0 00-.9-.33 5.47 5.47 0 00-1.38-.08l-.38.03-.35.05c-.1 0-.19.02-.24.03v4.4c.07.02.17.04.29.05l.4.03.44.02h.44zM95.87 193.36c-.32.26-.73.46-1.22.6-.48.16-.99.23-1.53.23a4 4 0 01-1.59-.29c-.45-.2-.81-.48-1.1-.84-.29-.38-.5-.82-.64-1.33a6.62 6.62 0 01-.2-1.73c0-1.37.3-2.4.9-3.12.61-.72 1.48-1.07 2.61-1.07.36 0 .73.04 1.09.13.36.07.69.22.97.44.3.23.53.55.7.96a4 4 0 01.28 1.62c0 .35-.03.74-.1 1.17h-5.13c0 .47.05.88.14 1.25a2.06 2.06 0 001.23 1.5c.34.13.74.2 1.2.2a3.25 3.25 0 001.9-.65l.49.93zm-2.75-6.43c-.63 0-1.14.16-1.52.5-.38.32-.6.89-.68 1.69h3.97c0-.81-.15-1.38-.46-1.7a1.7 1.7 0 00-1.31-.5zM98.92 190.43v-1.04h1.12a1.93 1.93 0 001.07-.35c.15-.12.27-.25.36-.4.1-.16.14-.33.14-.5 0-.41-.14-.7-.43-.88a2.6 2.6 0 00-1.3-.25c-.41 0-.8.06-1.15.19-.34.13-.6.25-.8.37l-.37-1a5.15 5.15 0 012.67-.69c1.77 0 2.66.66 2.66 1.98 0 .37-.12.74-.37 1.1-.23.35-.57.6-1.02.75v.07c.63.11 1.06.34 1.31.67.26.33.38.77.38 1.31 0 .34-.06.66-.2.94a2.1 2.1 0 01-.63.76c-.28.2-.63.38-1.05.5-.42.13-.9.18-1.46.18-.54 0-1-.04-1.36-.14-.35-.1-.67-.21-.96-.35l.37-1.06c.24.14.54.25.88.32.35.08.73.11 1.13.11.66 0 1.15-.1 1.5-.33.33-.23.5-.57.5-1.03 0-.38-.16-.68-.48-.9-.32-.22-.84-.33-1.58-.33h-.93zM109.52 187.12h-2.32l-.1 1.46c-.03.5-.08 1.02-.14 1.55-.06.51-.15 1-.26 1.49-.1.47-.24.88-.41 1.24-.16.37-.36.66-.61.88-.23.22-.52.32-.85.32-.2 0-.38 0-.53-.03a1.51 1.51 0 01-.4-.11l.2-1.07c.12.04.26.06.41.06.22 0 .4-.09.58-.27.17-.18.32-.52.45-1.02.12-.52.23-1.22.32-2.12.08-.9.14-2.06.17-3.5h4.77v8h-1.28v-6.88zM118.25 189.26l.05-.99h-.05l-.65 1.03-3.6 4.7h-.74v-8h1.28v4.88l-.05.94h.07l.62-.99 3.6-4.83h.75v8h-1.28v-4.74zM128.6 189.25l.1-1.52h-.08l-.57 1.23-1.94 3.14h-.45l-2.01-3.14-.53-1.23h-.07l.13 1.5V194H122v-8h1.26l2.24 3.58.47.93h.03l.48-.96 2.1-3.55h1.27v8h-1.24v-4.75zM137.3 189.26l.05-.99h-.05l-.65 1.03-3.6 4.7h-.74v-8h1.28v4.88l-.05.94h.07l.62-.99 3.6-4.83h.75v8h-1.28v-4.74zM146.13 187.12h-2.5V194h-1.27v-6.88h-2.5V186h6.27v1.12zM152.3 190.46h-3.62V194h-1.28v-8h1.28v3.34h3.62V186h1.28v8h-1.28v-3.54zM157.32 192.88c.4.06.78.1 1.14.1.67 0 1.14-.13 1.4-.39.27-.27.4-.64.4-1.12 0-.43-.13-.78-.4-1.05-.25-.28-.7-.42-1.35-.42-.18 0-.38 0-.6.02-.2 0-.4.04-.59.1v2.76zm0-3.82a6 6 0 01.74-.08c.23-.03.46-.04.67-.04.55 0 1 .07 1.36.2.38.11.67.28.9.5.22.2.38.46.46.76.1.29.15.6.15.93 0 .97-.28 1.67-.82 2.11-.53.44-1.4.66-2.6.66-.69 0-1.4-.04-2.14-.1v-8h1.28v3.06zm5.54-3.06h1.28v8h-1.28v-8zM172.45 193.36c-.32.26-.73.46-1.22.6-.48.16-1 .23-1.53.23a4 4 0 01-1.59-.29c-.45-.2-.82-.48-1.1-.84-.3-.38-.5-.82-.64-1.33a6.6 6.6 0 01-.21-1.73c0-1.37.3-2.4.91-3.12.6-.72 1.48-1.07 2.6-1.07.37 0 .73.04 1.1.13.36.07.69.22.97.44.3.23.53.55.7.96.19.4.28.95.28 1.62 0 .35-.03.74-.1 1.17h-5.13c0 .47.04.88.14 1.25a2.07 2.07 0 001.23 1.5c.33.13.73.2 1.2.2a3.25 3.25 0 001.9-.65l.49.93zm-2.75-6.43c-.63 0-1.14.16-1.52.5-.38.32-.6.89-.68 1.69h3.97c0-.81-.15-1.38-.46-1.7a1.7 1.7 0 00-1.31-.5zM184.45 193.47c-.32.24-.7.41-1.13.53a4.88 4.88 0 01-2.95-.1c-.42-.2-.78-.48-1.05-.84a3.88 3.88 0 01-.6-1.33 7.86 7.86 0 01-.17-1.73c0-1.35.3-2.39.9-3.1.6-.73 1.45-1.1 2.57-1.1a5.56 5.56 0 012.27.47l-.36 1.1a3.23 3.23 0 00-.82-.31c-.3-.09-.62-.13-.96-.13-1.52 0-2.27 1.02-2.27 3.07 0 .4.03.8.11 1.17.08.36.22.69.4.97.2.28.44.5.74.68.3.17.68.25 1.13.25a2.94 2.94 0 001.78-.58l.41.98zM185.4 190c0-1.35.3-2.39.89-3.1a3.21 3.21 0 012.6-1.1c.6 0 1.12.1 1.56.31.45.2.81.48 1.1.85.3.36.5.8.64 1.33.14.51.21 1.08.21 1.71 0 1.35-.3 2.4-.91 3.12-.6.71-1.46 1.07-2.6 1.07-.59 0-1.11-.1-1.56-.29-.44-.2-.8-.48-1.09-.84-.29-.38-.5-.82-.64-1.33-.14-.52-.2-1.1-.2-1.73zm1.32 0c0 .4.04.8.11 1.17.09.37.22.7.39.97.17.28.4.5.67.68.28.17.61.25 1 .25 1.46.01 2.18-1.01 2.18-3.07 0-.42-.04-.81-.13-1.18-.07-.38-.2-.7-.36-.98-.17-.28-.4-.5-.68-.66a1.88 1.88 0 00-1-.25c-1.45-.01-2.18 1.01-2.18 3.07zM201.6 196.03h-.86l-.24-2.03h-6.08v-8h1.28v6.88h3.47V186h1.28v6.88h1.15v3.15zM208.64 193.47c-.32.24-.7.41-1.13.53a4.87 4.87 0 01-2.95-.1c-.43-.2-.78-.48-1.06-.84a3.88 3.88 0 01-.59-1.33 7.92 7.92 0 01-.17-1.73c0-1.35.3-2.39.9-3.1.59-.73 1.45-1.1 2.57-1.1a5.56 5.56 0 012.27.47l-.37 1.1a3.2 3.2 0 00-.81-.31c-.3-.09-.62-.13-.96-.13-1.52 0-2.28 1.02-2.28 3.07 0 .4.04.8.12 1.17.08.36.22.69.4.97.19.28.43.5.73.68.31.17.7.25 1.14.25a2.94 2.94 0 001.78-.58l.41.98zM215.87 193.36c-.32.26-.73.46-1.22.6-.48.16-.99.23-1.53.23a4 4 0 01-1.59-.29c-.44-.2-.81-.48-1.1-.84-.29-.38-.5-.82-.64-1.33a6.6 6.6 0 01-.2-1.73c0-1.37.3-2.4.9-3.12.61-.72 1.48-1.07 2.61-1.07.36 0 .73.04 1.09.13.36.07.69.22.97.44.3.23.53.55.7.96.19.4.28.95.28 1.62 0 .35-.03.74-.1 1.17h-5.13c0 .47.05.88.14 1.25a2.06 2.06 0 001.23 1.5c.34.13.73.2 1.2.2a3.26 3.26 0 001.9-.65l.49.93zm-2.75-6.43c-.63 0-1.14.16-1.52.5-.38.32-.6.89-.67 1.69h3.96c0-.81-.15-1.38-.46-1.7a1.7 1.7 0 00-1.31-.5zM223.24 187.12h-2.5V194h-1.27v-6.88h-2.5V186h6.27v1.12zM229.5 189.26l.05-.99h-.05l-.65 1.03-3.6 4.7h-.74v-8h1.28v4.88l-.04.94h.06l.62-.99 3.6-4.83h.75v8h-1.28v-4.74zM232.8 193.26a.9.9 0 01.24-.67.9.9 0 01.67-.25c.29 0 .52.08.69.25.17.16.26.39.26.67s-.09.5-.26.68a.93.93 0 01-.69.25.9.9 0 01-.67-.25.94.94 0 01-.24-.68zM81.36 217.8h6.08v1.18h-4.75v3.36a12.6 12.6 0 011.44-.14c.54 0 1.06.05 1.55.16.5.1.92.27 1.3.51.37.25.66.58.88 1.01.22.42.33.94.33 1.58 0 .64-.11 1.2-.33 1.67a3.27 3.27 0 01-2.21 1.79 5.7 5.7 0 01-2.18.2 8.85 8.85 0 01-1.45-.12 4.1 4.1 0 01-.66-.11V217.8zm2.9 10.18c.34 0 .66-.05.97-.15.31-.1.58-.23.8-.41.24-.2.42-.44.55-.72.13-.3.2-.63.2-1.01 0-.5-.08-.89-.24-1.19a1.75 1.75 0 00-.6-.72 2.2 2.2 0 00-.9-.33 5.47 5.47 0 00-1.38-.08l-.38.03-.35.05c-.1 0-.19.02-.24.03v4.4c.07.02.17.04.29.05l.4.03.44.02h.44zM95.87 228.36c-.32.26-.73.46-1.22.6-.48.16-.99.23-1.53.23a4 4 0 01-1.59-.29c-.45-.2-.81-.48-1.1-.84-.29-.38-.5-.82-.64-1.33a6.62 6.62 0 01-.2-1.73c0-1.37.3-2.4.9-3.12.61-.72 1.48-1.07 2.61-1.07.36 0 .73.04 1.09.13.36.07.69.22.97.44.3.23.53.55.7.96a4 4 0 01.28 1.62c0 .35-.03.74-.1 1.17h-5.13c0 .47.05.88.14 1.25a2.06 2.06 0 001.23 1.5c.34.13.74.2 1.2.2a3.25 3.25 0 001.9-.65l.49.93zm-2.75-6.43c-.63 0-1.14.16-1.52.5-.38.32-.6.89-.68 1.69h3.97c0-.81-.15-1.38-.46-1.7a1.7 1.7 0 00-1.31-.5zM98.92 225.43v-1.04h1.12a1.93 1.93 0 001.07-.35c.15-.12.27-.25.36-.4.1-.16.14-.33.14-.5 0-.41-.14-.7-.43-.88a2.6 2.6 0 00-1.3-.25c-.41 0-.8.06-1.15.19-.34.13-.6.25-.8.37l-.37-1a5.15 5.15 0 012.67-.69c1.77 0 2.66.66 2.66 1.98 0 .37-.12.74-.37 1.1-.23.35-.57.6-1.02.75v.07c.63.11 1.06.34 1.31.67.26.33.38.77.38 1.31 0 .34-.06.66-.2.94a2.1 2.1 0 01-.63.76c-.28.2-.63.38-1.05.5-.42.13-.9.18-1.46.18-.54 0-1-.04-1.36-.14-.35-.1-.67-.21-.96-.35l.37-1.06c.24.14.54.25.88.32.35.08.73.11 1.13.11.66 0 1.15-.1 1.5-.33.33-.23.5-.57.5-1.03 0-.38-.16-.68-.48-.9-.32-.22-.84-.33-1.58-.33h-.93zM109.52 222.12h-2.32l-.1 1.46c-.03.5-.08 1.02-.14 1.55-.06.51-.15 1-.26 1.49-.1.47-.24.88-.41 1.24-.16.37-.36.66-.61.88-.23.22-.52.32-.85.32-.2 0-.38 0-.53-.03a1.51 1.51 0 01-.4-.11l.2-1.07c.12.04.26.06.41.06.22 0 .4-.09.58-.27.17-.18.32-.52.45-1.02.12-.52.23-1.22.32-2.12.08-.9.14-2.06.17-3.5h4.77v8h-1.28v-6.88zM118.25 224.26l.05-.99h-.05l-.65 1.03-3.6 4.7h-.74v-8h1.28v4.88l-.05.94h.07l.62-.99 3.6-4.83h.75v8h-1.28v-4.74zM128.6 224.25l.1-1.52h-.08l-.57 1.23-1.94 3.14h-.45l-2.01-3.14-.53-1.23h-.07l.13 1.5V229H122v-8h1.26l2.24 3.58.47.93h.03l.48-.96 2.1-3.55h1.27v8h-1.24v-4.75zM137.3 224.26l.05-.99h-.05l-.65 1.03-3.6 4.7h-.74v-8h1.28v4.88l-.05.94h.07l.62-.99 3.6-4.83h.75v8h-1.28v-4.74zM146.13 222.12h-2.5V229h-1.27v-6.88h-2.5V221h6.27v1.12zM152.3 225.46h-3.62V229h-1.28v-8h1.28v3.34h3.62V221h1.28v8h-1.28v-3.54zM157.32 227.88c.4.06.78.1 1.14.1.67 0 1.14-.13 1.4-.39.27-.27.4-.64.4-1.12 0-.43-.13-.78-.4-1.05-.25-.28-.7-.42-1.35-.42-.18 0-.38 0-.6.02-.2 0-.4.04-.59.1v2.76zm0-3.82a6 6 0 01.74-.08c.23-.03.46-.04.67-.04.55 0 1 .07 1.36.2.38.11.67.28.9.5.22.2.38.46.46.76.1.29.15.6.15.93 0 .97-.28 1.67-.82 2.11-.53.44-1.4.66-2.6.66-.69 0-1.4-.04-2.14-.1v-8h1.28v3.06zm5.54-3.06h1.28v8h-1.28v-8zM172.45 228.36c-.32.26-.73.46-1.22.6-.48.16-1 .23-1.53.23a4 4 0 01-1.59-.29c-.45-.2-.82-.48-1.1-.84-.3-.38-.5-.82-.64-1.33a6.6 6.6 0 01-.21-1.73c0-1.37.3-2.4.91-3.12.6-.72 1.48-1.07 2.6-1.07.37 0 .73.04 1.1.13.36.07.69.22.97.44.3.23.53.55.7.96.19.4.28.95.28 1.62 0 .35-.03.74-.1 1.17h-5.13c0 .47.04.88.14 1.25a2.07 2.07 0 001.23 1.5c.33.13.73.2 1.2.2a3.25 3.25 0 001.9-.65l.49.93zm-2.75-6.43c-.63 0-1.14.16-1.52.5-.38.32-.6.89-.68 1.69h3.97c0-.81-.15-1.38-.46-1.7a1.7 1.7 0 00-1.31-.5zM87.84 249.25l.1-1.52h-.08l-.58 1.23-1.94 3.14h-.44l-2.02-3.14-.53-1.23h-.06l.13 1.5V254h-1.19v-8h1.27l2.24 3.58.46.93h.03l.48-.96 2.1-3.55h1.28v8h-1.25v-4.75zM97.38 253.36c-.32.26-.72.46-1.21.6-.48.16-1 .23-1.54.23a4 4 0 01-1.58-.29c-.45-.2-.82-.48-1.1-.84-.3-.38-.5-.82-.65-1.33a6.61 6.61 0 01-.2-1.73c0-1.37.3-2.4.9-3.12.62-.72 1.49-1.07 2.62-1.07.36 0 .72.04 1.08.13.37.07.7.22.98.44.29.23.52.55.7.96a4 4 0 01.28 1.62c0 .35-.04.74-.1 1.17h-5.14c0 .47.05.88.15 1.25a2.06 2.06 0 001.23 1.5c.33.13.73.2 1.2.2a3.25 3.25 0 001.9-.65l.48.93zm-2.75-6.43c-.63 0-1.13.16-1.52.5-.37.32-.6.89-.67 1.69h3.97c0-.81-.16-1.38-.47-1.7a1.7 1.7 0 00-1.3-.5zM104.95 253.47c-.32.24-.7.41-1.13.53a4.88 4.88 0 01-2.95-.1c-.42-.2-.78-.48-1.05-.84a3.88 3.88 0 01-.6-1.33 7.9 7.9 0 01-.17-1.73c0-1.35.3-2.39.9-3.1.6-.73 1.45-1.1 2.57-1.1a5.56 5.56 0 012.27.47l-.36 1.1a3.23 3.23 0 00-.82-.31c-.3-.09-.62-.13-.96-.13-1.52 0-2.27 1.02-2.27 3.07 0 .4.04.8.11 1.17.09.36.22.69.4.97.2.28.44.5.74.68.3.17.68.25 1.13.25a2.94 2.94 0 001.78-.58l.41.98zM111.8 253.47c-.32.24-.7.41-1.14.53a4.87 4.87 0 01-2.94-.1c-.43-.2-.78-.48-1.06-.84a3.9 3.9 0 01-.6-1.33 7.92 7.92 0 01-.17-1.73c0-1.35.3-2.39.9-3.1.6-.73 1.45-1.1 2.57-1.1a5.56 5.56 0 012.28.47l-.37 1.1a3.2 3.2 0 00-.82-.31c-.3-.09-.62-.13-.96-.13-1.51 0-2.27 1.02-2.27 3.07 0 .4.04.8.11 1.17.09.36.22.69.4.97.2.28.44.5.74.68.3.17.69.25 1.14.25a2.92 2.92 0 001.78-.58l.4.98zM119.03 253.36c-.33.26-.73.46-1.22.6-.48.16-1 .23-1.54.23a4 4 0 01-1.58-.29c-.45-.2-.82-.48-1.1-.84-.3-.38-.5-.82-.65-1.33a6.6 6.6 0 01-.2-1.73c0-1.37.3-2.4.9-3.12.62-.72 1.49-1.07 2.62-1.07.36 0 .72.04 1.08.13.37.07.7.22.98.44.29.23.52.55.7.96.19.4.28.95.28 1.62 0 .35-.03.74-.1 1.17h-5.14c0 .47.05.88.15 1.25a2.07 2.07 0 001.23 1.5c.33.13.73.2 1.2.2a3.25 3.25 0 001.9-.65l.48.93zm-2.76-6.43c-.63 0-1.13.16-1.52.5-.37.32-.6.89-.67 1.69h3.97c0-.81-.16-1.38-.47-1.7a1.7 1.7 0 00-1.3-.5zM126.2 250.46h-3.61V254h-1.28v-8h1.28v3.34h3.62V246h1.28v8h-1.28v-3.54zM137.02 256.03h-.86l-.24-2.03h-6.02l-.24 2.03h-.86v-3.15h.94c.09-.12.2-.33.34-.62.14-.31.27-.74.4-1.28.14-.56.26-1.24.35-2.05.1-.82.17-1.8.2-2.93h4.82v6.88h1.17v3.15zm-2.45-3.15v-5.76h-2.4a29.73 29.73 0 01-.33 3.06c-.09.52-.2 1.01-.34 1.48s-.3.88-.48 1.22h3.55zM141.22 250.46l-2.36 3.54h-1.47l2.53-3.66.54-.48-.81-.61-2.08-3.25h1.36l2.2 3.46h.84V246h1.25v3.62l.75-.23 2.22-3.39h1.34l-2.17 3.25-.63.51.82.64 2.37 3.6h-1.52l-2.35-3.6h-.84v3.6h-1.24v-3.76l-.75.22zM154.88 253.36c-.32.26-.72.46-1.21.6-.48.16-1 .23-1.54.23a4 4 0 01-1.58-.29c-.45-.2-.82-.48-1.1-.84-.3-.38-.5-.82-.65-1.33a6.64 6.64 0 01-.2-1.73c0-1.37.3-2.4.9-3.12.62-.72 1.49-1.07 2.62-1.07.36 0 .72.04 1.08.13.37.07.7.22.98.44.29.23.52.55.7.96a4 4 0 01.28 1.62c0 .35-.04.74-.1 1.17h-5.14c0 .47.05.88.15 1.25a2.07 2.07 0 001.23 1.5c.33.13.73.2 1.2.2a3.25 3.25 0 001.9-.65l.48.93zm-2.75-6.43c-.63 0-1.13.16-1.52.5-.37.32-.6.89-.67 1.69h3.97c0-.81-.16-1.38-.47-1.7-.3-.33-.74-.5-1.3-.5zM157.17 246h.88l.24.96h.06c.25-.37.56-.66.95-.85.4-.2.84-.3 1.34-.3 1.07 0 1.86.31 2.39.94.52.63.78 1.66.78 3.09 0 .67-.1 1.28-.27 1.82s-.42.99-.74 1.36c-.32.38-.7.66-1.17.87a4.46 4.46 0 01-2.45.22 3.5 3.5 0 01-.73-.24v3.33h-1.28V246zm3.23.93c-.54 0-.97.14-1.3.43-.3.28-.52.7-.65 1.28v3.97c.2.15.41.26.66.35.24.07.57.11.97.11a2.1 2.1 0 001.74-.81c.44-.56.66-1.37.66-2.44 0-.43-.04-.83-.11-1.18-.08-.36-.2-.67-.37-.91a1.62 1.62 0 00-.64-.6 2 2 0 00-.96-.2zM167.1 252.88c.4.06.78.1 1.14.1.67 0 1.14-.13 1.41-.39.27-.27.4-.64.4-1.12 0-.43-.13-.78-.4-1.05-.26-.28-.71-.42-1.36-.42-.18 0-.38 0-.6.02-.2 0-.4.04-.58.1v2.76zm0-3.82c.26-.05.5-.07.74-.08.24-.03.46-.04.67-.04.55 0 1 .07 1.36.2.38.11.68.28.9.5.22.2.38.46.46.76.1.29.15.6.15.93 0 .97-.27 1.67-.82 2.11-.53.44-1.4.66-2.6.66-.69 0-1.4-.04-2.13-.1v-8h1.28v3.06zm5.54-3.06h1.28v8h-1.28v-8zM175.94 253.26a.9.9 0 01.24-.67.9.9 0 01.67-.25c.29 0 .52.08.69.25.17.16.26.39.26.67a.9.9 0 01-.26.68.93.93 0 01-.69.25.91.91 0 01-.67-.25.94.94 0 01-.24-.68zM87.87 285.62c0 .5-.07.96-.22 1.4a3.17 3.17 0 01-3.18 2.18c-.54 0-1.02-.1-1.45-.26a3.05 3.05 0 01-1.82-2 5.47 5.47 0 01-.24-1.7c0-1.06.13-2.03.4-2.91.28-.9.66-1.68 1.14-2.34a6.01 6.01 0 011.7-1.6 5.36 5.36 0 012.14-.78l.27 1.02c-.6.1-1.14.31-1.63.61a5.32 5.32 0 00-2.2 2.58 6.7 6.7 0 00-.48 1.68 2.82 2.82 0 012.35-1.15c1 0 1.8.28 2.36.86.57.57.86 1.38.86 2.41zm-1.33.13c0-.76-.17-1.33-.52-1.71-.36-.38-.9-.58-1.64-.58-.52 0-.97.13-1.36.39a2.2 2.2 0 00-.78.86l-.03.37v.32c0 .33.04.66.13.98a2.42 2.42 0 001.14 1.47c.28.15.62.22 1 .22a1.99 1.99 0 001.9-1.4c.11-.28.16-.59.16-.92zM89.4 283.4c0-1.92.32-3.37.93-4.34a3.06 3.06 0 012.74-1.45c1.3 0 2.22.48 2.8 1.44.59.95.88 2.4.88 4.35 0 1.92-.31 3.37-.94 4.34a3.04 3.04 0 01-2.74 1.45c-1.27 0-2.2-.5-2.78-1.52-.59-1.01-.88-2.44-.88-4.27zm1.33 0c0 .7.05 1.33.13 1.9.1.57.24 1.06.43 1.48.2.4.44.72.72.96.3.22.66.33 1.06.33.81 0 1.4-.37 1.78-1.12.38-.76.57-1.94.57-3.55 0-.68-.04-1.31-.13-1.89a5.12 5.12 0 00-.4-1.49 2.33 2.33 0 00-.72-.96c-.3-.22-.66-.33-1.1-.33-.8 0-1.4.38-1.78 1.13a8.4 8.4 0 00-.56 3.54zM98.13 283.4c0-1.92.3-3.37.92-4.34a3.06 3.06 0 012.74-1.45c1.29 0 2.22.48 2.8 1.44.59.95.88 2.4.88 4.35 0 1.92-.31 3.37-.94 4.34a3.04 3.04 0 01-2.74 1.45c-1.27 0-2.2-.5-2.78-1.52-.6-1.01-.88-2.44-.88-4.27zm1.32 0c0 .7.05 1.33.13 1.9.1.57.24 1.06.43 1.48.2.4.43.72.72.96.3.22.65.33 1.06.33.81 0 1.4-.37 1.77-1.12.39-.76.58-1.94.58-3.55 0-.68-.04-1.31-.13-1.89a5.1 5.1 0 00-.4-1.49 2.32 2.32 0 00-.72-.96c-.3-.22-.66-.33-1.1-.33-.8 0-1.4.38-1.78 1.13a8.42 8.42 0 00-.56 3.54zM118.95 288.54c-.32.24-.73.41-1.22.5-.49.1-1 .15-1.56.15-.68 0-1.3-.11-1.9-.33a4.22 4.22 0 01-1.53-1.06 5.07 5.07 0 01-1.04-1.8 7.95 7.95 0 01-.38-2.6c0-1.05.14-1.93.41-2.66.3-.73.66-1.33 1.12-1.79.47-.47 1-.8 1.57-1.02a5.02 5.02 0 011.76-.32c.64 0 1.16.03 1.57.11.4.06.75.15 1.04.27l-.32 1.17a5.2 5.2 0 00-3.49-.13c-.42.16-.8.42-1.15.79-.33.36-.6.83-.8 1.42-.2.59-.3 1.3-.3 2.16 0 .77.1 1.44.28 2.02.2.57.46 1.05.79 1.44.34.38.73.67 1.18.86a4.78 4.78 0 002.74.14c.36-.1.67-.22.91-.36l.32 1.04zM129.53 281.48l.16-1.68h-.08l-.6 1.54-2.92 5.05h-.4l-3.09-5.07-.57-1.52h-.08l.22 1.66V289h-1.25v-11.2h1l3.5 5.73.53 1.25h.03l.5-1.28 3.34-5.7h1.04V289h-1.33v-7.52zM140.75 288.54c-.32.24-.73.41-1.22.5-.49.1-1.01.15-1.57.15-.67 0-1.3-.11-1.89-.33a4.22 4.22 0 01-1.53-1.06 5.06 5.06 0 01-1.04-1.8 7.95 7.95 0 01-.38-2.6c0-1.05.13-1.93.41-2.66.29-.73.66-1.33 1.12-1.79.47-.47 1-.8 1.57-1.02a5.01 5.01 0 011.76-.32c.64 0 1.16.03 1.57.11.4.06.75.15 1.04.27l-.32 1.17a5.2 5.2 0 00-3.5-.13c-.42.16-.8.42-1.14.79-.33.36-.6.83-.8 1.42-.2.59-.3 1.3-.3 2.16 0 .77.09 1.44.28 2.02.2.57.45 1.05.78 1.44.35.38.74.67 1.19.86a4.78 4.78 0 002.74.14c.36-.1.66-.22.9-.36l.33 1.04zM146.22 281.02l1.16-.08c.42-.04.93-.05 1.54-.05 1.06 0 1.81.16 2.27.5.46.31.69.8.69 1.47 0 .37-.11.74-.34 1.1a1.9 1.9 0 01-1.07.78v.07c.63.12 1.07.33 1.33.65s.38.75.38 1.28c0 .84-.3 1.44-.9 1.81-.59.38-1.49.56-2.68.56a40.49 40.49 0 01-2.38-.13v-7.96zm1.28 6.9a12.95 12.95 0 001.3.07c.7 0 1.23-.1 1.58-.3.35-.2.52-.55.52-1.04 0-.39-.15-.7-.44-.93-.3-.25-.8-.37-1.56-.37h-1.4v2.58zm1.56-3.54a1.67 1.67 0 001.4-.76c.1-.15.14-.3.14-.48 0-.42-.13-.72-.38-.88-.26-.17-.7-.25-1.35-.25a15.95 15.95 0 00-1.37.05v2.32h1.56zM165.13 291.03h-.86l-.24-2.03H158l-.24 2.03h-.86v-3.15h.94c.09-.12.2-.33.34-.62.14-.31.27-.74.4-1.28a26.94 26.94 0 00.54-4.98h4.83v6.88h1.17v3.15zm-2.45-3.15v-5.76h-2.4a28.57 28.57 0 01-.33 3.06c-.09.52-.2 1.01-.34 1.48s-.3.88-.48 1.22h3.55zM172.56 288.36c-.32.26-.73.46-1.22.6-.48.16-1 .23-1.54.23a4 4 0 01-1.58-.29c-.45-.2-.82-.48-1.1-.84-.3-.38-.5-.82-.64-1.33a6.64 6.64 0 01-.21-1.73c0-1.37.3-2.4.91-3.12.6-.71 1.48-1.07 2.6-1.07.37 0 .73.04 1.1.13.36.07.68.22.97.44.29.23.53.55.7.96a4 4 0 01.28 1.62c0 .35-.03.74-.1 1.17h-5.13c0 .47.04.88.14 1.25a2.07 2.07 0 001.23 1.5c.33.13.73.2 1.2.2a3.25 3.25 0 001.9-.65l.49.93zm-2.76-6.43c-.63 0-1.13.16-1.52.5-.37.32-.6.89-.67 1.69h3.97c0-.81-.15-1.38-.46-1.7-.31-.33-.75-.5-1.32-.5zM179.74 285.46h-3.62V289h-1.28v-8h1.28v3.34h3.62V281h1.28v8h-1.28v-3.54zM184.76 287.88c.4.06.78.1 1.14.1.67 0 1.17-.13 1.49-.39.32-.26.48-.64.48-1.12 0-.43-.16-.78-.47-1.05-.3-.28-.8-.42-1.45-.42-.19 0-.38 0-.6.02-.2 0-.4.04-.59.1v2.76zm0-3.82c.26-.05.5-.07.74-.08.23-.03.46-.04.67-.04.56 0 1.02.07 1.4.2.4.11.7.28.94.5.24.2.42.46.52.76.11.29.16.6.16.93 0 .97-.29 1.67-.88 2.11-.57.44-1.47.66-2.7.66-.68 0-1.4-.04-2.13-.1v-8h1.28v3.06zM190.46 288.26a.9.9 0 01.24-.67.9.9 0 01.67-.25c.29 0 .51.08.69.25.17.16.25.39.25.67a.9.9 0 01-.25.68.93.93 0 01-.7.25.91.91 0 01-.66-.25.94.94 0 01-.24-.68z" fill="#fff"/><path d="M50 153.5a7.5 7.5 0 0115 0 7.5 7.5 0 01-15 0z" fill="url(#paint0_linear)"/><path fill-rule="evenodd" clip-rule="evenodd" d="M62.12 151.22a1 1 0 01.16 1.4l-4 5a1 1 0 01-.78.38H57a1 1 0 01-.7-.3l-2.5-2.5a1 1 0 111.4-1.4l2 1.98 3.52-4.4a1 1 0 011.4-.16z" fill="#000" fill-opacity=".25"/><path fill-rule="evenodd" clip-rule="evenodd" d="M61.62 150.22a1 1 0 01.16 1.4l-4 5a1 1 0 01-1.49.09l-2.5-2.5a1 1 0 111.42-1.42l1.7 1.71 3.3-4.13a1 1 0 011.41-.15z" fill="#fff"/><path d="M50 188.5a7.5 7.5 0 0115 0 7.5 7.5 0 01-15 0z" fill="url(#paint1_linear)"/><path fill-rule="evenodd" clip-rule="evenodd" d="M62.12 186.22a1 1 0 01.16 1.4l-4 5a1 1 0 01-.78.38H57a1 1 0 01-.7-.3l-2.5-2.5a1 1 0 111.4-1.4l2 1.98 3.52-4.4a1 1 0 011.4-.16z" fill="#000" fill-opacity=".25"/><path fill-rule="evenodd" clip-rule="evenodd" d="M61.62 185.22a1 1 0 01.16 1.4l-4 5a1 1 0 01-1.49.09l-2.5-2.5a1 1 0 111.42-1.42l1.7 1.71 3.3-4.13a1 1 0 011.41-.15z" fill="#fff"/><path d="M50 223.5a7.5 7.5 0 0115 0 7.5 7.5 0 01-15 0z" fill="url(#paint2_linear)"/><path fill-rule="evenodd" clip-rule="evenodd" d="M62.12 221.22a1 1 0 01.16 1.4l-4 5a1 1 0 01-.78.38H57a1 1 0 01-.7-.3l-2.5-2.5a1 1 0 111.4-1.4l2 1.98 3.52-4.4a1 1 0 011.4-.16z" fill="#000" fill-opacity=".25"/><path fill-rule="evenodd" clip-rule="evenodd" d="M61.62 220.22a1 1 0 01.16 1.4l-4 5a1 1 0 01-1.49.09l-2.5-2.5a1 1 0 111.42-1.42l1.7 1.71 3.3-4.13a1 1 0 011.41-.15z" fill="#fff"/><path d="M50 283.5a7.5 7.5 0 0115 0 7.5 7.5 0 01-15 0z" fill="url(#paint3_linear)"/><path fill-rule="evenodd" clip-rule="evenodd" d="M62.12 281.22a1 1 0 01.16 1.4l-4 5a1 1 0 01-.78.38H57a1 1 0 01-.7-.3l-2.5-2.5a1 1 0 111.4-1.4l2 1.98 3.52-4.4a1 1 0 011.4-.16z" fill="#000" fill-opacity=".25"/><path fill-rule="evenodd" clip-rule="evenodd" d="M61.62 280.22a1 1 0 01.16 1.4l-4 5a1 1 0 01-1.49.09l-2.5-2.5a1 1 0 111.42-1.42l1.7 1.71 3.3-4.13a1 1 0 011.41-.15z" fill="#fff"/><path d="M494 35a5 5 0 015-5h66a5 5 0 015 5v30a5 5 0 01-5 5h-66a5 5 0 01-5-5V35z" fill="url(#paint4_linear)"/><path d="M511.5 47.38c0-.68.1-1.3.3-1.88a4.14 4.14 0 012.34-2.42 5.04 5.04 0 011.97-.36c1.5 0 2.69.45 3.54 1.36.87.9 1.3 2.2 1.3 3.92 0 1.55-.2 2.89-.6 4.02a8.34 8.34 0 01-1.58 2.82 6.78 6.78 0 01-2.28 1.72c-.87.4-1.78.64-2.74.72l-.56-2.04a6.6 6.6 0 001.96-.54 5.08 5.08 0 002.48-2.32c.27-.5.45-1.05.56-1.62-.32.35-.67.59-1.04.72-.36.13-.85.2-1.46.2-.5 0-1.01-.09-1.52-.26-.5-.17-.94-.43-1.34-.78-.39-.36-.7-.8-.96-1.34a4.74 4.74 0 01-.36-1.92zm2.53-.14c0 .76.21 1.33.64 1.72.43.39.96.58 1.6.58a3 3 0 001.34-.26c.35-.17.61-.39.8-.64a4.34 4.34 0 00-.08-1.9c-.1-.36-.24-.68-.44-.96-.19-.28-.43-.5-.74-.66-.3-.17-.65-.26-1.06-.26-.65 0-1.16.21-1.52.64-.36.41-.54 1-.54 1.74zM522.86 47.38c0-.68.1-1.3.3-1.88a4.14 4.14 0 012.34-2.42 5.04 5.04 0 011.96-.36c1.5 0 2.68.45 3.54 1.36.86.9 1.3 2.2 1.3 3.92 0 1.55-.2 2.89-.6 4.02a8.35 8.35 0 01-1.58 2.82 6.78 6.78 0 01-2.28 1.72 8.1 8.1 0 01-2.74.72l-.56-2.04a6.6 6.6 0 001.96-.54 5.1 5.1 0 002.48-2.32c.26-.5.45-1.05.56-1.62-.32.35-.67.59-1.04.72-.36.13-.85.2-1.46.2-.51 0-1.02-.09-1.52-.26s-.94-.43-1.34-.78c-.39-.36-.71-.8-.96-1.34a4.74 4.74 0 01-.36-1.92zm2.52-.14c0 .76.21 1.33.64 1.72.42.39.96.58 1.6.58a3 3 0 001.34-.26c.34-.17.61-.39.8-.64a4.38 4.38 0 00-.08-1.9c-.1-.36-.24-.68-.44-.96-.19-.28-.44-.5-.74-.66-.3-.17-.65-.26-1.06-.26-.66 0-1.16.21-1.52.64-.36.41-.54 1-.54 1.74zM534.2 47.38c0-.68.1-1.3.3-1.88a4.14 4.14 0 012.35-2.42 5.03 5.03 0 011.95-.36c1.51 0 2.7.45 3.55 1.36.86.9 1.3 2.2 1.3 3.92 0 1.55-.2 2.89-.6 4.02a8.37 8.37 0 01-1.58 2.82 6.8 6.8 0 01-2.29 1.72 8.1 8.1 0 01-2.73.72l-.57-2.04a6.6 6.6 0 001.97-.54 5.12 5.12 0 002.48-2.32c.26-.5.45-1.05.55-1.62-.31.35-.66.59-1.03.72s-.85.2-1.47.2c-.5 0-1-.09-1.51-.26a4.1 4.1 0 01-1.35-.78c-.38-.36-.7-.8-.95-1.34a4.74 4.74 0 01-.37-1.92zm2.52-.14c0 .76.22 1.33.64 1.72.43.39.97.58 1.6.58a3 3 0 001.34-.26c.35-.17.62-.39.8-.64a4.38 4.38 0 00-.08-1.9c-.09-.36-.24-.68-.43-.96-.2-.28-.44-.5-.75-.66-.29-.17-.64-.26-1.06-.26-.65 0-1.15.21-1.51.64-.37.41-.54 1-.54 1.74zM545.11 49.72h1.58v-6.58c.56-.1 1.14-.19 1.74-.24.6-.07 1.24-.1 1.9-.1.7 0 1.36.06 2 .18.64.12 1.2.34 1.68.66s.86.76 1.14 1.32c.3.56.44 1.28.44 2.16 0 .81-.14 1.5-.44 2.08a3.85 3.85 0 01-1.14 1.38c-.46.36-1 .62-1.6.78a7.1 7.1 0 01-1.84.24h-.72c-.28-.01-.5-.03-.64-.06v1.16h3.2v1.82h-3.2V57h-2.52v-2.48h-1.58V52.7h1.58v-1.16h-1.58v-1.82zm5.44-4.72c-.26 0-.52.01-.76.04-.24.01-.43.03-.58.06v4.52a4.4 4.4 0 002.06-.04c.34-.1.62-.24.86-.44s.43-.45.56-.76c.15-.32.22-.7.22-1.14 0-.81-.22-1.39-.66-1.72-.44-.35-1-.52-1.7-.52z" fill="#BC6F21"/><path d="M510.5 46.38c0-.68.1-1.3.3-1.88a4.14 4.14 0 012.34-2.42 5.04 5.04 0 011.97-.36c1.5 0 2.69.45 3.54 1.36.87.9 1.3 2.2 1.3 3.92 0 1.55-.2 2.89-.6 4.02a8.34 8.34 0 01-1.58 2.82 6.78 6.78 0 01-2.28 1.72c-.87.4-1.78.64-2.74.72l-.56-2.04a6.6 6.6 0 001.96-.54 5.08 5.08 0 002.48-2.32c.27-.5.45-1.05.56-1.62-.32.35-.67.59-1.04.72-.36.13-.85.2-1.46.2-.5 0-1.01-.09-1.52-.26-.5-.17-.94-.43-1.34-.78-.39-.36-.7-.8-.96-1.34a4.74 4.74 0 01-.36-1.92zm2.53-.14c0 .76.21 1.33.64 1.72.43.39.96.58 1.6.58a3 3 0 001.34-.26c.35-.17.61-.39.8-.64a4.34 4.34 0 00-.08-1.9c-.1-.36-.24-.68-.44-.96-.19-.28-.43-.5-.74-.66-.3-.17-.65-.26-1.06-.26-.65 0-1.16.21-1.52.64-.36.41-.54 1-.54 1.74zM521.86 46.38c0-.68.1-1.3.3-1.88a4.14 4.14 0 012.34-2.42 5.04 5.04 0 011.96-.36c1.5 0 2.68.45 3.54 1.36.86.9 1.3 2.2 1.3 3.92 0 1.55-.2 2.89-.6 4.02a8.35 8.35 0 01-1.58 2.82 6.78 6.78 0 01-2.28 1.72 8.1 8.1 0 01-2.74.72l-.56-2.04a6.6 6.6 0 001.96-.54 5.1 5.1 0 002.48-2.32c.26-.5.45-1.05.56-1.62-.32.35-.67.59-1.04.72-.36.13-.85.2-1.46.2-.51 0-1.02-.09-1.52-.26s-.94-.43-1.34-.78c-.39-.36-.71-.8-.96-1.34a4.74 4.74 0 01-.36-1.92zm2.52-.14c0 .76.21 1.33.64 1.72.42.39.96.58 1.6.58a3 3 0 001.34-.26c.34-.17.61-.39.8-.64a4.38 4.38 0 00-.08-1.9c-.1-.36-.24-.68-.44-.96-.19-.28-.44-.5-.74-.66-.3-.17-.65-.26-1.06-.26-.66 0-1.16.21-1.52.64-.36.41-.54 1-.54 1.74zM533.2 46.38c0-.68.1-1.3.3-1.88a4.14 4.14 0 012.35-2.42 5.03 5.03 0 011.95-.36c1.51 0 2.7.45 3.55 1.36.86.9 1.3 2.2 1.3 3.92 0 1.55-.2 2.89-.6 4.02a8.37 8.37 0 01-1.58 2.82 6.8 6.8 0 01-2.29 1.72 8.1 8.1 0 01-2.73.72l-.57-2.04a6.6 6.6 0 001.97-.54 5.12 5.12 0 002.48-2.32c.26-.5.45-1.05.55-1.62-.31.35-.66.59-1.03.72s-.85.2-1.47.2c-.5 0-1-.09-1.51-.26a4.1 4.1 0 01-1.35-.78c-.38-.36-.7-.8-.95-1.34a4.74 4.74 0 01-.37-1.92zm2.52-.14c0 .76.22 1.33.64 1.72.43.39.97.58 1.6.58a3 3 0 001.34-.26c.35-.17.62-.39.8-.64a4.38 4.38 0 00-.08-1.9c-.09-.36-.24-.68-.43-.96-.2-.28-.44-.5-.75-.66-.29-.17-.64-.26-1.06-.26-.65 0-1.15.21-1.51.64-.37.41-.54 1-.54 1.74zM544.11 48.72h1.58v-6.58c.56-.1 1.14-.19 1.74-.24.6-.07 1.24-.1 1.9-.1.7 0 1.36.06 2 .18.64.12 1.2.34 1.68.66s.86.76 1.14 1.32c.3.56.44 1.28.44 2.16 0 .81-.14 1.5-.44 2.08a3.85 3.85 0 01-1.14 1.38c-.46.36-1 .62-1.6.78a7.1 7.1 0 01-1.84.24h-.72c-.28-.01-.5-.03-.64-.06v1.16h3.2v1.82h-3.2V56h-2.52v-2.48h-1.58V51.7h1.58v-1.16h-1.58v-1.82zm5.44-4.72c-.26 0-.52.01-.76.04-.24.01-.43.03-.58.06v4.52a4.4 4.4 0 002.06-.04c.34-.1.62-.24.86-.44s.43-.45.56-.76c.15-.32.22-.7.22-1.14 0-.81-.22-1.39-.66-1.72-.44-.35-1-.52-1.7-.52zM43.92 41.55h-5.1V56H35.4V41.55h-5.13V38.5h13.65v3.05z" fill="#fff"/><path d="M42.58 44.22a14.63 14.63 0 015.25-.98c.87.01 1.6.12 2.18.33a3.11 3.11 0 012.1 2.25c.15.54.22 1.14.22 1.8 0 .74-.02 1.48-.07 2.23a28.78 28.78 0 00-.02 4.27c.04.67.17 1.3.37 1.9h-2.65l-.53-1.72h-.12c-.34.52-.8.97-1.4 1.35-.59.37-1.35.55-2.28.55-.58 0-1.1-.08-1.57-.25a3.66 3.66 0 01-1.2-.75 3.59 3.59 0 01-1.05-2.65c0-.77.16-1.4.5-1.93a3.7 3.7 0 011.47-1.27 7.03 7.03 0 012.3-.68c.9-.13 1.9-.17 3-.12.12-.93.05-1.6-.2-2-.25-.42-.8-.63-1.67-.63-.65 0-1.35.07-2.08.2-.72.14-1.3.31-1.77.53l-.78-2.43zm4.13 9.3c.65 0 1.16-.14 1.55-.42.38-.3.66-.62.85-.95v-1.63a9.08 9.08 0 00-1.5-.02c-.47.03-.89.1-1.25.22-.37.12-.66.29-.88.5-.22.22-.32.5-.32.83 0 .47.13.83.4 1.1.28.25.66.37 1.15.37zM55.06 43.5h2.37l.38 1.5h.1c.43-.63.94-1.1 1.52-1.4.6-.3 1.33-.45 2.18-.45 1.56 0 2.74.5 3.52 1.5.79.98 1.18 2.57 1.18 4.77 0 1.07-.13 2.04-.38 2.9a5.99 5.99 0 01-1.12 2.18 4.73 4.73 0 01-1.8 1.37c-.7.32-1.51.48-2.43.48a5.39 5.39 0 01-2.27-.48V61h-3.25V43.5zm5.57 2.4c-.63 0-1.13.16-1.5.47-.35.32-.62.8-.82 1.43V53c.23.18.48.33.75.45.28.1.65.15 1.1.15.93 0 1.63-.33 2.1-.98.46-.66.7-1.75.7-3.27 0-1.1-.19-1.95-.55-2.55-.37-.6-.96-.9-1.78-.9zM76.08 50.3l.13-1.78h-.08l-1.07 1.83L70.6 56h-2.05V43.5h3.25v5.95l-.15 1.7h.1l1.02-1.78 4.5-5.87h2.05V56h-3.25v-5.7zM87.9 56.15c-.28.1-.58.16-.9.17l-.82.03a4.12 4.12 0 01-3.5-1.63c-.81-1.08-1.22-2.74-1.22-4.97 0-2.13.45-3.75 1.35-4.85.9-1.1 2.2-1.65 3.9-1.65.46 0 .86.03 1.2.1V38.5h3.2v4.87a8.71 8.71 0 011.47-.12c1.65 0 2.9.5 3.73 1.47.83.97 1.25 2.56 1.25 4.78 0 1.05-.12 2-.35 2.85a6.37 6.37 0 01-.98 2.15 4.36 4.36 0 01-3.75 1.85 6.71 6.71 0 01-1.37-.18V61h-3.2v-4.85zm3.96-10.33a12.7 12.7 0 00-.9.13v7.75c.13.03.28.06.45.07h.57c.8 0 1.39-.32 1.75-.97.39-.67.58-1.77.58-3.3 0-1.3-.19-2.23-.55-2.8-.37-.58-1-.88-1.9-.88zm-4.83 7.95a4.55 4.55 0 001.03-.12v-7.73c-.32-.06-.64-.1-.98-.1-.76 0-1.36.3-1.77.9-.4.59-.6 1.6-.6 3.03 0 1.3.18 2.3.55 3a1.9 1.9 0 001.77 1.02zM110.16 49.47l3.85-5.4 1.77 1.4-2.02 3.05-1.15.98 1.15.87 2.17 3.03-1.77 1.4-4-5.33zm-4.85.05l4-5.75 1.97 1.55-2.17 3.15-1.2 1.03 1.2.9 2.33 3.1-1.98 1.55-4.15-5.53zM118.3 38.5h10.77v3.05h-7.35v3.65l1.02-.15a11.3 11.3 0 013.8.2c.79.18 1.45.5 2 .92.57.42 1.01.98 1.33 1.68.31.68.47 1.52.47 2.52 0 .99-.16 1.85-.5 2.58a4.6 4.6 0 01-1.4 1.82 6.2 6.2 0 01-2.2 1.1c-.85.25-1.8.38-2.87.38a28.86 28.86 0 01-2.43-.1 39.6 39.6 0 01-1.4-.13c-.47-.05-.88-.11-1.25-.2V38.5zm5.32 14.92c.43 0 .83-.05 1.2-.15.38-.11.71-.28 1-.5.28-.23.5-.52.67-.87.17-.35.25-.78.25-1.28 0-.6-.09-1.08-.27-1.45a2.07 2.07 0 00-.75-.85 2.67 2.67 0 00-1.1-.42 7.91 7.91 0 00-2.9.07v5.33c.18.05.45.08.82.1.38.02.74.02 1.08.02zM142.47 54.92c-.5.4-1.18.75-2.04 1.03-.86.27-1.76.4-2.73.4-2.02 0-3.5-.58-4.42-1.75-.94-1.18-1.4-2.8-1.4-4.85 0-2.2.52-3.85 1.57-4.95s2.53-1.65 4.43-1.65c.63 0 1.25.08 1.84.25a4.07 4.07 0 012.72 2.38c.3.64.44 1.45.44 2.42 0 .35-.03.72-.08 1.12-.03.4-.1.82-.18 1.25h-7.5a3.7 3.7 0 00.8 2.38c.5.53 1.3.8 2.4.8a5.18 5.18 0 003.08-.95l1.07 2.12zm-4.65-9.17c-.84 0-1.48.26-1.9.77-.4.5-.64 1.18-.72 2.03h4.65c.07-.9-.07-1.6-.42-2.08-.34-.48-.87-.72-1.6-.72zM153.9 55.22c-.5.37-1.11.65-1.83.83-.7.2-1.42.3-2.17.3-1 0-1.85-.16-2.55-.48a4.4 4.4 0 01-1.68-1.32 5.79 5.79 0 01-.95-2.1c-.18-.82-.27-1.72-.27-2.7 0-2.12.47-3.74 1.42-4.88.95-1.15 2.34-1.72 4.15-1.72a7.44 7.44 0 013.72.8l-.77 2.65a6.43 6.43 0 00-1.15-.43c-.36-.1-.79-.15-1.27-.15-.9 0-1.59.3-2.05.9-.47.59-.7 1.53-.7 2.83 0 .53.06 1.02.17 1.47.12.45.3.85.53 1.18.23.33.53.6.9.8.38.18.82.27 1.32.27.55 0 1.02-.06 1.4-.2.39-.15.73-.32 1.03-.52l.75 2.47zM159.99 50.82h-.88V56h-3.25V43.5h3.25v5.32l.78-.35 2.92-4.97h3.48l-3.03 4.75-1.27.95 1.4.97 3.37 5.83h-3.72l-3.05-5.18zM167.18 49.75c0-2.12.51-3.74 1.55-4.88 1.03-1.15 2.48-1.72 4.35-1.72 1 0 1.86.16 2.6.47a4.8 4.8 0 011.82 1.35c.49.57.84 1.26 1.08 2.08.25.82.37 1.72.37 2.7 0 2.12-.51 3.75-1.55 4.9-1.01 1.13-2.46 1.7-4.32 1.7-1 0-1.87-.16-2.6-.48a5.16 5.16 0 01-1.85-1.32 6 6 0 01-1.1-2.1 9.82 9.82 0 01-.35-2.7zm3.35 0c0 .55.05 1.06.15 1.52.1.47.25.88.45 1.23s.46.62.77.82c.34.19.73.28 1.18.28.85 0 1.48-.3 1.9-.93.41-.61.62-1.59.62-2.92 0-1.15-.19-2.08-.57-2.78-.39-.71-1.04-1.07-1.95-1.07-.8 0-1.43.3-1.88.9-.45.6-.67 1.58-.67 2.95zM188.53 51.1h-4.07V56h-3.25V43.5h3.25v4.7h4.07v-4.7h3.25V56h-3.25v-4.9zM204.63 54.92c-.5.4-1.18.75-2.05 1.03-.85.27-1.76.4-2.72.4-2.02 0-3.5-.58-4.43-1.75-.93-1.18-1.4-2.8-1.4-4.85 0-2.2.53-3.85 1.58-4.95s2.52-1.65 4.42-1.65c.64 0 1.25.08 1.85.25a4.05 4.05 0 012.72 2.38c.3.64.43 1.45.43 2.42 0 .35-.02.72-.07 1.12-.03.4-.1.82-.18 1.25h-7.5a3.7 3.7 0 00.8 2.38c.5.53 1.3.8 2.4.8a5.17 5.17 0 003.08-.95l1.07 2.12zm-4.65-9.17c-.85 0-1.48.26-1.9.77-.4.5-.64 1.18-.72 2.03H202c.06-.9-.08-1.6-.43-2.08-.33-.48-.86-.72-1.6-.72zM209.98 43.5v2.85c0 .52.02.97.05 1.35.05.37.13.67.25.92.13.24.3.41.52.53.24.12.54.17.9.17a3.96 3.96 0 002.15-.6V43.5h3.25V56h-3.25v-4.9c-.25.18-.63.4-1.15.62-.51.22-1.2.33-2.07.33-.62 0-1.17-.07-1.65-.2s-.9-.37-1.23-.7c-.33-.33-.59-.78-.77-1.33a7.3 7.3 0 01-.25-2.07V43.5h3.25zM227.28 51.1h-4.08V56h-3.25V43.5h3.25v4.7h4.08v-4.7h3.25V56h-3.25v-4.9zM236.63 53.27c.5.1.97.15 1.42.15.75 0 1.28-.13 1.58-.4.3-.28.45-.71.45-1.3 0-.53-.15-.93-.45-1.2-.3-.28-.8-.42-1.5-.42-.55 0-1.05.06-1.5.17v3zm0-5.32c.4-.07.8-.1 1.2-.13.41-.03.79-.05 1.12-.05.85 0 1.56.1 2.13.3.56.19 1.02.45 1.37.8a3 3 0 01.75 1.25 5.93 5.93 0 01-.08 3.5c-.2.57-.52 1.05-.97 1.43-.45.37-1.03.65-1.75.85-.71.18-1.6.27-2.65.27a52.98 52.98 0 01-4.37-.17V43.5h3.25v4.45zm8.22-4.45h3.25V56h-3.25V43.5zM258.48 50.3l.13-1.78h-.08l-1.07 1.83L253 56h-2.05V43.5h3.25v5.95l-.15 1.7h.1l1.02-1.78 4.5-5.87h2.05V56h-3.25v-5.7zm-3.47-11.9c.11.65.3 1.1.57 1.37.28.27.64.4 1.08.4.46 0 .83-.13 1.1-.4.28-.26.47-.71.57-1.35l2.48.63c-.2 1.08-.7 1.9-1.48 2.42s-1.7.78-2.75.78c-.52 0-1.02-.06-1.5-.18-.48-.11-.92-.3-1.3-.55-.38-.26-.7-.6-.97-1s-.45-.89-.55-1.47l2.75-.65zM270.9 43.5h2.38l.37 1.5h.1c.44-.63.94-1.1 1.53-1.4.6-.3 1.32-.45 2.17-.45 1.57 0 2.74.5 3.53 1.5.78.98 1.17 2.57 1.17 4.77 0 1.07-.12 2.04-.37 2.9a5.99 5.99 0 01-1.13 2.18 4.73 4.73 0 01-1.8 1.37c-.7.32-1.5.48-2.42.48a5.4 5.4 0 01-2.28-.48V61h-3.25V43.5zm5.58 2.4c-.64 0-1.14.16-1.5.47-.35.32-.63.8-.83 1.43V53c.24.18.49.33.75.45.29.1.65.15 1.1.15.94 0 1.64-.33 2.1-.98.47-.66.7-1.75.7-3.27a4.9 4.9 0 00-.55-2.55c-.36-.6-.96-.9-1.77-.9zM284.33 44.22a14.64 14.64 0 015.25-.98c.87.01 1.59.12 2.17.33a3.1 3.1 0 012.1 2.25c.15.54.23 1.14.23 1.8 0 .74-.03 1.48-.08 2.23a28.78 28.78 0 00-.02 4.27c.05.67.17 1.3.37 1.9h-2.65l-.52-1.72h-.13c-.33.52-.8.97-1.4 1.35-.58.37-1.34.55-2.27.55a3.68 3.68 0 01-2.77-1 3.6 3.6 0 01-1.06-2.65c0-.77.17-1.4.5-1.93a3.7 3.7 0 011.48-1.27 7.04 7.04 0 012.3-.68c.9-.13 1.9-.17 3-.12.12-.93.05-1.6-.2-2-.25-.42-.81-.63-1.68-.63-.65 0-1.34.07-2.07.2-.72.14-1.31.31-1.78.53l-.77-2.43zm4.12 9.3c.65 0 1.17-.14 1.55-.42.39-.3.67-.62.85-.95v-1.63a9.08 9.08 0 00-1.5-.02c-.46.03-.88.1-1.25.22-.36.12-.66.29-.87.5-.22.22-.33.5-.33.83 0 .47.14.83.4 1.1.29.25.67.37 1.15.37zM298.1 50.82v-2.27h1.53c.58 0 1.06-.12 1.43-.35.38-.23.57-.54.57-.93 0-.45-.17-.76-.5-.95-.33-.2-.84-.3-1.52-.3a5.45 5.45 0 00-2.93.78l-.7-2.48a10.49 10.49 0 014.63-1.05c1.43 0 2.5.27 3.2.8.71.54 1.07 1.31 1.07 2.33a3.28 3.28 0 01-1.1 2.42c-.23.2-.52.36-.85.48v.1c.88.2 1.5.56 1.88 1.07.36.5.55 1.18.55 2.03a3.18 3.18 0 01-1.32 2.68c-.44.33-1 .6-1.66.8-.67.2-1.46.3-2.37.3-.92 0-1.72-.1-2.4-.28a8.5 8.5 0 01-1.68-.68l.7-2.52c.38.22.84.4 1.38.52.55.14 1.15.2 1.82.2 1.52 0 2.28-.48 2.28-1.45a1 1 0 00-.6-.95 5.3 5.3 0 00-2.18-.3h-1.22zM315.67 46.37h-4.72V56h-3.35V43.5h8.07v2.87zM316.2 49.75c0-2.12.52-3.74 1.55-4.88 1.03-1.15 2.48-1.72 4.35-1.72 1 0 1.87.16 2.6.47a4.8 4.8 0 011.83 1.35c.48.57.84 1.26 1.07 2.08.25.82.38 1.72.38 2.7 0 2.12-.52 3.75-1.55 4.9-1.02 1.13-2.46 1.7-4.33 1.7-1 0-1.87-.16-2.6-.48a5.16 5.16 0 01-1.85-1.32 6 6 0 01-1.1-2.1 9.82 9.82 0 01-.35-2.7zm3.35 0c0 .55.05 1.06.15 1.52.1.47.25.88.45 1.23s.46.62.78.82c.33.19.72.28 1.17.28.85 0 1.48-.3 1.9-.93.42-.61.63-1.59.63-2.92 0-1.15-.2-2.08-.58-2.78-.38-.71-1.03-1.07-1.95-1.07-.8 0-1.42.3-1.87.9-.45.6-.68 1.58-.68 2.95zM330.23 43.52l2.1-.15c.83-.05 1.72-.07 2.67-.07 1.84 0 3.14.27 3.9.8.79.52 1.18 1.3 1.18 2.35 0 .58-.17 1.15-.5 1.7-.33.55-.86.95-1.58 1.2v.1c.9.2 1.55.56 1.95 1.07.4.5.6 1.15.6 1.95a3.1 3.1 0 01-1.45 2.8c-.95.62-2.48.93-4.6.93a35 35 0 01-2.22-.08 29.2 29.2 0 01-2.05-.15V43.52zm3.17 9.98a11.21 11.21 0 001.4.1c.9 0 1.55-.13 1.93-.38.38-.25.57-.63.57-1.15 0-.43-.16-.78-.5-1.05-.31-.28-.89-.42-1.72-.42h-1.68v2.9zm1.73-4.9c.53 0 .97-.13 1.3-.38.35-.26.52-.6.52-1 0-.43-.15-.75-.45-.97-.28-.23-.8-.35-1.57-.35a13.54 13.54 0 00-1.53.07v2.63h1.73zM342.25 49.75c0-2.12.52-3.74 1.55-4.88 1.03-1.15 2.48-1.72 4.35-1.72 1 0 1.87.16 2.6.47a4.8 4.8 0 011.83 1.35c.48.57.84 1.26 1.07 2.08.25.82.38 1.72.38 2.7 0 2.12-.52 3.75-1.55 4.9-1.02 1.13-2.46 1.7-4.33 1.7-1 0-1.87-.16-2.6-.48a5.15 5.15 0 01-1.85-1.32 5.99 5.99 0 01-1.1-2.1 9.78 9.78 0 01-.35-2.7zm3.35 0c0 .55.05 1.06.15 1.52.1.47.25.88.45 1.23s.46.62.78.82c.33.19.72.28 1.17.28.85 0 1.48-.3 1.9-.93.42-.61.63-1.59.63-2.92 0-1.15-.2-2.08-.58-2.78-.38-.71-1.03-1.07-1.95-1.07-.8 0-1.42.3-1.87.9-.45.6-.68 1.58-.68 2.95zM356.28 43.5h2.37l.38 1.5h.1c.43-.63.94-1.1 1.52-1.4.6-.3 1.33-.45 2.18-.45 1.56 0 2.74.5 3.52 1.5.79.98 1.18 2.57 1.18 4.77 0 1.07-.13 2.04-.38 2.9a5.99 5.99 0 01-1.12 2.18 4.73 4.73 0 01-1.8 1.37c-.7.32-1.51.48-2.43.48a5.4 5.4 0 01-2.27-.48V61h-3.25V43.5zm5.57 2.4c-.63 0-1.13.16-1.5.47-.35.32-.62.8-.82 1.43V53c.23.18.48.33.75.45.28.1.65.15 1.1.15.93 0 1.63-.33 2.1-.98.46-.66.7-1.75.7-3.27a4.9 4.9 0 00-.55-2.55c-.37-.6-.96-.9-1.78-.9zM374.95 49.35l-3.82 5.4-1.8-1.4 2.05-3.05 1.12-.98-1.12-.87-2.18-3.03 1.75-1.4 4 5.33zm4.88-.05l-4 5.75-1.98-1.55 2.18-3.15 1.2-1.03-1.2-.9-2.33-3.1 1.98-1.55 4.15 5.53zM40.27 91.22c-.5.37-1.1.65-1.82.83-.7.2-1.43.3-2.18.3-1 0-1.85-.16-2.55-.48a4.4 4.4 0 01-1.67-1.32 5.79 5.79 0 01-.95-2.1c-.18-.82-.28-1.72-.28-2.7 0-2.12.48-3.74 1.43-4.88.95-1.15 2.33-1.72 4.15-1.72a7.45 7.45 0 013.72.8l-.77 2.65a6.43 6.43 0 00-1.15-.43c-.37-.1-.8-.15-1.28-.15-.9 0-1.58.3-2.05.9-.46.59-.7 1.53-.7 2.83 0 .53.06 1.02.18 1.47.12.45.3.85.52 1.18.24.33.54.6.9.8.39.18.83.27 1.33.27.55 0 1.02-.06 1.4-.2.38-.15.72-.32 1.02-.52l.75 2.47zM59.99 94.85H57.6L57.24 92h-8.4l-.38 2.85H46.1v-5.73h1.47c.14-.18.3-.49.5-.92.22-.45.43-1.06.63-1.83.21-.76.4-1.71.55-2.85.15-1.13.22-2.47.22-4.02h8.7v9.62H60v5.73zm-5.08-5.58v-7.02H52.3a29.45 29.45 0 01-.5 3.87c-.12.64-.26 1.23-.43 1.78-.16.55-.35 1-.55 1.37h4.1zM61.17 85.75c0-2.12.52-3.74 1.55-4.88 1.03-1.15 2.48-1.72 4.35-1.72 1 0 1.87.16 2.6.47a4.8 4.8 0 011.83 1.35c.48.57.84 1.26 1.07 2.08.25.82.38 1.72.38 2.7 0 2.12-.52 3.75-1.55 4.9-1.02 1.13-2.46 1.7-4.33 1.7-1 0-1.87-.16-2.6-.48a5.15 5.15 0 01-1.85-1.32 6 6 0 01-1.1-2.1 9.8 9.8 0 01-.35-2.7zm3.35 0c0 .55.05 1.06.15 1.52.1.47.25.88.45 1.23s.46.62.78.82c.33.19.72.28 1.17.28.85 0 1.48-.3 1.9-.93.42-.61.63-1.59.63-2.92 0-1.15-.2-2.08-.58-2.78-.38-.71-1.03-1.07-1.95-1.07-.8 0-1.42.3-1.87.9-.45.6-.68 1.58-.68 2.95zM82.4 82.37h-3.95V92H75.2V79.5h10.45V92H82.4v-9.63zM87.9 85.75c0-2.12.52-3.74 1.55-4.88 1.04-1.15 2.49-1.72 4.36-1.72 1 0 1.86.16 2.6.47a4.8 4.8 0 011.82 1.35c.48.57.84 1.26 1.08 2.08.25.82.37 1.72.37 2.7 0 2.12-.52 3.75-1.55 4.9-1.02 1.13-2.46 1.7-4.32 1.7-1 0-1.87-.16-2.6-.48a5.15 5.15 0 01-1.85-1.32 6 6 0 01-1.1-2.1 9.8 9.8 0 01-.36-2.7zm3.35 0c0 .55.06 1.06.16 1.52.1.47.25.88.45 1.23s.45.62.77.82c.33.19.73.28 1.18.28.84 0 1.48-.3 1.9-.93.41-.61.62-1.59.62-2.92 0-1.15-.2-2.08-.58-2.78-.38-.71-1.03-1.07-1.94-1.07-.8 0-1.43.3-1.88.9-.45.6-.68 1.58-.68 2.95zM108.73 82.37h-2.47c-.1 1.19-.22 2.36-.35 3.53a16.45 16.45 0 01-.65 3.15 6.26 6.26 0 01-1.18 2.25c-.5.57-1.15.85-1.95.85-.96 0-1.65-.13-2.05-.38l.4-2.7c.27.1.52.15.75.15.34 0 .63-.14.88-.42.25-.28.46-.8.62-1.53.19-.73.33-1.72.43-2.97.11-1.27.2-2.87.25-4.8h8.57V92h-3.25v-9.63zM122.12 87.1h-4.07V92h-3.25V79.5h3.25v4.7h4.07v-4.7h3.25V92h-3.25v-4.9zM135.75 86.3l.13-1.78h-.08l-1.07 1.83-4.45 5.65h-2.05V79.5h3.25v5.95l-.15 1.7h.1l1.02-1.78 4.5-5.87H139V92h-3.25v-5.7zM150.85 82.37h-3.47V92h-3.35v-9.63h-3.58V79.5h10.4v2.87zM162.1 90.92c-.5.4-1.18.75-2.05 1.03-.85.27-1.76.4-2.72.4-2.02 0-3.5-.58-4.43-1.75-.93-1.18-1.4-2.8-1.4-4.85 0-2.2.53-3.85 1.58-4.95s2.52-1.65 4.42-1.65c.64 0 1.25.08 1.85.25a4.07 4.07 0 012.72 2.38c.3.64.43 1.45.43 2.42a12.1 12.1 0 01-.25 2.38h-7.5a3.7 3.7 0 00.8 2.37c.5.53 1.3.8 2.4.8a5.18 5.18 0 003.08-.95l1.07 2.12zm-4.65-9.17c-.85 0-1.48.26-1.9.77-.4.5-.64 1.18-.72 2.03h4.65c.06-.9-.08-1.6-.43-2.08-.33-.48-.86-.72-1.6-.72zM171.33 82.37h-2.48c-.1 1.19-.21 2.36-.34 3.53a16.37 16.37 0 01-.66 3.15 6.24 6.24 0 01-1.17 2.25c-.5.57-1.15.85-1.95.85a4.1 4.1 0 01-2.05-.38l.4-2.7c.27.1.52.15.75.15.33 0 .63-.14.88-.42.25-.28.45-.8.62-1.53a19 19 0 00.42-2.97c.12-1.27.2-2.87.25-4.8h8.58V92h-3.25v-9.63zM180.65 89.27c.5.1.97.15 1.42.15.8 0 1.38-.13 1.73-.4.36-.28.55-.71.55-1.3 0-1.08-.74-1.62-2.2-1.62-.55 0-1.05.06-1.5.17v3zm0-5.32c.4-.07.8-.1 1.2-.13.41-.03.79-.05 1.12-.05.87 0 1.6.1 2.2.3.6.19 1.09.45 1.45.8a3 3 0 01.83 1.25c.16.47.25.98.25 1.53 0 1.52-.45 2.65-1.35 3.4-.9.75-2.43 1.12-4.58 1.12a52.98 52.98 0 01-4.37-.17V79.5h3.25v4.45zM196.98 87.1h-4.08V92h-3.25V79.5h3.25v4.7h4.08v-4.7h3.25V92h-3.25v-4.9zM206.33 89.27c.5.1.97.15 1.42.15.75 0 1.28-.13 1.58-.4.3-.28.45-.71.45-1.3 0-.53-.15-.93-.45-1.2-.3-.28-.8-.42-1.5-.42-.55 0-1.05.06-1.5.17v3zm0-5.32c.4-.07.8-.1 1.2-.13.42-.03.8-.05 1.13-.05.84 0 1.55.1 2.12.3.57.19 1.03.45 1.38.8a3 3 0 01.75 1.25 5.93 5.93 0 01-.07 3.5c-.21.57-.53 1.05-.99 1.43-.44.37-1.03.65-1.75.85-.71.18-1.6.27-2.64.27a52.98 52.98 0 01-4.38-.17V79.5h3.25v4.45zm8.22-4.45h3.25V92h-3.25V79.5zM231.36 86.27l.2-2.6h-.13l-1 2.15-2.35 3.88h-1.17l-2.58-3.88-.95-2.15h-.15l.33 2.58V92h-2.9V79.5h3.37l2.88 4.7.7 1.57h.1l.72-1.62 2.65-4.65h3.4V92h-3.12v-5.73zM250.83 82.37h-3.95V92h-3.25V79.5h10.45V92h-3.25v-9.63zM256.86 80.22a14.63 14.63 0 015.25-.98c.87.01 1.6.12 2.18.33a3.12 3.12 0 012.1 2.25c.15.54.22 1.14.22 1.8 0 .74-.02 1.48-.07 2.23a28.78 28.78 0 00-.03 4.27c.05.67.18 1.3.38 1.9h-2.65l-.53-1.72h-.12c-.34.52-.8.97-1.4 1.35-.59.37-1.34.55-2.28.55-.58 0-1.1-.08-1.57-.25a3.66 3.66 0 01-1.2-.75 3.57 3.57 0 01-1.05-2.65c0-.77.16-1.4.5-1.93.35-.53.84-.95 1.47-1.27a7.03 7.03 0 012.3-.68c.9-.13 1.9-.17 3-.12.12-.93.05-1.6-.2-2-.25-.42-.8-.63-1.67-.63-.65 0-1.34.07-2.08.2-.71.14-1.3.31-1.77.53l-.78-2.43zm4.13 9.3c.65 0 1.16-.14 1.55-.42.38-.3.66-.62.85-.95v-1.63a9.08 9.08 0 00-1.5-.02c-.47.03-.89.1-1.25.22-.37.12-.66.29-.88.5-.21.22-.32.5-.32.83 0 .47.13.83.4 1.1.28.25.66.37 1.15.37zM273.46 86.82h-.87V92h-3.25V79.5h3.25v5.32l.78-.35 2.92-4.97h3.47l-3.02 4.75-1.28.95 1.4.97 3.38 5.83h-3.73l-3.05-5.18zM291.25 90.92c-.5.4-1.18.75-2.05 1.03-.85.27-1.75.4-2.72.4-2.02 0-3.5-.58-4.43-1.75-.93-1.18-1.4-2.8-1.4-4.85 0-2.2.53-3.85 1.58-4.95s2.52-1.65 4.42-1.65c.64 0 1.25.08 1.85.25a4.05 4.05 0 012.72 2.38c.3.64.43 1.45.43 2.42 0 .35-.02.72-.07 1.12-.03.4-.1.82-.18 1.25h-7.5a3.7 3.7 0 00.8 2.38c.5.53 1.3.8 2.4.8a5.17 5.17 0 003.08-.95l1.07 2.12zm-4.65-9.17c-.85 0-1.48.26-1.9.77-.4.5-.64 1.18-.72 2.03h4.65c.07-.9-.08-1.6-.43-2.08-.33-.48-.86-.72-1.6-.72zM302.95 82.37h-3.48V92h-3.35v-9.63h-3.57V79.5h10.4v2.87zM303.6 85.75c0-2.12.52-3.74 1.55-4.88 1.04-1.15 2.49-1.72 4.35-1.72 1 0 1.87.16 2.6.47a4.8 4.8 0 011.83 1.35c.48.57.84 1.26 1.07 2.08.25.82.38 1.72.38 2.7 0 2.12-.52 3.75-1.55 4.9-1.02 1.13-2.46 1.7-4.33 1.7-1 0-1.86-.16-2.6-.48a5.16 5.16 0 01-1.85-1.32 6 6 0 01-1.1-2.1 9.82 9.82 0 01-.35-2.7zm3.35 0c0 .55.05 1.06.15 1.52.1.47.25.88.45 1.23s.46.62.78.82c.33.19.72.28 1.17.28.85 0 1.49-.3 1.9-.93.42-.61.63-1.59.63-2.92 0-1.15-.2-2.08-.58-2.78-.38-.71-1.03-1.07-1.95-1.07-.8 0-1.42.3-1.87.9-.45.6-.68 1.58-.68 2.95zM328.33 86.27l.2-2.6h-.12l-1 2.15-2.35 3.88h-1.18l-2.57-3.88-.95-2.15h-.15l.32 2.58V92h-2.9V79.5h3.38l2.87 4.7.7 1.57h.1l.73-1.62 2.65-4.65h3.4V92h-3.13v-5.73zM352.21 91.27c-.53.39-1.21.66-2.05.83-.81.17-1.66.25-2.52.25a9.42 9.42 0 01-3-.48 6.61 6.61 0 01-2.48-1.57 8.05 8.05 0 01-1.72-2.83 12.63 12.63 0 01-.63-4.22c0-1.72.24-3.15.7-4.3a7.9 7.9 0 011.85-2.8 6.73 6.73 0 012.55-1.53 8.67 8.67 0 012.8-.47c1 0 1.84.07 2.53.2.7.13 1.27.3 1.72.47l-.67 2.9a4.95 4.95 0 00-1.38-.4 12.2 12.2 0 00-1.9-.12c-1.38 0-2.5.5-3.35 1.47-.83.99-1.25 2.51-1.25 4.58 0 .9.1 1.72.3 2.47.2.74.5 1.37.9 1.9.42.52.93.93 1.53 1.23.61.28 1.32.42 2.12.42a6.9 6.9 0 001.9-.22c.52-.15.97-.34 1.35-.58l.7 2.8zM367.9 82.92l.38-3.47h-.15l-1.08 2.8-3.72 6.52h-1.1l-3.93-6.55-1.1-2.77h-.12l.5 3.45V92h-3.25V74.5h3.12l4.68 8 .82 2h.1l.75-2.05 4.43-7.95h3.1V92h-3.43v-9.08zM386.17 91.27c-.53.39-1.22.66-2.05.83-.81.17-1.66.25-2.52.25a9.42 9.42 0 01-3-.48 6.61 6.61 0 01-2.48-1.57 8.03 8.03 0 01-1.72-2.83 12.63 12.63 0 01-.63-4.22c0-1.72.24-3.15.7-4.3a7.9 7.9 0 011.85-2.8 6.73 6.73 0 012.55-1.53 8.67 8.67 0 012.8-.47c1 0 1.84.07 2.53.2.7.13 1.27.3 1.72.47l-.67 2.9a4.96 4.96 0 00-1.38-.4 12.2 12.2 0 00-1.9-.12c-1.38 0-2.5.5-3.35 1.47-.83.99-1.25 2.51-1.25 4.58 0 .9.1 1.72.3 2.47.2.74.5 1.37.9 1.9.42.52.93.93 1.53 1.23.61.28 1.32.42 2.12.42a6.9 6.9 0 001.9-.22c.52-.15.97-.34 1.35-.58l.7 2.8z" fill="#fff"/><path d="M30 30h444v72H30V30z" fill="#F366FF" fill-opacity=".2"/><path fill-rule="evenodd" clip-rule="evenodd" d="M473 31H31v70h442V31zM30 30v72h444V30H30z" fill="#F366FF"/><path d="M30 122h260v195H30V122z" fill="#73C86A" fill-opacity=".2"/><path fill-rule="evenodd" clip-rule="evenodd" d="M289 123H31v193h258V123zm-259-1v195h260V122H30z" fill="#73C86A"/><path d="M494 30h76v72h-76V30z" fill="#FE4D4D" fill-opacity=".2"/><path fill-rule="evenodd" clip-rule="evenodd" d="M569 31h-74v70h74V31zm-75-1v72h76V30h-76z" fill="#FE4D4D"/><path d="M310 252h260v65H310v-65z" fill="#80C1FF" fill-opacity=".2"/><path fill-rule="evenodd" clip-rule="evenodd" d="M569 253H311v63h258v-63zm-259-1v65h260v-65H310z" fill="#80C1FF"/><path fill-rule="evenodd" clip-rule="evenodd" d="M29 29h2.48v1H30v1.53h-1V29zm10.39 1h-3.96v-1h3.96v1zm7.9 0h-3.95v-1h3.96v1zm7.91 0h-3.95v-1h3.95v1zm7.91 0h-3.95v-1h3.95v1zm7.91 0h-3.95v-1h3.95v1zm7.91 0h-3.95v-1h3.95v1zm7.91 0H82.9v-1h3.95v1zm7.91 0H90.8v-1h3.95v1zm7.9 0H98.7v-1h3.96v1zm7.92 0h-3.96v-1h3.96v1zm7.9 0h-3.95v-1h3.96v1zm7.92 0h-3.96v-1h3.96v1zm7.9 0h-3.95v-1h3.95v1zm7.92 0h-3.96v-1h3.96v1zm7.9 0h-3.95v-1h3.95v1zm7.91 0h-3.95v-1h3.95v1zm7.91 0h-3.95v-1h3.95v1zm7.91 0h-3.95v-1h3.95v1zm7.91 0h-3.96v-1h3.96v1zm7.9 0h-3.94v-1h3.95v1zm7.92 0h-3.96v-1h3.96v1zm7.9 0h-3.95v-1h3.96v1zm7.92 0h-3.96v-1h3.96v1zm7.9 0h-3.95v-1h3.95v1zm7.91 0h-3.95v-1h3.95v1zm7.91 0h-3.95v-1h3.95v1zm7.91 0h-3.95v-1h3.95v1zm7.91 0h-3.95v-1h3.95v1zm7.91 0h-3.95v-1h3.95v1zm7.91 0h-3.95v-1h3.95v1zm7.9 0h-3.95v-1h3.96v1zm7.92 0h-3.96v-1h3.96v1zm5.43 0h-1.48v-1h4.36v1H291v1.53h-1V30zm12.38 0h-4.75v-1h4.75v1zm6.62 0h-1.88v-1h4.34v1H310v1.53h-1V30zm10.32 0h-3.93v-1h3.93v1zm7.86 0h-3.93v-1h3.93v1zm7.86 0h-3.93v-1h3.93v1zm7.85 0h-3.93v-1h3.93v1zm7.86 0h-3.93v-1h3.93v1zm7.86 0h-3.93v-1h3.93v1zm7.85 0h-3.92v-1h3.92v1zm7.86 0h-3.93v-1h3.93v1zm7.86 0h-3.93v-1h3.93v1zm7.86 0h-3.93v-1h3.93v1zm7.85 0h-3.93v-1h3.93v1zm7.86 0h-3.93v-1h3.93v1zm7.86 0h-3.93v-1h3.93v1zm7.85 0h-3.92v-1h3.92v1zm7.86 0h-3.93v-1h3.93v1zm7.86 0h-3.93v-1h3.93v1zm7.86 0h-3.93v-1h3.93v1zm7.85 0h-3.93v-1h3.93v1zm7.86 0h-3.93v-1h3.93v1zm7.86 0h-3.93v-1h3.93v1zm5.39 0h-1.46v-1h4.33v1H475v1.53h-1V30zm12.38 0h-4.75v-1h4.75v1zm6.62 0h-1.88v-1h4.3v1H494v1.53h-1V30zm10.13 0h-3.86v-1h3.86v1zm7.7 0h-3.85v-1h3.84v1zm7.7 0h-3.86v-1h3.86v1zm7.7 0h-3.86v-1h3.86v1zm7.7 0h-3.85v-1h3.84v1zm7.7 0h-3.86v-1h3.86v1zm7.7 0h-3.86v-1h3.86v1zm7.7 0h-3.86v-1h3.86v1zm7.7 0h-3.86v-1h3.86v1zm5.27 0h-1.42v-1H571v2.53h-1V30zM30 35.58v4.06h-1v-4.06h1zm260 4.06v-4.06h1v4.06h-1zm19 0v-4.06h1v4.06h-1zm165 0v-4.06h1v4.06h-1zm19 0v-4.06h1v4.06h-1zm77 0v-4.06h1v4.06h-1zM30 43.69v4.06h-1v-4.06h1zm260 4.06v-4.06h1v4.06h-1zm19 0v-4.06h1v4.06h-1zm165 0v-4.06h1v4.06h-1zm19 0v-4.06h1v4.06h-1zm77 0v-4.06h1v4.06h-1zM30 51.81v4.05h-1v-4.05h1zm260 4.05v-4.05h1v4.05h-1zm19 0v-4.05h1v4.05h-1zm165 0v-4.05h1v4.05h-1zm19 0v-4.05h1v4.05h-1zm77 0v-4.05h1v4.05h-1zM30 59.92v4.05h-1v-4.05h1zm260 4.05v-4.05h1v4.05h-1zm19 0v-4.05h1v4.05h-1zm165 0v-4.05h1v4.05h-1zm19 0v-4.05h1v4.05h-1zm77 0v-4.05h1v4.05h-1zM30 68.03v4.05h-1v-4.05h1zm260 4.05v-4.05h1v4.05h-1zm19 0v-4.05h1v4.05h-1zm165 0v-4.05h1v4.05h-1zm19 0v-4.05h1v4.05h-1zm77 0v-4.05h1v4.05h-1zM30 76.14v4.05h-1v-4.05h1zm260 4.05v-4.05h1v4.05h-1zm19 0v-4.05h1v4.05h-1zm165 0v-4.05h1v4.05h-1zm19 0v-4.05h1v4.05h-1zm77 0v-4.05h1v4.05h-1zM30 84.25v4.06h-1v-4.06h1zm260 4.06v-4.06h1v4.06h-1zm19 0v-4.06h1v4.06h-1zm165 0v-4.06h1v4.06h-1zm19 0v-4.06h1v4.06h-1zm77 0v-4.06h1v4.06h-1zM30 92.36v4.06h-1v-4.06h1zm260 4.06v-4.06h1v4.06h-1zm19 0v-4.06h1v4.06h-1zm165 0v-4.06h1v4.06h-1zm19 0v-4.06h1v4.06h-1zm77 0v-4.06h1v4.06h-1zM30 102v-1.53h-1v4.4h1V103h1.48v-1H30zm260 0v-1.53h1V102h1.88v1H291v1.88h-1V103h-1.48v-1H290zm19 0v-1.53h1V102h1.46v1H310v1.88h-1V103h-1.88v-1H309zm165 0v-1.53h1V102h1.88v1H475v1.88h-1V103h-1.46v-1H474zm19 0v-1.53h1V102h1.43v1H494v1.88h-1V103h-1.88v-1H493zm77 0v-1.53h1v4.4h-1V103h-1.42v-1H570zm-530.61 1h-3.96v-1h3.96v1zm7.9 0h-3.95v-1h3.96v1zm7.91 0h-3.95v-1h3.95v1zm7.91 0h-3.95v-1h3.95v1zm7.91 0h-3.95v-1h3.95v1zm7.91 0h-3.95v-1h3.95v1zm7.91 0H82.9v-1h3.95v1zm7.91 0H90.8v-1h3.95v1zm7.9 0H98.7v-1h3.96v1zm7.92 0h-3.96v-1h3.96v1zm7.9 0h-3.95v-1h3.96v1zm7.92 0h-3.96v-1h3.96v1zm7.9 0h-3.95v-1h3.95v1zm7.92 0h-3.96v-1h3.96v1zm7.9 0h-3.95v-1h3.95v1zm7.91 0h-3.95v-1h3.95v1zm7.91 0h-3.95v-1h3.95v1zm7.91 0h-3.95v-1h3.95v1zm7.91 0h-3.96v-1h3.96v1zm7.9 0h-3.94v-1h3.95v1zm7.92 0h-3.96v-1h3.96v1zm7.9 0h-3.95v-1h3.96v1zm7.92 0h-3.96v-1h3.96v1zm7.9 0h-3.95v-1h3.95v1zm7.91 0h-3.95v-1h3.95v1zm7.91 0h-3.95v-1h3.95v1zm7.91 0h-3.95v-1h3.95v1zm7.91 0h-3.95v-1h3.95v1zm7.91 0h-3.95v-1h3.95v1zm7.91 0h-3.95v-1h3.95v1zm7.9 0h-3.95v-1h3.96v1zm7.92 0h-3.96v-1h3.96v1zm17.8 0h-4.75v-1h4.75v1zm16.95 0h-3.93v-1h3.93v1zm7.86 0h-3.93v-1h3.93v1zm7.86 0h-3.93v-1h3.93v1zm7.85 0h-3.93v-1h3.93v1zm7.86 0h-3.93v-1h3.93v1zm7.86 0h-3.93v-1h3.93v1zm7.85 0h-3.92v-1h3.92v1zm7.86 0h-3.93v-1h3.93v1zm7.86 0h-3.93v-1h3.93v1zm7.86 0h-3.93v-1h3.93v1zm7.85 0h-3.93v-1h3.93v1zm7.86 0h-3.93v-1h3.93v1zm7.86 0h-3.93v-1h3.93v1zm7.85 0h-3.92v-1h3.92v1zm7.86 0h-3.93v-1h3.93v1zm7.86 0h-3.93v-1h3.93v1zm7.86 0h-3.93v-1h3.93v1zm7.85 0h-3.93v-1h3.93v1zm7.86 0h-3.93v-1h3.93v1zm7.86 0h-3.93v-1h3.93v1zm17.76 0h-4.75v-1h4.75v1zm16.75 0h-3.85v-1h3.86v1zm7.7 0h-3.84v-1h3.84v1zm7.7 0h-3.85v-1h3.86v1zm7.7 0h-3.85v-1h3.86v1zm7.7 0h-3.84v-1h3.84v1zm7.7 0h-3.85v-1h3.86v1zm7.7 0h-3.85v-1h3.86v1zm7.7 0h-3.85v-1h3.86v1zm7.7 0h-3.85v-1h3.86v1zM29 114.38v-4.75h1v4.75h-1zm261 0v-4.75h1v4.75h-1zm19 0v-4.75h1v4.75h-1zm165 0v-4.75h1v4.75h-1zm19 0v-4.75h1v4.75h-1zm77 0v-4.75h1v4.75h-1zm-541 4.75h1V121h1.48v1H30v1.48h-1v-4.36zM290 121v-1.88h1V121h1.88v1H291v1.48h-1V122h-1.48v-1H290zm19 0v-1.88h1V121h1.46v1H310v1.48h-1V122h-1.88v-1H309zm165 0v-1.88h1V121h1.88v1H475v1.48h-1V122h-1.46v-1H474zm19 0v-1.88h1V121h1.43v1H494v1.48h-1V122h-1.88v-1H493zm77 0v-1.88h1v4.36h-1V122h-1.42v-1H570zm-530.61 1h-3.96v-1h3.96v1zm7.9 0h-3.95v-1h3.96v1zm7.91 0h-3.95v-1h3.95v1zm7.91 0h-3.95v-1h3.95v1zm7.91 0h-3.95v-1h3.95v1zm7.91 0h-3.95v-1h3.95v1zm7.91 0H82.9v-1h3.95v1zm7.91 0H90.8v-1h3.95v1zm7.9 0H98.7v-1h3.96v1zm7.92 0h-3.96v-1h3.96v1zm7.9 0h-3.95v-1h3.96v1zm7.92 0h-3.96v-1h3.96v1zm7.9 0h-3.95v-1h3.95v1zm7.92 0h-3.96v-1h3.96v1zm7.9 0h-3.95v-1h3.95v1zm7.91 0h-3.95v-1h3.95v1zm7.91 0h-3.95v-1h3.95v1zm7.91 0h-3.95v-1h3.95v1zm7.91 0h-3.96v-1h3.96v1zm7.9 0h-3.94v-1h3.95v1zm7.92 0h-3.96v-1h3.96v1zm7.9 0h-3.95v-1h3.96v1zm7.92 0h-3.96v-1h3.96v1zm7.9 0h-3.95v-1h3.95v1zm7.91 0h-3.95v-1h3.95v1zm7.91 0h-3.95v-1h3.95v1zm7.91 0h-3.95v-1h3.95v1zm7.91 0h-3.95v-1h3.95v1zm7.91 0h-3.95v-1h3.95v1zm7.91 0h-3.95v-1h3.95v1zm7.9 0h-3.95v-1h3.96v1zm7.92 0h-3.96v-1h3.96v1zm17.8 0h-4.75v-1h4.75v1zm16.95 0h-3.93v-1h3.93v1zm7.86 0h-3.93v-1h3.93v1zm7.86 0h-3.93v-1h3.93v1zm7.85 0h-3.93v-1h3.93v1zm7.86 0h-3.93v-1h3.93v1zm7.86 0h-3.93v-1h3.93v1zm7.85 0h-3.92v-1h3.92v1zm7.86 0h-3.93v-1h3.93v1zm7.86 0h-3.93v-1h3.93v1zm7.86 0h-3.93v-1h3.93v1zm7.85 0h-3.93v-1h3.93v1zm7.86 0h-3.93v-1h3.93v1zm7.86 0h-3.93v-1h3.93v1zm7.85 0h-3.92v-1h3.92v1zm7.86 0h-3.93v-1h3.93v1zm7.86 0h-3.93v-1h3.93v1zm7.86 0h-3.93v-1h3.93v1zm7.85 0h-3.93v-1h3.93v1zm7.86 0h-3.93v-1h3.93v1zm7.86 0h-3.93v-1h3.93v1zm17.76 0h-4.75v-1h4.75v1zm16.75 0h-3.85v-1h3.86v1zm7.7 0h-3.84v-1h3.84v1zm7.7 0h-3.85v-1h3.86v1zm7.7 0h-3.85v-1h3.86v1zm7.7 0h-3.84v-1h3.84v1zm7.7 0h-3.85v-1h3.86v1zm7.7 0h-3.85v-1h3.86v1zm7.7 0h-3.85v-1h3.86v1zm7.7 0h-3.85v-1h3.86v1zM29 131.41v-3.96h1v3.96h-1zm261 0v-3.96h1v3.96h-1zm19 0v-3.96h1v3.96h-1zm165 0v-3.96h1v3.96h-1zm19 0v-3.96h1v3.96h-1zm77 0v-3.96h1v3.96h-1zm-541 7.93v-3.97h1v3.97h-1zm261 0v-3.97h1v3.97h-1zm19 0v-3.97h1v3.97h-1zm165 0v-3.97h1v3.97h-1zm19 0v-3.97h1v3.97h-1zm77 0v-3.97h1v3.97h-1zm-541 7.93v-3.97h1v3.97h-1zm261 0v-3.97h1v3.97h-1zm19 0v-3.97h1v3.97h-1zm165 0v-3.97h1v3.97h-1zm19 0v-3.97h1v3.97h-1zm77 0v-3.97h1v3.97h-1zM29 155.2v-3.97h1v3.97h-1zm261 0v-3.97h1v3.97h-1zm19 0v-3.97h1v3.97h-1zm165 0v-3.97h1v3.97h-1zm19 0v-3.97h1v3.97h-1zm77 0v-3.97h1v3.97h-1zm-541 7.93v-3.97h1v3.97h-1zm261 0v-3.97h1v3.97h-1zm19 0v-3.97h1v3.97h-1zm165 0v-3.97h1v3.97h-1zm19 0v-3.97h1v3.97h-1zm77 0v-3.97h1v3.97h-1zm-541 7.92v-3.96h1v3.96h-1zm261 0v-3.96h1v3.96h-1zm19 0v-3.96h1v3.96h-1zm165 0v-3.96h1v3.96h-1zm19 0v-3.96h1v3.96h-1zm77 0v-3.96h1v3.96h-1zm-541 7.93v-3.96h1v3.96h-1zm261 0v-3.96h1v3.96h-1zm19 0v-3.96h1v3.96h-1zm165 0v-3.96h1v3.96h-1zm19 0v-3.96h1v3.96h-1zm77 0v-3.96h1v3.96h-1zm-541 7.93v-3.96h1v3.96h-1zm261 0v-3.96h1v3.96h-1zm19 0v-3.96h1v3.96h-1zm165 0v-3.96h1v3.96h-1zm19 0v-3.96h1v3.96h-1zm77 0v-3.96h1v3.96h-1zm-541 7.93v-3.97h1v3.97h-1zm261 0v-3.97h1v3.97h-1zm19 0v-3.97h1v3.97h-1zm165 0v-3.97h1v3.97h-1zm19 0v-3.97h1v3.97h-1zm77 0v-3.97h1v3.97h-1zm-541 7.93v-3.97h1v3.97h-1zm261 0v-3.97h1v3.97h-1zm19 0v-3.97h1v3.97h-1zm165 0v-3.97h1v3.97h-1zm19 0v-3.97h1v3.97h-1zm77 0v-3.97h1v3.97h-1zM29 210.7v-3.97h1v3.97h-1zm261 0v-3.97h1v3.97h-1zm19 0v-3.97h1v3.97h-1zm165 0v-3.97h1v3.97h-1zm19 0v-3.97h1v3.97h-1zm77 0v-3.97h1v3.97h-1zm-541 7.93v-3.97h1v3.97h-1zm261 0v-3.97h1v3.97h-1zm19 0v-3.97h1v3.97h-1zm165 0v-3.97h1v3.97h-1zm19 0v-3.97h1v3.97h-1zm77 0v-3.97h1v3.97h-1zm-541 7.92v-3.96h1v3.96h-1zm261 0v-3.96h1v3.96h-1zm19 0v-3.96h1v3.96h-1zm165 0v-3.96h1v3.96h-1zm19 0v-3.96h1v3.96h-1zm77 0v-3.96h1v3.96h-1zm-541 3.97h1V232h1.48v1H30v1.88h-1v-4.36zM290 232v-1.48h1V232h1.88v1H291v1.88h-1V233h-1.48v-1H290zm19 0v-1.48h1V232h1.46v1H310v1.88h-1V233h-1.88v-1H309zm165 0v-1.48h1V232h1.88v1H475v1.88h-1V233h-1.46v-1H474zm19 0v-1.48h1V232h1.43v1H494v1.88h-1V233h-1.88v-1H493zm77 0v-1.48h1v4.35h-1V233h-1.42v-1H570zm-530.61 1h-3.96v-1h3.96v1zm7.9 0h-3.95v-1h3.96v1zm7.91 0h-3.95v-1h3.95v1zm7.91 0h-3.95v-1h3.95v1zm7.91 0h-3.95v-1h3.95v1zm7.91 0h-3.95v-1h3.95v1zm7.91 0H82.9v-1h3.95v1zm7.91 0H90.8v-1h3.95v1zm7.9 0H98.7v-1h3.96v1zm7.92 0h-3.96v-1h3.96v1zm7.9 0h-3.95v-1h3.96v1zm7.92 0h-3.96v-1h3.96v1zm7.9 0h-3.95v-1h3.95v1zm7.92 0h-3.96v-1h3.96v1zm7.9 0h-3.95v-1h3.95v1zm7.91 0h-3.95v-1h3.95v1zm7.91 0h-3.95v-1h3.95v1zm7.91 0h-3.95v-1h3.95v1zm7.91 0h-3.96v-1h3.96v1zm7.9 0h-3.94v-1h3.95v1zm7.92 0h-3.96v-1h3.96v1zm7.9 0h-3.95v-1h3.96v1zm7.92 0h-3.96v-1h3.96v1zm7.9 0h-3.95v-1h3.95v1zm7.91 0h-3.95v-1h3.95v1zm7.91 0h-3.95v-1h3.95v1zm7.91 0h-3.95v-1h3.95v1zm7.91 0h-3.95v-1h3.95v1zm7.91 0h-3.95v-1h3.95v1zm7.91 0h-3.95v-1h3.95v1zm7.9 0h-3.95v-1h3.96v1zm7.92 0h-3.96v-1h3.96v1zm17.8 0h-4.75v-1h4.75v1zm16.95 0h-3.93v-1h3.93v1zm7.86 0h-3.93v-1h3.93v1zm7.86 0h-3.93v-1h3.93v1zm7.85 0h-3.93v-1h3.93v1zm7.86 0h-3.93v-1h3.93v1zm7.86 0h-3.93v-1h3.93v1zm7.85 0h-3.92v-1h3.92v1zm7.86 0h-3.93v-1h3.93v1zm7.86 0h-3.93v-1h3.93v1zm7.86 0h-3.93v-1h3.93v1zm7.85 0h-3.93v-1h3.93v1zm7.86 0h-3.93v-1h3.93v1zm7.86 0h-3.93v-1h3.93v1zm7.85 0h-3.92v-1h3.92v1zm7.86 0h-3.93v-1h3.93v1zm7.86 0h-3.93v-1h3.93v1zm7.86 0h-3.93v-1h3.93v1zm7.85 0h-3.93v-1h3.93v1zm7.86 0h-3.93v-1h3.93v1zm7.86 0h-3.93v-1h3.93v1zm17.76 0h-4.75v-1h4.75v1zm16.75 0h-3.85v-1h3.86v1zm7.7 0h-3.84v-1h3.84v1zm7.7 0h-3.85v-1h3.86v1zm7.7 0h-3.85v-1h3.86v1zm7.7 0h-3.84v-1h3.84v1zm7.7 0h-3.85v-1h3.86v1zm7.7 0h-3.85v-1h3.86v1zm7.7 0h-3.85v-1h3.86v1zm7.7 0h-3.85v-1h3.86v1zM29 244.38v-4.75h1v4.75h-1zm261 0v-4.75h1v4.75h-1zm19 0v-4.75h1v4.75h-1zm165 0v-4.75h1v4.75h-1zm19 0v-4.75h1v4.75h-1zm77 0v-4.75h1v4.75h-1zm-541 4.75h1V251h1.48v1H30v1.56h-1v-4.44zM290 251v-1.88h1V251h1.88v1H291v1.56h-1V252h-1.48v-1H290zm19 0v-1.88h1V251h1.46v1H310v1.56h-1V252h-1.88v-1H309zm165 0v-1.88h1V251h1.88v1H475v1.56h-1V252h-1.46v-1H474zm19 0v-1.88h1V251h1.43v1H494v1.56h-1V252h-1.88v-1H493zm77 0v-1.88h1v4.44h-1V252h-1.42v-1H570zm-530.61 1h-3.96v-1h3.96v1zm7.9 0h-3.95v-1h3.96v1zm7.91 0h-3.95v-1h3.95v1zm7.91 0h-3.95v-1h3.95v1zm7.91 0h-3.95v-1h3.95v1zm7.91 0h-3.95v-1h3.95v1zm7.91 0H82.9v-1h3.95v1zm7.91 0H90.8v-1h3.95v1zm7.9 0H98.7v-1h3.96v1zm7.92 0h-3.96v-1h3.96v1zm7.9 0h-3.95v-1h3.96v1zm7.92 0h-3.96v-1h3.96v1zm7.9 0h-3.95v-1h3.95v1zm7.92 0h-3.96v-1h3.96v1zm7.9 0h-3.95v-1h3.95v1zm7.91 0h-3.95v-1h3.95v1zm7.91 0h-3.95v-1h3.95v1zm7.91 0h-3.95v-1h3.95v1zm7.91 0h-3.96v-1h3.96v1zm7.9 0h-3.94v-1h3.95v1zm7.92 0h-3.96v-1h3.96v1zm7.9 0h-3.95v-1h3.96v1zm7.92 0h-3.96v-1h3.96v1zm7.9 0h-3.95v-1h3.95v1zm7.91 0h-3.95v-1h3.95v1zm7.91 0h-3.95v-1h3.95v1zm7.91 0h-3.95v-1h3.95v1zm7.91 0h-3.95v-1h3.95v1zm7.91 0h-3.95v-1h3.95v1zm7.91 0h-3.95v-1h3.95v1zm7.9 0h-3.95v-1h3.96v1zm7.92 0h-3.96v-1h3.96v1zm17.8 0h-4.75v-1h4.75v1zm16.95 0h-3.93v-1h3.93v1zm7.86 0h-3.93v-1h3.93v1zm7.86 0h-3.93v-1h3.93v1zm7.85 0h-3.93v-1h3.93v1zm7.86 0h-3.93v-1h3.93v1zm7.86 0h-3.93v-1h3.93v1zm7.85 0h-3.92v-1h3.92v1zm7.86 0h-3.93v-1h3.93v1zm7.86 0h-3.93v-1h3.93v1zm7.86 0h-3.93v-1h3.93v1zm7.85 0h-3.93v-1h3.93v1zm7.86 0h-3.93v-1h3.93v1zm7.86 0h-3.93v-1h3.93v1zm7.85 0h-3.92v-1h3.92v1zm7.86 0h-3.93v-1h3.93v1zm7.86 0h-3.93v-1h3.93v1zm7.86 0h-3.93v-1h3.93v1zm7.85 0h-3.93v-1h3.93v1zm7.86 0h-3.93v-1h3.93v1zm7.86 0h-3.93v-1h3.93v1zm17.76 0h-4.75v-1h4.75v1zm16.75 0h-3.85v-1h3.86v1zm7.7 0h-3.84v-1h3.84v1zm7.7 0h-3.85v-1h3.86v1zm7.7 0h-3.85v-1h3.86v1zm7.7 0h-3.84v-1h3.84v1zm7.7 0h-3.85v-1h3.86v1zm7.7 0h-3.85v-1h3.86v1zm7.7 0h-3.85v-1h3.86v1zm7.7 0h-3.85v-1h3.86v1zM29 261.81v-4.12h1v4.12h-1zm261 0v-4.12h1v4.12h-1zm19 0v-4.12h1v4.12h-1zm165 0v-4.12h1v4.12h-1zm19 0v-4.12h1v4.12h-1zm78-4.12v4.12h-1v-4.12h1zM29 270.06v-4.12h1v4.12h-1zm261 0v-4.12h1v4.12h-1zm19 0v-4.12h1v4.12h-1zm165 0v-4.12h1v4.12h-1zm19 0v-4.12h1v4.12h-1zm78-4.12v4.12h-1v-4.12h1zM29 278.3v-4.12h1v4.12h-1zm261 0v-4.12h1v4.12h-1zm19 0v-4.12h1v4.12h-1zm165 0v-4.12h1v4.12h-1zm19 0v-4.12h1v4.12h-1zm78-4.12v4.12h-1v-4.12h1zM29 286.56v-4.12h1v4.12h-1zm261 0v-4.12h1v4.12h-1zm19 0v-4.12h1v4.12h-1zm165 0v-4.12h1v4.12h-1zm19 0v-4.12h1v4.12h-1zm78-4.12v4.12h-1v-4.12h1zM29 294.8v-4.12h1v4.12h-1zm261 0v-4.12h1v4.12h-1zm19 0v-4.12h1v4.12h-1zm165 0v-4.12h1v4.12h-1zm19 0v-4.12h1v4.12h-1zm78-4.12v4.12h-1v-4.12h1zM29 303.06v-4.12h1v4.12h-1zm261 0v-4.12h1v4.12h-1zm19 0v-4.12h1v4.12h-1zm165 0v-4.12h1v4.12h-1zm19 0v-4.12h1v4.12h-1zm78-4.12v4.12h-1v-4.12h1zM29 311.3v-4.12h1v4.12h-1zm261 0v-4.12h1v4.12h-1zm19 0v-4.12h1v4.12h-1zm165 0v-4.12h1v4.12h-1zm19 0v-4.12h1v4.12h-1zm78-4.12v4.12h-1v-4.12h1zm-542 8.25h1V317h1.48v1H29v-2.56zM290 317v-1.56h1V317h1.88v1h-4.36v-1H290zm19 0v-1.56h1V317h1.46v1h-4.33v-1H309zm165 0v-1.56h1V317h1.88v1h-4.34v-1H474zm19 0v-1.56h1V317h1.43v1h-4.3v-1H493zm78-1.56V318h-2.42v-1H570v-1.56h1zM39.39 318h-3.96v-1h3.96v1zm7.9 0h-3.95v-1h3.96v1zm7.91 0h-3.95v-1h3.95v1zm7.91 0h-3.95v-1h3.95v1zm7.91 0h-3.95v-1h3.95v1zm7.91 0h-3.95v-1h3.95v1zm7.91 0H82.9v-1h3.95v1zm7.91 0H90.8v-1h3.95v1zm7.9 0H98.7v-1h3.96v1zm7.92 0h-3.96v-1h3.96v1zm7.9 0h-3.95v-1h3.96v1zm7.92 0h-3.96v-1h3.96v1zm7.9 0h-3.95v-1h3.95v1zm7.92 0h-3.96v-1h3.96v1zm7.9 0h-3.95v-1h3.95v1zm7.91 0h-3.95v-1h3.95v1zm7.91 0h-3.95v-1h3.95v1zm7.91 0h-3.95v-1h3.95v1zm7.91 0h-3.96v-1h3.96v1zm7.9 0h-3.94v-1h3.95v1zm7.92 0h-3.96v-1h3.96v1zm7.9 0h-3.95v-1h3.96v1zm7.92 0h-3.96v-1h3.96v1zm7.9 0h-3.95v-1h3.95v1zm7.91 0h-3.95v-1h3.95v1zm7.91 0h-3.95v-1h3.95v1zm7.91 0h-3.95v-1h3.95v1zm7.91 0h-3.95v-1h3.95v1zm7.91 0h-3.95v-1h3.95v1zm7.91 0h-3.95v-1h3.95v1zm7.9 0h-3.95v-1h3.96v1zm7.92 0h-3.96v-1h3.96v1zm17.8 0h-4.75v-1h4.75v1zm16.95 0h-3.93v-1h3.93v1zm7.86 0h-3.93v-1h3.93v1zm7.86 0h-3.93v-1h3.93v1zm7.85 0h-3.93v-1h3.93v1zm7.86 0h-3.93v-1h3.93v1zm7.86 0h-3.93v-1h3.93v1zm7.85 0h-3.92v-1h3.92v1zm7.86 0h-3.93v-1h3.93v1zm7.86 0h-3.93v-1h3.93v1zm7.86 0h-3.93v-1h3.93v1zm7.85 0h-3.93v-1h3.93v1zm7.86 0h-3.93v-1h3.93v1zm7.86 0h-3.93v-1h3.93v1zm7.85 0h-3.92v-1h3.92v1zm7.86 0h-3.93v-1h3.93v1zm7.86 0h-3.93v-1h3.93v1zm7.86 0h-3.93v-1h3.93v1zm7.85 0h-3.93v-1h3.93v1zm7.86 0h-3.93v-1h3.93v1zm7.86 0h-3.93v-1h3.93v1zm17.76 0h-4.75v-1h4.75v1zm16.75 0h-3.85v-1h3.86v1zm7.7 0h-3.84v-1h3.84v1zm7.7 0h-3.85v-1h3.86v1zm7.7 0h-3.85v-1h3.86v1zm7.7 0h-3.84v-1h3.84v1zm7.7 0h-3.85v-1h3.86v1zm7.7 0h-3.85v-1h3.86v1zm7.7 0h-3.85v-1h3.86v1zm7.7 0h-3.85v-1h3.86v1z" fill="#80C1FF" fill-opacity=".6"/><path d="M310 122h260v110H310V122z" fill="#FF974C" fill-opacity=".2"/><path fill-rule="evenodd" clip-rule="evenodd" d="M569 123H311v108h258V123zm-259-1v110h260V122H310z" fill="#FF974C"/><path d="M30 30h36v18H30V30z" fill="#F366FF"/><path d="M35.07 36h.97v-1.32l1.82-.51V36h1.7v1.54h-1.7v2.69c0 .48.04.83.14 1.05.1.2.29.3.56.3.18 0 .34-.01.47-.05.14-.04.3-.1.46-.17l.33 1.4a4.62 4.62 0 01-1.9.44c-.65 0-1.13-.17-1.44-.5-.3-.33-.44-.88-.44-1.63v-3.53h-.97V36zM41.13 36h1.82v7h-1.82v-7zm-.27-1.97c0-.27.1-.5.3-.69.2-.2.48-.3.83-.3.36 0 .64.1.86.3.22.19.33.42.33.69 0 .27-.1.5-.33.68-.22.18-.5.27-.86.27-.35 0-.63-.1-.84-.27a.91.91 0 01-.29-.68zM44.27 36h.97v-1.32l1.82-.51V36h1.7v1.54h-1.7v2.69c0 .48.04.83.14 1.05.1.2.29.3.56.3.18 0 .34-.01.47-.05.14-.04.3-.1.46-.17l.33 1.4a4.62 4.62 0 01-1.9.44c-.65 0-1.13-.17-1.44-.5-.3-.33-.44-.88-.44-1.63v-3.53h-.97V36zM52.04 40.65c0 .32.04.56.12.71.09.15.22.23.4.23a1.8 1.8 0 00.74-.16l.2 1.43a4.03 4.03 0 01-1.64.34c-.54 0-.94-.13-1.22-.37-.28-.25-.42-.66-.42-1.23v-8.4h1.82v7.45zM60.15 42.4c-.28.22-.66.41-1.14.57-.48.15-.99.23-1.53.23-1.13 0-1.95-.33-2.48-.98a4.27 4.27 0 01-.78-2.72c0-1.23.3-2.16.88-2.77a3.26 3.26 0 012.48-.93c.35 0 .7.05 1.03.14a2.27 2.27 0 011.53 1.33c.16.37.24.82.24 1.36 0 .2-.02.4-.04.63-.02.23-.05.46-.1.7h-4.2c.03.59.18 1.03.45 1.33.28.3.72.45 1.34.45a2.9 2.9 0 001.72-.53l.6 1.19zm-2.6-5.14c-.48 0-.83.14-1.06.43a2.1 2.1 0 00-.4 1.14h2.6c.03-.5-.05-.9-.24-1.16-.19-.27-.49-.41-.9-.41z" fill="#fff"/><path d="M494 30h41v18h-41V30z" fill="#FE4D4D"/><path d="M499.8 36h1.33l.2.84h.06c.25-.35.53-.62.86-.78a2.7 2.7 0 011.22-.26c.87 0 1.53.28 1.97.84.44.55.66 1.45.66 2.68 0 .6-.07 1.14-.21 1.62-.14.48-.35.88-.63 1.22-.27.34-.6.6-1.01.77-.4.18-.85.27-1.36.27a3.02 3.02 0 01-1.27-.27v2.87h-1.82V36zm3.12 1.34c-.36 0-.63.1-.84.27-.2.18-.35.44-.46.8v2.91c.13.1.27.19.42.25.16.06.36.09.61.09.53 0 .92-.19 1.18-.55.26-.37.4-.98.4-1.83 0-.62-.11-1.1-.32-1.43-.2-.34-.53-.5-.99-.5zM511.5 37.7c-.29-.1-.55-.15-.78-.15-.33 0-.6.1-.83.27-.21.17-.36.39-.43.66V43h-1.82v-7h1.41l.21.92h.06c.16-.34.37-.6.64-.8.27-.18.6-.27.96-.27.24 0 .51.05.82.15l-.24 1.7zM513 36h1.82v7h-1.83v-7zm-.27-1.97c0-.27.1-.5.3-.69.2-.2.48-.3.83-.3.36 0 .64.1.86.3.22.19.33.42.33.69 0 .27-.1.5-.33.68-.22.18-.5.27-.86.27-.35 0-.63-.1-.84-.27a.91.91 0 01-.3-.68zM521.82 42.57a4.41 4.41 0 01-2.24.63c-.56 0-1.03-.1-1.42-.27-.39-.18-.7-.42-.94-.74a3.23 3.23 0 01-.54-1.18c-.1-.46-.15-.96-.15-1.51 0-1.19.27-2.1.8-2.73.53-.64 1.3-.97 2.32-.97a4.17 4.17 0 012.09.45l-.44 1.49a2.73 2.73 0 00-1.36-.32c-.5 0-.88.16-1.14.5-.26.32-.4.85-.4 1.58 0 .3.04.57.1.83a2 2 0 00.3.65c.13.2.3.34.5.45.22.1.47.16.75.16.3 0 .56-.04.78-.12.21-.08.4-.18.57-.29l.42 1.39zM528.57 42.4c-.28.22-.66.41-1.15.57-.47.15-.98.23-1.52.23-1.13 0-1.96-.33-2.48-.98a4.27 4.27 0 01-.78-2.72c0-1.23.29-2.16.88-2.77a3.26 3.26 0 012.48-.93c.35 0 .7.05 1.03.14a2.28 2.28 0 011.53 1.33c.16.37.24.82.24 1.36a6.9 6.9 0 01-.14 1.33h-4.2c.02.59.17 1.03.44 1.33.28.3.73.45 1.35.45a2.9 2.9 0 001.72-.53l.6 1.19zm-2.6-5.14c-.48 0-.83.14-1.07.43a2.1 2.1 0 00-.4 1.14h2.6c.04-.5-.04-.9-.24-1.16-.18-.27-.48-.41-.9-.41z" fill="#fff"/><defs><linearGradient id="paint0_linear" x1="57.5" y1="146" x2="57.5" y2="161" gradientUnits="userSpaceOnUse"><stop stop-color="#FDB52B"/><stop offset="1" stop-color="#F7752C"/></linearGradient><linearGradient id="paint1_linear" x1="57.5" y1="181" x2="57.5" y2="196" gradientUnits="userSpaceOnUse"><stop stop-color="#FDB52B"/><stop offset="1" stop-color="#F7752C"/></linearGradient><linearGradient id="paint2_linear" x1="57.5" y1="216" x2="57.5" y2="231" gradientUnits="userSpaceOnUse"><stop stop-color="#FDB52B"/><stop offset="1" stop-color="#F7752C"/></linearGradient><linearGradient id="paint3_linear" x1="57.5" y1="276" x2="57.5" y2="291" gradientUnits="userSpaceOnUse"><stop stop-color="#FDB52B"/><stop offset="1" stop-color="#F7752C"/></linearGradient><linearGradient id="paint4_linear" x1="532" y1="30" x2="532" y2="70" gradientUnits="userSpaceOnUse"><stop stop-color="#FDB52B"/><stop offset="1" stop-color="#F7752C"/></linearGradient><filter id="filter0_d" x="0" y="5" width="600" height="347" filterUnits="userSpaceOnUse" color-interpolation-filters="sRGB"><feFlood flood-opacity="0" result="BackgroundImageFix"/><feColorMatrix in="SourceAlpha" values="0 0 0 0 0 0 0 0 0 0 0 0 0 0 0 0 0 0 127 0"/><feOffset dy="5"/><feGaussianBlur stdDeviation="5"/><feColorMatrix values="0 0 0 0 0 0 0 0 0 0 0 0 0 0 0 0 0 0 0.25 0"/><feBlend in2="BackgroundImageFix" result="effect1_dropShadow"/><feBlend in="SourceGraphic" in2="effect1_dropShadow" result="shape"/></filter></defs></svg>