<svg width="705" height="280" viewBox="0 0 705 280" fill="none" xmlns="http://www.w3.org/2000/svg"><path d="M0 40h658v20H0V40z" fill="#CBEAC8"/><path d="M1 0h657v40H1V0z" fill="#fff"/><path d="M21.12 24h2.16v-4.16c0-1.04.72-1.76 1.68-1.76.88 0 1.44.56 1.44 1.52V24h2.16v-4.72c0-2-1.28-3.28-2.88-3.28-1.52 0-2.32 1.28-2.32 1.28h-.08V12.8h-2.16V24zM34.31 24.16c2.16 0 3.36-1.28 3.36-1.28l-1.12-1.52s-.72.88-2.08.88c-1.2 0-1.84-.64-2.08-1.36h5.68s.08-.4.08-.96A3.93 3.93 0 0034.23 16a4.1 4.1 0 00-4.08 4.08 4.11 4.11 0 004.16 4.08zm-1.92-4.88c.24-.72.88-1.36 1.76-1.36s1.52.64 1.76 1.36H32.4zM41.76 24.16c1.52 0 2.32-1.12 2.32-1.12h.08V24h2.16v-4.88c0-1.76-1.36-3.12-3.36-3.12-2.08 0-3.2 1.52-3.2 1.52l1.28 1.28s.64-.88 1.76-.88c.8 0 1.28.48 1.36 1.04l-2.48.45c-1.44.25-2.32 1.23-2.32 2.51 0 1.28.96 2.24 2.4 2.24zm.72-1.76c-.64 0-.96-.32-.96-.8 0-.4.32-.7.88-.8l1.76-.32v.16c0 1.04-.72 1.76-1.68 1.76zM51.44 24.16c1.68 0 2.48-1.28 2.48-1.28H54V24h2.16V12.8H54v4.48h-.08S53.12 16 51.44 16c-1.84 0-3.52 1.68-3.52 4.08 0 2.4 1.68 4.08 3.52 4.08zm.64-2a2 2 0 01-2-2.08 2 2 0 114 0 2 2 0 01-2 2.08zM62 24.16a4.81 4.81 0 003.36-1.28l-1.12-1.52s-.72.88-2.08.88c-1.2 0-1.84-.64-2.08-1.36h5.68s.08-.4.08-.96A3.93 3.93 0 0061.92 16a4.1 4.1 0 00-4.08 4.08A4.11 4.11 0 0062 24.16zm-1.92-4.88c.24-.72.88-1.36 1.76-1.36s1.52.64 1.76 1.36h-3.52zM67.45 24h2.16v-3.68c0-1.28.8-2.08 1.84-2.08.48 0 .72.08.72.08V16H72c-1.52 0-2.32 1.28-2.32 1.28h-.08v-1.12h-2.16V24z" fill="#4EB543"/><path fill-rule="evenodd" clip-rule="evenodd" d="M656 2H2v36h654V2zM0 0v40h658V0H0z" fill="#4EB543"/><path d="M0 60h658v40H0V60zM0 140h658v40H0v-40z" fill="#FFEACC"/><path d="M1 100h657v40H1v-40z" fill="#fff"/><path fill-rule="evenodd" clip-rule="evenodd" d="M656 102H2v36h654v-36zM0 100v40h658v-40H0z" fill="#FF6B00"/><path d="M23.6 124.16c2.16 0 3.28-1.12 3.28-2.48 0-2.56-4-2.4-4-3.28 0-.24.24-.48.8-.48 1.12 0 1.76.64 1.76.64l1.28-1.36s-1.04-1.2-3.04-1.2-3.12 1.12-3.12 2.4c0 2.56 4 2.4 4 3.28 0 .32-.24.56-.96.56a3.01 3.01 0 01-2.08-.88l-1.28 1.36s1.2 1.44 3.36 1.44zM32 124.16c2.16 0 3.36-1.28 3.36-1.28l-1.12-1.52s-.72.88-2.08.88c-1.2 0-1.84-.64-2.08-1.36h5.68s.08-.4.08-.96a3.93 3.93 0 00-3.92-3.92 4.1 4.1 0 00-4.08 4.08 4.11 4.11 0 004.16 4.08zm-1.92-4.88c.24-.72.88-1.36 1.76-1.36s1.52.64 1.76 1.36h-3.52zM41.13 124.16a4 4 0 003.28-1.6l-1.36-1.36s-.72.96-1.92.96a2 2 0 01-2-2.08 2 2 0 012-2.08c1.2 0 1.92.96 1.92.96l1.36-1.36s-1.04-1.6-3.28-1.6a4.11 4.11 0 00-4.16 4.08 4.11 4.11 0 004.16 4.08zM49.04 124.16c.8 0 1.44-.24 1.44-.24v-2s-.4.16-.88.16c-.64 0-1.04-.4-1.04-1.12v-2.64h1.76v-2h-1.76v-2.4h-1.92v1.44c0 .64-.32.96-.88.96h-.72v2h1.36v2.96c0 1.84 1.04 2.88 2.64 2.88zM52.16 124h2.17v-7.84h-2.16V124zm1.08-8.88c.68 0 1.24-.56 1.24-1.2a1.24 1.24 0 00-2.48 0c0 .64.56 1.2 1.24 1.2zM60.08 124.16a4.11 4.11 0 004.16-4.08 4.11 4.11 0 00-4.16-4.08 4.11 4.11 0 00-4.16 4.08 4.11 4.11 0 004.16 4.08zm0-2a2 2 0 01-2-2.08 2 2 0 114 0 2 2 0 01-2 2.08zM65.84 124H68v-4.16c0-1.04.72-1.76 1.68-1.76.88 0 1.44.56 1.44 1.52v4.4h2.16v-4.72c0-2-1.28-3.28-2.88-3.28-1.52 0-2.32 1.28-2.32 1.28H68v-1.12h-2.16V124z" fill="#FF6B00"/><path d="M0 180h658v60H0v-60z" fill="#DAD7F4"/><path d="M1 240h657v40H1v-40z" fill="#fff"/><path fill-rule="evenodd" clip-rule="evenodd" d="M656 242H2v36h654v-36zM0 240v40h658v-40H0z" fill="#744CE6"/><path d="M21.52 264h2.16v-5.68h1.76v-2h-1.76v-.48c0-.72.4-1.12 1.04-1.12.48 0 .88.16.88.16v-2s-.64-.24-1.44-.24c-1.6 0-2.64 1.04-2.64 2.88v.8h-1.2v2h1.2V264zM30.64 264.16a4.11 4.11 0 004.16-4.08 4.11 4.11 0 00-4.16-4.08 4.11 4.11 0 00-4.16 4.08 4.11 4.11 0 004.16 4.08zm0-2a2 2 0 01-2-2.08 2 2 0 114 0 2 2 0 01-2 2.08zM40.08 264.16a4.11 4.11 0 004.16-4.08 4.11 4.11 0 00-4.16-4.08 4.11 4.11 0 00-4.16 4.08 4.11 4.11 0 004.16 4.08zm0-2a2 2 0 01-2-2.08 2 2 0 114 0 2 2 0 01-2 2.08zM49.12 264.16c.8 0 1.44-.24 1.44-.24v-2s-.4.16-.88.16c-.64 0-1.04-.4-1.04-1.12v-2.64h1.76v-2h-1.76v-2.4h-1.92v1.44c0 .64-.32.96-.88.96h-.72v2h1.36v2.96c0 1.84 1.04 2.88 2.64 2.88zM55.77 264.16c2.16 0 3.36-1.28 3.36-1.28L58 261.36s-.72.88-2.08.88c-1.2 0-1.84-.64-2.08-1.36h5.68s.08-.4.08-.96a3.93 3.93 0 00-3.92-3.92 4.1 4.1 0 00-4.08 4.08 4.11 4.11 0 004.16 4.08zm-1.92-4.88c.24-.72.88-1.36 1.76-1.36s1.52.64 1.76 1.36h-3.52zM61.21 264h2.16v-3.68c0-1.28.8-2.08 1.84-2.08.48 0 .72.08.72.08V256h-.16a2.92 2.92 0 00-2.32 1.28h-.08v-1.12h-2.16V264z" fill="#744CE6"/><path d="M343.8 55.24c2.56 0 4.24-1.68 4.24-3.84s-1.6-3.76-3.92-3.76c-.96 0-1.6.4-1.6.4l.08-2h4.72V43.8h-6.8l-.4 6.56 1.68.24s.64-.88 1.84-.88c1.2 0 1.92.72 1.92 1.68s-.72 1.68-2 1.68c-1.44 0-2.4-1.2-2.4-1.2l-1.6 1.6s1.44 1.76 4.24 1.76zM349.73 58.36h2.16v-4.48h.08s.8 1.28 2.48 1.28c1.84 0 3.52-1.68 3.52-4.08 0-2.4-1.68-4.08-3.52-4.08-1.68 0-2.48 1.28-2.48 1.28h-.08v-1.12h-2.16v11.2zm4.08-5.2a2 2 0 01-2-2.08 2 2 0 114 0 2 2 0 01-2 2.08zM358.3 55h2.47l1.65-2.56h.07l1.64 2.56h2.49l-2.8-4 2.63-3.84h-2.47l-1.5 2.4h-.06l-1.49-2.4h-2.48L361.1 51l-2.8 4zM329 40l-5 8h10l-5-8zM329 60l-5-8h10l-5 8z" fill="#4EB543"/><path d="M328 46h2v8h-2v-8z" fill="#4EB543"/><path d="M341.4 85h2.4V73.8h-2s-.56 1.28-2.32 1.52v1.52h1.92V85zM350.83 85.24c2.56 0 4.8-2.24 4.8-5.84 0-3.6-2.24-5.84-4.8-5.84-2.56 0-4.8 2.24-4.8 5.84 0 3.6 2.24 5.84 4.8 5.84zm0-2.24c-1.2 0-2.4-1.2-2.4-3.6 0-2.4 1.2-3.6 2.4-3.6s2.4 1.2 2.4 3.6c0 2.4-1.2 3.6-2.4 3.6zM357.48 88.36h2.16v-4.48h.08s.8 1.28 2.48 1.28c1.84 0 3.52-1.68 3.52-4.08 0-2.4-1.68-4.08-3.52-4.08-1.68 0-2.48 1.28-2.48 1.28h-.08v-1.12h-2.16v11.2zm4.08-5.2a2 2 0 01-2-2.08 2 2 0 114 0 2 2 0 01-2 2.08zM366.05 85h2.47l1.65-2.56h.07l1.64 2.56h2.49l-2.8-4 2.63-3.84h-2.47l-1.5 2.4h-.06l-1.49-2.4h-2.48l2.65 3.84-2.8 4zM329 60l-5 8h10l-5-8zM329 100l-5-8h10l-5 8z" fill="#FF6B00"/><path d="M328 66h2v28h-2V66zM341.4 165h2.4v-11.2h-2s-.56 1.28-2.32 1.52v1.52h1.92V165zM350.83 165.24c2.56 0 4.8-2.24 4.8-5.84 0-3.6-2.24-5.84-4.8-5.84-2.56 0-4.8 2.24-4.8 5.84 0 3.6 2.24 5.84 4.8 5.84zm0-2.24c-1.2 0-2.4-1.2-2.4-3.6 0-2.4 1.2-3.6 2.4-3.6s2.4 1.2 2.4 3.6c0 2.4-1.2 3.6-2.4 3.6zM357.48 168.36h2.16v-4.48h.08s.8 1.28 2.48 1.28c1.84 0 3.52-1.68 3.52-4.08 0-2.4-1.68-4.08-3.52-4.08-1.68 0-2.48 1.28-2.48 1.28h-.08v-1.12h-2.16v11.2zm4.08-5.2a2 2 0 01-2-2.08 2 2 0 114 0 2 2 0 01-2 2.08zM366.05 165h2.47l1.65-2.56h.07l1.64 2.56h2.49l-2.8-4 2.63-3.84h-2.47l-1.5 2.4h-.06l-1.49-2.4h-2.48l2.65 3.84-2.8 4zM329 140l-5 8h10l-5-8zM329 180l-5-8h10l-5 8z" fill="#FF6B00"/><path d="M328 146h2v28h-2v-28z" fill="#FF6B00"/><path d="M341.4 215h2.4v-11.2h-2s-.56 1.28-2.32 1.52v1.52h1.92V215zM350.03 215.24c2.56 0 4.24-1.68 4.24-3.84s-1.6-3.76-3.92-3.76c-.96 0-1.6.4-1.6.4l.08-2h4.72v-2.24h-6.8l-.4 6.56 1.68.24s.64-.88 1.84-.88c1.2 0 1.92.72 1.92 1.68s-.72 1.68-2 1.68c-1.44 0-2.4-1.2-2.4-1.2l-1.6 1.6s1.44 1.76 4.24 1.76zM355.96 218.36h2.16v-4.48h.08s.8 1.28 2.48 1.28c1.84 0 3.52-1.68 3.52-4.08 0-2.4-1.68-4.08-3.52-4.08-1.68 0-2.48 1.28-2.48 1.28h-.08v-1.12h-2.16v11.2zm4.08-5.2a2 2 0 01-2-2.08 2 2 0 114 0 2 2 0 01-2 2.08zM364.53 215H367l1.65-2.56h.06l1.65 2.56h2.48l-2.8-4 2.64-3.84h-2.48l-1.49 2.4h-.06l-1.5-2.4h-2.47l2.64 3.84-2.8 4zM329 180l-5 8h10l-5-8zM329 240l-5-8h10l-5 8z" fill="#744CE6"/><path d="M328 186h2v48h-2v-48z" fill="#744CE6"/><path d="M669.46 73h2.48V61.43h-2.07s-.57 1.33-2.39 1.57v1.57h1.98V73zM678.38 73.25c2.64 0 4.38-1.74 4.38-3.97 0-2.23-1.66-3.88-4.05-3.88-1 0-1.65.41-1.65.41l.08-2.06H682v-2.32H675l-.41 6.78 1.73.25s.66-.91 1.9-.91c1.24 0 1.99.74 1.99 1.73 0 1-.75 1.74-2.07 1.74a3.5 3.5 0 01-2.48-1.24L674 71.43s1.49 1.82 4.38 1.82zM684.5 76.47h2.23v-4.63h.08s.83 1.32 2.56 1.32c1.9 0 3.64-1.73 3.64-4.2 0-2.49-1.74-4.22-3.64-4.22-1.73 0-2.56 1.32-2.56 1.32h-.08V64.9h-2.23v11.57zm4.21-5.37c-1.16 0-2.06-.91-2.06-2.15a2.06 2.06 0 114.13 0c0 1.24-.91 2.15-2.07 2.15zM693.34 73h2.56l1.7-2.64h.07l1.7 2.64h2.56l-2.89-4.13 2.73-3.97h-2.56l-1.54 2.48h-.06l-1.54-2.48h-2.56l2.73 3.97-2.9 4.13zM667.48 196h8.18v-2.31h-4.96c1.32-2.07 4.96-2.56 4.96-5.87 0-2.06-1.57-3.63-4.05-3.63-3.22 0-4.13 2.72-4.13 2.72l1.98 1s.58-1.4 1.99-1.4c.99 0 1.65.65 1.65 1.48 0 2.56-5.62 2.56-5.62 8.01zM681.44 196.25c2.65 0 4.38-1.74 4.38-3.97 0-2.23-1.65-3.88-4.05-3.88-.99 0-1.65.41-1.65.41l.08-2.06h4.88v-2.31h-7.02l-.42 6.77 1.74.25s.66-.91 1.9-.91c1.24 0 1.98.74 1.98 1.73 0 1-.74 1.74-2.06 1.74-1.5 0-2.48-1.24-2.48-1.24l-1.65 1.65s1.48 1.82 4.37 1.82zM687.56 199.47h2.23v-4.63h.09s.82 1.33 2.56 1.33c1.9 0 3.63-1.74 3.63-4.22 0-2.47-1.73-4.21-3.63-4.21-1.74 0-2.56 1.32-2.56 1.32h-.09v-1.15h-2.23v11.56zm4.22-5.37c-1.16 0-2.07-.9-2.07-2.15a2.07 2.07 0 114.13 0c0 1.24-.9 2.15-2.06 2.15zM696.4 196h2.57l1.7-2.64h.07l1.7 2.64H705l-2.9-4.13 2.74-3.96h-2.57l-1.53 2.47h-.07l-1.53-2.47h-2.56l2.72 3.96-2.9 4.13z" fill="#E84E1B"/><path fill-rule="evenodd" clip-rule="evenodd" d="M662.77 90L657 100l-5.77-10H656V50h-4.77L657 40l5.77 10H658v40h4.77zM662.77 230L657 240l-5.77-10H656v-80h-4.77l5.77-10 5.77 10H658v80h4.77z" fill="#E84E1B"/></svg>